G04 Layer_Color=7318015*
%FSLAX25Y25*%
%MOIN*%
G70*
G01*
G75*
G04:AMPARAMS|DCode=10|XSize=39.37mil|YSize=23.62mil|CornerRadius=2.36mil|HoleSize=0mil|Usage=FLASHONLY|Rotation=0.000|XOffset=0mil|YOffset=0mil|HoleType=Round|Shape=RoundedRectangle|*
%AMROUNDEDRECTD10*
21,1,0.03937,0.01890,0,0,0.0*
21,1,0.03465,0.02362,0,0,0.0*
1,1,0.00472,0.01732,-0.00945*
1,1,0.00472,-0.01732,-0.00945*
1,1,0.00472,-0.01732,0.00945*
1,1,0.00472,0.01732,0.00945*
%
%ADD10ROUNDEDRECTD10*%
%ADD11R,0.03740X0.04134*%
%ADD12R,0.03543X0.03937*%
%ADD13R,0.04400X0.04000*%
%ADD14R,0.03000X0.03000*%
%ADD15R,0.03740X0.03937*%
%ADD16R,0.03543X0.04134*%
D10*
X334000Y416870D02*
D03*
Y423130D02*
D03*
D11*
X392756Y296000D02*
D03*
X387244D02*
D03*
D12*
X372559Y244000D02*
D03*
X367441D02*
D03*
X232559Y320000D02*
D03*
X227441D02*
D03*
X232559Y270000D02*
D03*
X227441D02*
D03*
X372559Y284000D02*
D03*
X367441D02*
D03*
X372559Y296000D02*
D03*
X367441D02*
D03*
X372559Y336000D02*
D03*
X367441D02*
D03*
X372559Y324000D02*
D03*
X367441D02*
D03*
X392559Y284000D02*
D03*
X387441D02*
D03*
D13*
X233347Y250000D02*
D03*
X226600D02*
D03*
X233347Y300000D02*
D03*
X226600D02*
D03*
D14*
X387250Y244000D02*
D03*
X392750D02*
D03*
D15*
X386850Y336000D02*
D03*
X393150D02*
D03*
D16*
X392657Y324000D02*
D03*
X387343D02*
D03*
M02*
