G04 Layer_Color=20142*
%FSLAX25Y25*%
%MOIN*%
G70*
G01*
G75*
G04:AMPARAMS|DCode=39|XSize=47.37mil|YSize=31.62mil|CornerRadius=6.36mil|HoleSize=0mil|Usage=FLASHONLY|Rotation=0.000|XOffset=0mil|YOffset=0mil|HoleType=Round|Shape=RoundedRectangle|*
%AMROUNDEDRECTD39*
21,1,0.04737,0.01890,0,0,0.0*
21,1,0.03465,0.03162,0,0,0.0*
1,1,0.01272,0.01732,-0.00945*
1,1,0.01272,-0.01732,-0.00945*
1,1,0.01272,-0.01732,0.00945*
1,1,0.01272,0.01732,0.00945*
%
%ADD39ROUNDEDRECTD39*%
%ADD40R,0.04540X0.04934*%
%ADD41R,0.04343X0.04737*%
%ADD42R,0.05200X0.04800*%
%ADD43R,0.03800X0.03800*%
%ADD44R,0.04540X0.04737*%
%ADD45R,0.04343X0.04934*%
%ADD46R,0.07099X0.07099*%
%ADD47C,0.07099*%
%ADD48C,0.07200*%
%ADD49R,0.07200X0.07200*%
%ADD50R,0.06706X0.06706*%
%ADD51C,0.06706*%
%ADD52C,0.15800*%
%ADD53R,0.07493X0.07493*%
%ADD54C,0.07493*%
%ADD55R,0.07800X0.07800*%
%ADD56C,0.07800*%
%ADD57O,0.07800X0.05800*%
%ADD58R,0.07800X0.05800*%
%ADD59C,0.05800*%
D39*
X334000Y416870D02*
D03*
Y423130D02*
D03*
D40*
X392756Y296000D02*
D03*
X387244D02*
D03*
D41*
X372559Y244000D02*
D03*
X367441D02*
D03*
X232559Y320000D02*
D03*
X227441D02*
D03*
X232559Y270000D02*
D03*
X227441D02*
D03*
X372559Y284000D02*
D03*
X367441D02*
D03*
X372559Y296000D02*
D03*
X367441D02*
D03*
X372559Y336000D02*
D03*
X367441D02*
D03*
X372559Y324000D02*
D03*
X367441D02*
D03*
X392559Y284000D02*
D03*
X387441D02*
D03*
D42*
X233347Y250000D02*
D03*
X226600D02*
D03*
X233347Y300000D02*
D03*
X226600D02*
D03*
D43*
X387250Y244000D02*
D03*
X392750D02*
D03*
D44*
X386850Y336000D02*
D03*
X393150D02*
D03*
D45*
X392657Y324000D02*
D03*
X387343D02*
D03*
D46*
X420000Y365000D02*
D03*
Y415000D02*
D03*
X170000Y319000D02*
D03*
X180000Y369000D02*
D03*
X420000Y245000D02*
D03*
X170000Y269000D02*
D03*
X420000Y285000D02*
D03*
Y325000D02*
D03*
D47*
Y375000D02*
D03*
Y405000D02*
D03*
X170000Y309000D02*
D03*
X180000Y339000D02*
D03*
Y349000D02*
D03*
Y359000D02*
D03*
X420000Y255000D02*
D03*
X170000Y259000D02*
D03*
X420000Y295000D02*
D03*
Y335000D02*
D03*
D48*
X290000Y420000D02*
D03*
X300000D02*
D03*
D49*
X310000D02*
D03*
D50*
X355000Y405000D02*
D03*
D51*
X365000D02*
D03*
X375000D02*
D03*
X385000D02*
D03*
X355000Y435000D02*
D03*
X365000D02*
D03*
X375000D02*
D03*
X385000D02*
D03*
D52*
X420000Y220000D02*
D03*
X170000D02*
D03*
X420000Y440000D02*
D03*
X170000D02*
D03*
D53*
X210000Y300000D02*
D03*
Y250000D02*
D03*
D54*
Y310000D02*
D03*
Y320000D02*
D03*
Y260000D02*
D03*
Y270000D02*
D03*
D55*
X254000Y376000D02*
D03*
X346000D02*
D03*
D56*
X254000Y366000D02*
D03*
Y356000D02*
D03*
Y346000D02*
D03*
Y336000D02*
D03*
Y326000D02*
D03*
Y316000D02*
D03*
Y306000D02*
D03*
Y296000D02*
D03*
Y286000D02*
D03*
Y276000D02*
D03*
Y266000D02*
D03*
Y256000D02*
D03*
Y246000D02*
D03*
Y236000D02*
D03*
X346000Y366000D02*
D03*
Y356000D02*
D03*
Y346000D02*
D03*
Y336000D02*
D03*
Y326000D02*
D03*
Y316000D02*
D03*
Y306000D02*
D03*
Y296000D02*
D03*
Y286000D02*
D03*
Y276000D02*
D03*
Y266000D02*
D03*
Y256000D02*
D03*
Y246000D02*
D03*
Y236000D02*
D03*
D57*
X330000D02*
D03*
Y246000D02*
D03*
Y256000D02*
D03*
Y266000D02*
D03*
Y276000D02*
D03*
Y286000D02*
D03*
Y296000D02*
D03*
Y306000D02*
D03*
Y316000D02*
D03*
Y326000D02*
D03*
Y336000D02*
D03*
Y346000D02*
D03*
Y356000D02*
D03*
Y366000D02*
D03*
Y376000D02*
D03*
X270000Y236000D02*
D03*
Y246000D02*
D03*
Y256000D02*
D03*
Y266000D02*
D03*
Y276000D02*
D03*
Y286000D02*
D03*
Y296000D02*
D03*
Y306000D02*
D03*
Y316000D02*
D03*
Y326000D02*
D03*
Y336000D02*
D03*
Y346000D02*
D03*
Y356000D02*
D03*
Y366000D02*
D03*
D58*
Y376000D02*
D03*
D59*
X379705Y343705D02*
D03*
X380000Y316000D02*
D03*
Y252000D02*
D03*
Y276000D02*
D03*
Y304000D02*
D03*
X230000Y290000D02*
D03*
M02*
