G04 Layer_Color=15132400*
%FSLAX25Y25*%
%MOIN*%
G70*
G01*
G75*
%ADD16C,0.02000*%
%ADD28C,0.00984*%
%ADD29C,0.00394*%
%ADD30C,0.01000*%
%ADD31C,0.00787*%
%ADD32R,0.01800X0.03000*%
D16*
X212665Y218331D02*
X210998Y219997D01*
X207666D01*
X206000Y218331D01*
Y216665D01*
X207666Y214998D01*
X210998D01*
X212665Y213332D01*
Y211666D01*
X210998Y210000D01*
X207666D01*
X206000Y211666D01*
X217663Y210000D02*
X220995D01*
X222661Y211666D01*
Y214998D01*
X220995Y216665D01*
X217663D01*
X215997Y214998D01*
Y211666D01*
X217663Y210000D01*
X225993D02*
X229326D01*
X227660D01*
Y219997D01*
X225993D01*
X235990Y216665D02*
X239323D01*
X240989Y214998D01*
Y210000D01*
X235990D01*
X234324Y211666D01*
X235990Y213332D01*
X240989D01*
X244321Y216665D02*
Y210000D01*
Y213332D01*
X245987Y214998D01*
X247653Y216665D01*
X249319D01*
X254318Y219997D02*
Y210000D01*
X257650Y213332D01*
X260982Y210000D01*
Y219997D01*
X265981Y216665D02*
X269313D01*
X270979Y214998D01*
Y210000D01*
X265981D01*
X264315Y211666D01*
X265981Y213332D01*
X270979D01*
X274311Y210000D02*
X277643D01*
X275977D01*
Y219997D01*
X274311D01*
X282642Y210000D02*
X285974D01*
X284308D01*
Y219997D01*
X282642D01*
X307634Y218331D02*
X305968Y219997D01*
X302635D01*
X300969Y218331D01*
Y211666D01*
X302635Y210000D01*
X305968D01*
X307634Y211666D01*
X312632Y210000D02*
X315965D01*
X317631Y211666D01*
Y214998D01*
X315965Y216665D01*
X312632D01*
X310966Y214998D01*
Y211666D01*
X312632Y210000D01*
X320963D02*
Y216665D01*
X325961D01*
X327627Y214998D01*
Y210000D01*
X332626Y218331D02*
Y216665D01*
X330960D01*
X334292D01*
X332626D01*
Y211666D01*
X334292Y210000D01*
X339290Y216665D02*
Y210000D01*
Y213332D01*
X340956Y214998D01*
X342622Y216665D01*
X344289D01*
X350953Y210000D02*
X354285D01*
X355951Y211666D01*
Y214998D01*
X354285Y216665D01*
X350953D01*
X349287Y214998D01*
Y211666D01*
X350953Y210000D01*
X359284D02*
X362616D01*
X360950D01*
Y219997D01*
X359284D01*
X367614Y210000D02*
X370947D01*
X369281D01*
Y219997D01*
X367614D01*
X380943Y210000D02*
X377611D01*
X375945Y211666D01*
Y214998D01*
X377611Y216665D01*
X380943D01*
X382610Y214998D01*
Y213332D01*
X375945D01*
X385942Y216665D02*
Y210000D01*
Y213332D01*
X387608Y214998D01*
X389274Y216665D01*
X390940D01*
D28*
X180492Y371500D02*
G03*
X180492Y371500I-492J0D01*
G01*
X214823Y292087D02*
G03*
X214823Y292087I-492J0D01*
G01*
Y242087D02*
G03*
X214823Y242087I-492J0D01*
G01*
D29*
X258497Y380300D02*
G03*
X258497Y380300I-197J0D01*
G01*
X350497D02*
G03*
X350497Y380300I-197J0D01*
G01*
X249000Y381000D02*
X259000D01*
Y231000D02*
Y381000D01*
X249000Y231000D02*
X259000D01*
X249000D02*
Y381000D01*
X341000D02*
X351000D01*
Y231000D02*
Y381000D01*
X341000Y231000D02*
X351000D01*
X341000D02*
Y381000D01*
D30*
X297500D02*
G03*
X302500Y381000I2500J0D01*
G01*
X278500Y231000D02*
Y381000D01*
Y231000D02*
X321500D01*
Y381000D01*
X302500D02*
X321500D01*
X278500D02*
X297500D01*
X156000Y294000D02*
Y299998D01*
X158999D01*
X159999Y298998D01*
Y296999D01*
X158999Y295999D01*
X156000D01*
X161998Y298998D02*
X162998Y299998D01*
X164997D01*
X165997Y298998D01*
Y297999D01*
X164997Y296999D01*
X163997D01*
X164997D01*
X165997Y295999D01*
Y295000D01*
X164997Y294000D01*
X162998D01*
X161998Y295000D01*
X188000Y376000D02*
Y381998D01*
X190999D01*
X191999Y380998D01*
Y378999D01*
X190999Y377999D01*
X188000D01*
X197997Y381998D02*
X195997Y380998D01*
X193998Y378999D01*
Y377000D01*
X194998Y376000D01*
X196997D01*
X197997Y377000D01*
Y377999D01*
X196997Y378999D01*
X193998D01*
X386000Y302000D02*
Y307998D01*
X388999D01*
X389999Y306998D01*
Y304999D01*
X388999Y303999D01*
X386000D01*
X387999D02*
X389999Y302000D01*
X391998Y307998D02*
X395997D01*
Y306998D01*
X391998Y303000D01*
Y302000D01*
X362000Y242000D02*
X356002D01*
Y244999D01*
X357002Y245999D01*
X359001D01*
X360001Y244999D01*
Y242000D01*
Y243999D02*
X362000Y245999D01*
Y247998D02*
Y249997D01*
Y248998D01*
X356002D01*
X357002Y247998D01*
X362000Y252996D02*
Y254996D01*
Y253996D01*
X356002D01*
X357002Y252996D01*
X191999Y327000D02*
Y330998D01*
X190999Y331998D01*
X189000D01*
X188000Y330998D01*
Y327000D01*
X189000Y326000D01*
X190999D01*
X189999Y327999D02*
X191999Y326000D01*
X190999D02*
X191999Y327000D01*
X193998Y326000D02*
X195997D01*
X194998D01*
Y331998D01*
X193998Y330998D01*
X226000Y236000D02*
Y241998D01*
X228999D01*
X229999Y240998D01*
Y238999D01*
X228999Y237999D01*
X226000D01*
X227999D02*
X229999Y236000D01*
X231998D02*
X233997D01*
X232998D01*
Y241998D01*
X231998Y240998D01*
X239996Y236000D02*
Y241998D01*
X236996Y238999D01*
X240995D01*
X224000Y308000D02*
Y313998D01*
X226999D01*
X227999Y312998D01*
Y310999D01*
X226999Y309999D01*
X224000D01*
X225999D02*
X227999Y308000D01*
X229998D02*
X231997D01*
X230998D01*
Y313998D01*
X229998Y312998D01*
X234996D02*
X235996Y313998D01*
X237996D01*
X238995Y312998D01*
Y311999D01*
X237996Y310999D01*
X236996D01*
X237996D01*
X238995Y309999D01*
Y309000D01*
X237996Y308000D01*
X235996D01*
X234996Y309000D01*
X232000Y328000D02*
Y333998D01*
X234999D01*
X235999Y332998D01*
Y330999D01*
X234999Y329999D01*
X232000D01*
X233999D02*
X235999Y328000D01*
X241997Y333998D02*
X237998D01*
Y330999D01*
X239997Y331999D01*
X240997D01*
X241997Y330999D01*
Y329000D01*
X240997Y328000D01*
X238998D01*
X237998Y329000D01*
X343999Y388998D02*
X342999Y389998D01*
X341000D01*
X340000Y388998D01*
Y385000D01*
X341000Y384000D01*
X342999D01*
X343999Y385000D01*
X348997Y389998D02*
X346998D01*
X345998Y388998D01*
Y385000D01*
X346998Y384000D01*
X348997D01*
X349997Y385000D01*
Y388998D01*
X348997Y389998D01*
X351996Y384000D02*
Y389998D01*
X355995Y384000D01*
Y389998D01*
X361993Y384000D02*
X357994D01*
X361993Y387999D01*
Y388998D01*
X360993Y389998D01*
X358994D01*
X357994Y388998D01*
X245999D02*
X244999Y389998D01*
X243000D01*
X242000Y388998D01*
Y385000D01*
X243000Y384000D01*
X244999D01*
X245999Y385000D01*
X250997Y389998D02*
X248998D01*
X247998Y388998D01*
Y385000D01*
X248998Y384000D01*
X250997D01*
X251997Y385000D01*
Y388998D01*
X250997Y389998D01*
X253996Y384000D02*
Y389998D01*
X257995Y384000D01*
Y389998D01*
X259994Y384000D02*
X261994D01*
X260994D01*
Y389998D01*
X259994Y388998D01*
X280000Y386000D02*
Y389999D01*
X281999Y391998D01*
X283999Y389999D01*
Y386000D01*
Y388999D01*
X280000D01*
X285998Y386000D02*
Y391998D01*
X288997D01*
X289997Y390998D01*
Y388999D01*
X288997Y387999D01*
X285998D01*
X287997D02*
X289997Y386000D01*
X291996Y391998D02*
Y386000D01*
X294995D01*
X295995Y387000D01*
Y390998D01*
X294995Y391998D01*
X291996D01*
X297994D02*
Y387000D01*
X298994Y386000D01*
X300993D01*
X301993Y387000D01*
Y391998D01*
X303992D02*
X305992D01*
X304992D01*
Y386000D01*
X303992D01*
X305992D01*
X308991D02*
Y391998D01*
X312989Y386000D01*
Y391998D01*
X317988D02*
X315988D01*
X314989Y390998D01*
Y387000D01*
X315988Y386000D01*
X317988D01*
X318987Y387000D01*
Y390998D01*
X317988Y391998D01*
X406900Y384600D02*
Y390598D01*
X409899D01*
X410899Y389598D01*
Y387599D01*
X409899Y386599D01*
X406900D01*
X412898Y384600D02*
X414897D01*
X413898D01*
Y390598D01*
X412898Y389598D01*
X406900Y344600D02*
Y350598D01*
X409899D01*
X410899Y349598D01*
Y347599D01*
X409899Y346599D01*
X406900D01*
X416897Y344600D02*
X412898D01*
X416897Y348599D01*
Y349598D01*
X415897Y350598D01*
X413898D01*
X412898Y349598D01*
X406900Y304600D02*
Y310598D01*
X409899D01*
X410899Y309598D01*
Y307599D01*
X409899Y306599D01*
X406900D01*
X415897Y304600D02*
Y310598D01*
X412898Y307599D01*
X416897D01*
X156900Y278600D02*
Y284598D01*
X159899D01*
X160899Y283598D01*
Y281599D01*
X159899Y280599D01*
X156900D01*
X166897Y284598D02*
X162898D01*
Y281599D01*
X164897Y282599D01*
X165897D01*
X166897Y281599D01*
Y279600D01*
X165897Y278600D01*
X163898D01*
X162898Y279600D01*
X406900Y264600D02*
Y270598D01*
X409899D01*
X410899Y269598D01*
Y267599D01*
X409899Y266599D01*
X406900D01*
X412898Y270598D02*
X416897D01*
Y269598D01*
X412898Y265600D01*
Y264600D01*
X187999Y241000D02*
Y244998D01*
X186999Y245998D01*
X185000D01*
X184000Y244998D01*
Y241000D01*
X185000Y240000D01*
X186999D01*
X185999Y241999D02*
X187999Y240000D01*
X186999D02*
X187999Y241000D01*
X193997Y240000D02*
X189998D01*
X193997Y243999D01*
Y244998D01*
X192997Y245998D01*
X190998D01*
X189998Y244998D01*
X386000Y312000D02*
Y317998D01*
X388999D01*
X389999Y316998D01*
Y314999D01*
X388999Y313999D01*
X386000D01*
X387999D02*
X389999Y312000D01*
X395997D02*
X391998D01*
X395997Y315999D01*
Y316998D01*
X394997Y317998D01*
X392998D01*
X391998Y316998D01*
X362000Y334000D02*
X356002D01*
Y336999D01*
X357002Y337999D01*
X359001D01*
X360001Y336999D01*
Y334000D01*
Y335999D02*
X362000Y337999D01*
X357002Y339998D02*
X356002Y340998D01*
Y342997D01*
X357002Y343997D01*
X358001D01*
X359001Y342997D01*
Y341997D01*
Y342997D01*
X360001Y343997D01*
X361000D01*
X362000Y342997D01*
Y340998D01*
X361000Y339998D01*
X362000Y318000D02*
X356002D01*
Y320999D01*
X357002Y321999D01*
X359001D01*
X360001Y320999D01*
Y318000D01*
Y319999D02*
X362000Y321999D01*
Y326997D02*
X356002D01*
X359001Y323998D01*
Y327997D01*
X225550Y276050D02*
Y282048D01*
X228549D01*
X229549Y281048D01*
Y279049D01*
X228549Y278049D01*
X225550D01*
X227549D02*
X229549Y276050D01*
X235547Y282048D02*
X233547Y281048D01*
X231548Y279049D01*
Y277050D01*
X232548Y276050D01*
X234547D01*
X235547Y277050D01*
Y278049D01*
X234547Y279049D01*
X231548D01*
X386000Y272000D02*
Y277998D01*
X388999D01*
X389999Y276998D01*
Y274999D01*
X388999Y273999D01*
X386000D01*
X387999D02*
X389999Y272000D01*
X391998Y276998D02*
X392998Y277998D01*
X394997D01*
X395997Y276998D01*
Y275999D01*
X394997Y274999D01*
X395997Y273999D01*
Y273000D01*
X394997Y272000D01*
X392998D01*
X391998Y273000D01*
Y273999D01*
X392998Y274999D01*
X391998Y275999D01*
Y276998D01*
X392998Y274999D02*
X394997D01*
X362000Y294000D02*
X356002D01*
Y296999D01*
X357002Y297999D01*
X359001D01*
X360001Y296999D01*
Y294000D01*
Y295999D02*
X362000Y297999D01*
X361000Y299998D02*
X362000Y300998D01*
Y302997D01*
X361000Y303997D01*
X357002D01*
X356002Y302997D01*
Y300998D01*
X357002Y299998D01*
X358001D01*
X359001Y300998D01*
Y303997D01*
X362000Y272000D02*
X356002D01*
Y274999D01*
X357002Y275999D01*
X359001D01*
X360001Y274999D01*
Y272000D01*
Y273999D02*
X362000Y275999D01*
Y277998D02*
Y279997D01*
Y278998D01*
X356002D01*
X357002Y277998D01*
Y282996D02*
X356002Y283996D01*
Y285996D01*
X357002Y286995D01*
X361000D01*
X362000Y285996D01*
Y283996D01*
X361000Y282996D01*
X357002D01*
X386000Y342000D02*
Y347998D01*
X388999D01*
X389999Y346998D01*
Y344999D01*
X388999Y343999D01*
X386000D01*
X387999D02*
X389999Y342000D01*
X391998D02*
X393997D01*
X392998D01*
Y347998D01*
X391998Y346998D01*
X386400Y249000D02*
Y254998D01*
X389399D01*
X390399Y253998D01*
Y251999D01*
X389399Y250999D01*
X386400D01*
X388399D02*
X390399Y249000D01*
X392398D02*
X394397D01*
X393398D01*
Y254998D01*
X392398Y253998D01*
X401395Y249000D02*
X397396D01*
X401395Y252999D01*
Y253998D01*
X400395Y254998D01*
X398396D01*
X397396Y253998D01*
D31*
X183000Y303500D02*
Y324500D01*
X157000Y303500D02*
Y324500D01*
Y303500D02*
X183000D01*
X157000Y324500D02*
X183000D01*
Y333500D02*
Y374500D01*
X157000Y333500D02*
Y374500D01*
Y333500D02*
X183000D01*
X157000Y374500D02*
X183000D01*
X198779Y289528D02*
Y330472D01*
X216890D01*
Y289528D02*
Y330472D01*
X198779Y289528D02*
X216890D01*
X200748Y289528D02*
Y330472D01*
X407000Y239500D02*
Y260500D01*
X433000Y239500D02*
Y260500D01*
X407000D02*
X433000D01*
X407000Y239500D02*
X433000D01*
X183000Y253500D02*
Y274500D01*
X157000Y253500D02*
Y274500D01*
Y253500D02*
X183000D01*
X157000Y274500D02*
X183000D01*
X407000Y279500D02*
Y300500D01*
X433000Y279500D02*
Y300500D01*
X407000D02*
X433000D01*
X407000Y279500D02*
X433000D01*
X407000Y319500D02*
Y340500D01*
X433000Y319500D02*
Y340500D01*
X407000D02*
X433000D01*
X407000Y319500D02*
X433000D01*
X407000Y359500D02*
Y380500D01*
X433000Y359500D02*
Y380500D01*
X407000D02*
X433000D01*
X407000Y359500D02*
X433000D01*
X389803Y242425D02*
X390197D01*
X389803Y245575D02*
X390197D01*
X198779Y239528D02*
Y280472D01*
X216890D01*
Y239528D02*
Y280472D01*
X198779Y239528D02*
X216890D01*
X200748Y239528D02*
Y280472D01*
D32*
X230000Y250000D02*
D03*
Y300000D02*
D03*
M02*
