G04 Layer_Color=20142*
%FSLAX25Y25*%
%MOIN*%
G70*
G01*
G75*
%ADD33R,0.04540X0.04934*%
%ADD34R,0.04343X0.04737*%
%ADD35R,0.05200X0.04800*%
%ADD36R,0.03800X0.03800*%
%ADD37R,0.04540X0.04737*%
%ADD38R,0.04343X0.04934*%
%ADD39C,0.15800*%
%ADD40R,0.07099X0.07099*%
%ADD41C,0.07099*%
%ADD42R,0.07493X0.07493*%
%ADD43C,0.07493*%
%ADD44R,0.07800X0.07800*%
%ADD45C,0.07800*%
%ADD46O,0.07800X0.05800*%
%ADD47R,0.07800X0.05800*%
%ADD48C,0.05800*%
D33*
X392756Y296000D02*
D03*
X387244D02*
D03*
D34*
X372559Y244000D02*
D03*
X367441D02*
D03*
X232559Y320000D02*
D03*
X227441D02*
D03*
X232559Y270000D02*
D03*
X227441D02*
D03*
X372559Y284000D02*
D03*
X367441D02*
D03*
X372559Y296000D02*
D03*
X367441D02*
D03*
X372559Y336000D02*
D03*
X367441D02*
D03*
X372559Y324000D02*
D03*
X367441D02*
D03*
X392559Y284000D02*
D03*
X387441D02*
D03*
D35*
X233347Y250000D02*
D03*
X226600D02*
D03*
X233347Y300000D02*
D03*
X226600D02*
D03*
D36*
X387250Y244000D02*
D03*
X392750D02*
D03*
D37*
X386850Y336000D02*
D03*
X393150D02*
D03*
D38*
X392657Y324000D02*
D03*
X387343D02*
D03*
D39*
X420000Y220000D02*
D03*
X170000D02*
D03*
X420000Y400000D02*
D03*
X170000D02*
D03*
D40*
Y319000D02*
D03*
Y369000D02*
D03*
X420000Y245000D02*
D03*
X170000Y269000D02*
D03*
X420000Y285000D02*
D03*
Y325000D02*
D03*
Y365000D02*
D03*
D41*
X170000Y309000D02*
D03*
Y339000D02*
D03*
Y349000D02*
D03*
Y359000D02*
D03*
X420000Y255000D02*
D03*
X170000Y259000D02*
D03*
X420000Y295000D02*
D03*
Y335000D02*
D03*
Y375000D02*
D03*
D42*
X210000Y300000D02*
D03*
Y250000D02*
D03*
D43*
Y310000D02*
D03*
Y320000D02*
D03*
Y260000D02*
D03*
Y270000D02*
D03*
D44*
X254000Y376000D02*
D03*
X346000D02*
D03*
D45*
X254000Y366000D02*
D03*
Y356000D02*
D03*
Y346000D02*
D03*
Y336000D02*
D03*
Y326000D02*
D03*
Y316000D02*
D03*
Y306000D02*
D03*
Y296000D02*
D03*
Y286000D02*
D03*
Y276000D02*
D03*
Y266000D02*
D03*
Y256000D02*
D03*
Y246000D02*
D03*
Y236000D02*
D03*
X346000Y366000D02*
D03*
Y356000D02*
D03*
Y346000D02*
D03*
Y336000D02*
D03*
Y326000D02*
D03*
Y316000D02*
D03*
Y306000D02*
D03*
Y296000D02*
D03*
Y286000D02*
D03*
Y276000D02*
D03*
Y266000D02*
D03*
Y256000D02*
D03*
Y246000D02*
D03*
Y236000D02*
D03*
D46*
X330000D02*
D03*
Y246000D02*
D03*
Y256000D02*
D03*
Y266000D02*
D03*
Y276000D02*
D03*
Y286000D02*
D03*
Y296000D02*
D03*
Y306000D02*
D03*
Y316000D02*
D03*
Y326000D02*
D03*
Y336000D02*
D03*
Y346000D02*
D03*
Y356000D02*
D03*
Y366000D02*
D03*
Y376000D02*
D03*
X270000Y236000D02*
D03*
Y246000D02*
D03*
Y256000D02*
D03*
Y266000D02*
D03*
Y276000D02*
D03*
Y286000D02*
D03*
Y296000D02*
D03*
Y306000D02*
D03*
Y316000D02*
D03*
Y326000D02*
D03*
Y336000D02*
D03*
Y346000D02*
D03*
Y356000D02*
D03*
Y366000D02*
D03*
D47*
Y376000D02*
D03*
D48*
X380000Y252000D02*
D03*
Y276000D02*
D03*
Y304000D02*
D03*
Y316000D02*
D03*
X230000Y290000D02*
D03*
X380000Y344000D02*
D03*
M02*
