G04 Layer_Physical_Order=2*
G04 Layer_Color=11436288*
%FSLAX25Y25*%
%MOIN*%
G70*
G01*
G75*
%ADD16C,0.02000*%
%ADD18C,0.15000*%
%ADD19R,0.06299X0.06299*%
%ADD20C,0.06299*%
%ADD21R,0.06693X0.06693*%
%ADD22C,0.06693*%
%ADD23R,0.07000X0.07000*%
%ADD24C,0.07000*%
%ADD25O,0.07000X0.05000*%
%ADD26R,0.07000X0.05000*%
%ADD27C,0.05000*%
D16*
X236000Y374000D02*
Y386000D01*
X232000Y370000D02*
X236000Y374000D01*
X170000Y370000D02*
X232000D01*
X240000Y352000D02*
Y384000D01*
X236000Y348000D02*
X240000Y352000D01*
X170000Y348000D02*
X236000D01*
X244000Y342000D02*
Y382000D01*
X240000Y338000D02*
X244000Y342000D01*
X170000Y338000D02*
X240000D01*
X372000Y260000D02*
X380000Y252000D01*
X358000Y260000D02*
X372000D01*
X352000Y266000D02*
X358000Y260000D01*
X346000Y266000D02*
X352000D01*
X407000Y268000D02*
X420000Y255000D01*
X360000Y268000D02*
X407000D01*
X352000Y276000D02*
X360000Y268000D01*
X346000Y276000D02*
X352000D01*
X346000Y286000D02*
X352000D01*
X362000Y276000D01*
X380000D01*
X346000Y296000D02*
X352000D01*
X360000Y304000D01*
X380000D01*
X318000Y316000D02*
X330000D01*
X314000Y320000D02*
Y384000D01*
Y320000D02*
X318000Y316000D01*
X308000Y390000D02*
X314000Y384000D01*
X240000D02*
X246000Y390000D01*
X308000D01*
X346000Y326000D02*
X352000D01*
X362000Y316000D01*
X380000D01*
X244000Y382000D02*
X248000Y386000D01*
X306000D01*
X310000Y382000D01*
Y310000D02*
Y382000D01*
Y310000D02*
X314000Y306000D01*
X330000D01*
X236000Y386000D02*
X244000Y394000D01*
X310000D01*
X318000Y386000D01*
Y350000D02*
Y386000D01*
Y350000D02*
X322000Y346000D01*
X330000D01*
X214000Y290000D02*
X230000D01*
X210000Y294000D02*
X214000Y290000D01*
X210000Y294000D02*
Y300000D01*
X360000Y344000D02*
X380000D01*
X352000Y336000D02*
X360000Y344000D01*
X346000Y336000D02*
X352000D01*
D18*
X420000Y220000D02*
D03*
X170000D02*
D03*
X420000Y400000D02*
D03*
X170000D02*
D03*
D19*
Y319000D02*
D03*
Y369000D02*
D03*
X420000Y245000D02*
D03*
X170000Y269000D02*
D03*
X420000Y285000D02*
D03*
Y325000D02*
D03*
Y365000D02*
D03*
D20*
X170000Y309000D02*
D03*
Y339000D02*
D03*
Y349000D02*
D03*
Y359000D02*
D03*
X420000Y255000D02*
D03*
X170000Y259000D02*
D03*
X420000Y295000D02*
D03*
Y335000D02*
D03*
Y375000D02*
D03*
D21*
X210000Y300000D02*
D03*
Y250000D02*
D03*
D22*
Y310000D02*
D03*
Y320000D02*
D03*
Y260000D02*
D03*
Y270000D02*
D03*
D23*
X254000Y376000D02*
D03*
X346000D02*
D03*
D24*
X254000Y366000D02*
D03*
Y356000D02*
D03*
Y346000D02*
D03*
Y336000D02*
D03*
Y326000D02*
D03*
Y316000D02*
D03*
Y306000D02*
D03*
Y296000D02*
D03*
Y286000D02*
D03*
Y276000D02*
D03*
Y266000D02*
D03*
Y256000D02*
D03*
Y246000D02*
D03*
Y236000D02*
D03*
X346000Y366000D02*
D03*
Y356000D02*
D03*
Y346000D02*
D03*
Y336000D02*
D03*
Y326000D02*
D03*
Y316000D02*
D03*
Y306000D02*
D03*
Y296000D02*
D03*
Y286000D02*
D03*
Y276000D02*
D03*
Y266000D02*
D03*
Y256000D02*
D03*
Y246000D02*
D03*
Y236000D02*
D03*
D25*
X330000D02*
D03*
Y246000D02*
D03*
Y256000D02*
D03*
Y266000D02*
D03*
Y276000D02*
D03*
Y286000D02*
D03*
Y296000D02*
D03*
Y306000D02*
D03*
Y316000D02*
D03*
Y326000D02*
D03*
Y336000D02*
D03*
Y346000D02*
D03*
Y356000D02*
D03*
Y366000D02*
D03*
Y376000D02*
D03*
X270000Y236000D02*
D03*
Y246000D02*
D03*
Y256000D02*
D03*
Y266000D02*
D03*
Y276000D02*
D03*
Y286000D02*
D03*
Y296000D02*
D03*
Y306000D02*
D03*
Y316000D02*
D03*
Y326000D02*
D03*
Y336000D02*
D03*
Y346000D02*
D03*
Y356000D02*
D03*
Y366000D02*
D03*
D26*
Y376000D02*
D03*
D27*
X380000Y252000D02*
D03*
Y276000D02*
D03*
Y304000D02*
D03*
Y316000D02*
D03*
X230000Y290000D02*
D03*
X380000Y344000D02*
D03*
M02*
