G04 Layer_Color=15132400*
%FSLAX25Y25*%
%MOIN*%
G70*
G01*
G75*
%ADD17C,0.02000*%
%ADD33C,0.01000*%
%ADD34C,0.00787*%
%ADD35C,0.00984*%
%ADD36C,0.02362*%
%ADD37C,0.00394*%
%ADD38R,0.01800X0.03000*%
D17*
X180665Y408331D02*
X178998Y409997D01*
X175666D01*
X174000Y408331D01*
Y401666D01*
X175666Y400000D01*
X178998D01*
X180665Y401666D01*
X185663Y400000D02*
X188995D01*
X190661Y401666D01*
Y404998D01*
X188995Y406665D01*
X185663D01*
X183997Y404998D01*
Y401666D01*
X185663Y400000D01*
X193993D02*
Y406665D01*
X198992D01*
X200658Y404998D01*
Y400000D01*
X205656Y408331D02*
Y406665D01*
X203990D01*
X207323D01*
X205656D01*
Y401666D01*
X207323Y400000D01*
X212321Y406665D02*
Y400000D01*
Y403332D01*
X213987Y404998D01*
X215653Y406665D01*
X217319D01*
X223984Y400000D02*
X227316D01*
X228982Y401666D01*
Y404998D01*
X227316Y406665D01*
X223984D01*
X222318Y404998D01*
Y401666D01*
X223984Y400000D01*
X232314D02*
X235647D01*
X233981D01*
Y409997D01*
X232314D01*
X240645Y400000D02*
X243977D01*
X242311D01*
Y409997D01*
X240645D01*
X253974Y400000D02*
X250642D01*
X248976Y401666D01*
Y404998D01*
X250642Y406665D01*
X253974D01*
X255640Y404998D01*
Y403332D01*
X248976D01*
X258973Y406665D02*
Y400000D01*
Y403332D01*
X260639Y404998D01*
X262305Y406665D01*
X263971D01*
X190665Y426331D02*
X188998Y427997D01*
X185666D01*
X184000Y426331D01*
Y424664D01*
X185666Y422998D01*
X188998D01*
X190665Y421332D01*
Y419666D01*
X188998Y418000D01*
X185666D01*
X184000Y419666D01*
X195663Y418000D02*
X198995D01*
X200661Y419666D01*
Y422998D01*
X198995Y424664D01*
X195663D01*
X193997Y422998D01*
Y419666D01*
X195663Y418000D01*
X203994D02*
X207326D01*
X205660D01*
Y427997D01*
X203994D01*
X213990Y424664D02*
X217323D01*
X218989Y422998D01*
Y418000D01*
X213990D01*
X212324Y419666D01*
X213990Y421332D01*
X218989D01*
X222321Y424664D02*
Y418000D01*
Y421332D01*
X223987Y422998D01*
X225653Y424664D01*
X227319D01*
X232318Y427997D02*
Y418000D01*
X235650Y421332D01*
X238982Y418000D01*
Y427997D01*
X243981Y424664D02*
X247313D01*
X248979Y422998D01*
Y418000D01*
X243981D01*
X242315Y419666D01*
X243981Y421332D01*
X248979D01*
X252311Y418000D02*
X255644D01*
X253977D01*
Y427997D01*
X252311D01*
X260642Y418000D02*
X263974D01*
X262308D01*
Y427997D01*
X260642D01*
D33*
X307712Y415553D02*
G03*
X314261Y419261I3788J947D01*
G01*
X297500Y381000D02*
G03*
X302500Y381000I2500J0D01*
G01*
X280500Y409500D02*
Y428000D01*
Y409500D02*
X319500D01*
Y430500D01*
X285500Y429000D02*
X314500D01*
X280500Y428000D02*
Y430500D01*
X284500Y429000D02*
X285500D01*
X284500D02*
Y430500D01*
X280500D02*
X284500D01*
X314500Y429000D02*
X315500D01*
Y430500D01*
X319500D01*
X278500Y231000D02*
Y381000D01*
Y231000D02*
X321500D01*
Y381000D01*
X302500D02*
X321500D01*
X278500D02*
X297500D01*
X396000Y391998D02*
Y387999D01*
X397999Y386000D01*
X399999Y387999D01*
Y391998D01*
X401998D02*
X403997D01*
X402998D01*
Y386000D01*
X401998D01*
X403997D01*
X406996D02*
Y391998D01*
X410995Y386000D01*
Y391998D01*
X422991Y390998D02*
X421992Y391998D01*
X419992D01*
X418993Y390998D01*
Y387000D01*
X419992Y386000D01*
X421992D01*
X422991Y387000D01*
Y388999D01*
X420992D01*
X424991Y386000D02*
Y391998D01*
X428989Y386000D01*
Y391998D01*
X430989D02*
Y386000D01*
X433988D01*
X434987Y387000D01*
Y390998D01*
X433988Y391998D01*
X430989D01*
X280500Y438498D02*
X284499Y434500D01*
X280500D02*
X284499Y438498D01*
X280500Y436499D02*
X284499D01*
X282499Y434500D02*
Y438498D01*
X349900Y445398D02*
X353899Y441400D01*
X349900D02*
X353899Y445398D01*
X349900Y443399D02*
X353899D01*
X351899Y441400D02*
Y445398D01*
X332000Y428300D02*
Y434298D01*
X334999D01*
X335999Y433298D01*
Y431299D01*
X334999Y430299D01*
X332000D01*
X333999D02*
X335999Y428300D01*
X337998D02*
X339997D01*
X338998D01*
Y434298D01*
X337998Y433298D01*
X346995Y434298D02*
X342996D01*
Y431299D01*
X344996Y432299D01*
X345995D01*
X346995Y431299D01*
Y429300D01*
X345995Y428300D01*
X343996D01*
X342996Y429300D01*
X410899Y429598D02*
X409899Y430598D01*
X407900D01*
X406900Y429598D01*
Y428599D01*
X407900Y427599D01*
X409899D01*
X410899Y426599D01*
Y425600D01*
X409899Y424600D01*
X407900D01*
X406900Y425600D01*
X412898Y430598D02*
Y424600D01*
Y427599D01*
X416897D01*
Y430598D01*
Y424600D01*
X418896Y430598D02*
Y425600D01*
X419896Y424600D01*
X421895D01*
X422895Y425600D01*
Y430598D01*
X424894Y424600D02*
Y430598D01*
X428893Y424600D01*
Y430598D01*
X430892D02*
X434891D01*
X432892D01*
Y424600D01*
X156000Y294000D02*
Y299998D01*
X158999D01*
X159999Y298998D01*
Y296999D01*
X158999Y295999D01*
X156000D01*
X162998Y297999D02*
X164997D01*
X165997Y296999D01*
Y294000D01*
X162998D01*
X161998Y295000D01*
X162998Y295999D01*
X165997D01*
X167996Y294000D02*
Y297999D01*
X170995D01*
X171995Y296999D01*
Y294000D01*
X176993D02*
X174994D01*
X173994Y295000D01*
Y296999D01*
X174994Y297999D01*
X176993D01*
X177993Y296999D01*
Y295999D01*
X173994D01*
X179992Y294000D02*
X181992D01*
X180992D01*
Y299998D01*
X179992D01*
X156002Y332000D02*
Y335999D01*
Y333999D01*
X162000D01*
X156002Y337998D02*
X162000Y341997D01*
X156002D02*
X162000Y337998D01*
Y349994D02*
X156002D01*
Y352993D01*
X157002Y353993D01*
X159001D01*
X160001Y352993D01*
Y349994D01*
Y351993D02*
X162000Y353993D01*
X156002Y355992D02*
X162000Y359991D01*
X156002D02*
X162000Y355992D01*
X157002Y367988D02*
X156002Y368988D01*
Y370987D01*
X157002Y371987D01*
X161000D01*
X162000Y370987D01*
Y368988D01*
X161000Y367988D01*
X157002D01*
X156002Y383983D02*
Y379984D01*
X159001D01*
X158001Y381984D01*
Y382983D01*
X159001Y383983D01*
X161000D01*
X162000Y382983D01*
Y380984D01*
X161000Y379984D01*
X386000Y302000D02*
Y307998D01*
X388999D01*
X389999Y306998D01*
Y304999D01*
X388999Y303999D01*
X386000D01*
X387999D02*
X389999Y302000D01*
X391998Y307998D02*
X395997D01*
Y306998D01*
X391998Y303000D01*
Y302000D01*
X362000Y242000D02*
X356002D01*
Y244999D01*
X357002Y245999D01*
X359001D01*
X360001Y244999D01*
Y242000D01*
Y243999D02*
X362000Y245999D01*
Y247998D02*
Y249997D01*
Y248998D01*
X356002D01*
X357002Y247998D01*
X362000Y252996D02*
Y254996D01*
Y253996D01*
X356002D01*
X357002Y252996D01*
X209999Y335000D02*
Y338998D01*
X208999Y339998D01*
X207000D01*
X206000Y338998D01*
Y335000D01*
X207000Y334000D01*
X208999D01*
X207999Y335999D02*
X209999Y334000D01*
X208999D02*
X209999Y335000D01*
X211998Y334000D02*
X213997D01*
X212998D01*
Y339998D01*
X211998Y338998D01*
X226000Y236000D02*
Y241998D01*
X228999D01*
X229999Y240998D01*
Y238999D01*
X228999Y237999D01*
X226000D01*
X227999D02*
X229999Y236000D01*
X231998D02*
X233997D01*
X232998D01*
Y241998D01*
X231998Y240998D01*
X239996Y236000D02*
Y241998D01*
X236996Y238999D01*
X240995D01*
X224000Y308000D02*
Y313998D01*
X226999D01*
X227999Y312998D01*
Y310999D01*
X226999Y309999D01*
X224000D01*
X225999D02*
X227999Y308000D01*
X229998D02*
X231997D01*
X230998D01*
Y313998D01*
X229998Y312998D01*
X234996D02*
X235996Y313998D01*
X237996D01*
X238995Y312998D01*
Y311999D01*
X237996Y310999D01*
X236996D01*
X237996D01*
X238995Y309999D01*
Y309000D01*
X237996Y308000D01*
X235996D01*
X234996Y309000D01*
X232000Y328000D02*
Y333998D01*
X234999D01*
X235999Y332998D01*
Y330999D01*
X234999Y329999D01*
X232000D01*
X233999D02*
X235999Y328000D01*
X241997Y333998D02*
X237998D01*
Y330999D01*
X239997Y331999D01*
X240997D01*
X241997Y330999D01*
Y329000D01*
X240997Y328000D01*
X238998D01*
X237998Y329000D01*
X343999Y388998D02*
X342999Y389998D01*
X341000D01*
X340000Y388998D01*
Y385000D01*
X341000Y384000D01*
X342999D01*
X343999Y385000D01*
X348997Y389998D02*
X346998D01*
X345998Y388998D01*
Y385000D01*
X346998Y384000D01*
X348997D01*
X349997Y385000D01*
Y388998D01*
X348997Y389998D01*
X351996Y384000D02*
Y389998D01*
X355995Y384000D01*
Y389998D01*
X361993Y384000D02*
X357994D01*
X361993Y387999D01*
Y388998D01*
X360993Y389998D01*
X358994D01*
X357994Y388998D01*
X245999D02*
X244999Y389998D01*
X243000D01*
X242000Y388998D01*
Y385000D01*
X243000Y384000D01*
X244999D01*
X245999Y385000D01*
X250997Y389998D02*
X248998D01*
X247998Y388998D01*
Y385000D01*
X248998Y384000D01*
X250997D01*
X251997Y385000D01*
Y388998D01*
X250997Y389998D01*
X253996Y384000D02*
Y389998D01*
X257995Y384000D01*
Y389998D01*
X259994Y384000D02*
X261994D01*
X260994D01*
Y389998D01*
X259994Y388998D01*
X280000Y386000D02*
Y389999D01*
X281999Y391998D01*
X283999Y389999D01*
Y386000D01*
Y388999D01*
X280000D01*
X285998Y386000D02*
Y391998D01*
X288997D01*
X289997Y390998D01*
Y388999D01*
X288997Y387999D01*
X285998D01*
X287997D02*
X289997Y386000D01*
X291996Y391998D02*
Y386000D01*
X294995D01*
X295995Y387000D01*
Y390998D01*
X294995Y391998D01*
X291996D01*
X297994D02*
Y387000D01*
X298994Y386000D01*
X300993D01*
X301993Y387000D01*
Y391998D01*
X303992D02*
X305992D01*
X304992D01*
Y386000D01*
X303992D01*
X305992D01*
X308991D02*
Y391998D01*
X312989Y386000D01*
Y391998D01*
X317988D02*
X315988D01*
X314989Y390998D01*
Y387000D01*
X315988Y386000D01*
X317988D01*
X318987Y387000D01*
Y390998D01*
X317988Y391998D01*
X406900Y350598D02*
Y344600D01*
X409899D01*
X410899Y345600D01*
Y346599D01*
X409899Y347599D01*
X406900D01*
X409899D01*
X410899Y348599D01*
Y349598D01*
X409899Y350598D01*
X406900D01*
X412898Y347599D02*
X416897D01*
X414897Y349598D02*
Y345600D01*
X424894Y350598D02*
Y344600D01*
X427893D01*
X428893Y345600D01*
Y346599D01*
X427893Y347599D01*
X424894D01*
X427893D01*
X428893Y348599D01*
Y349598D01*
X427893Y350598D01*
X424894D01*
X433891Y344600D02*
Y350598D01*
X430892Y347599D01*
X434891D01*
X406900Y310598D02*
Y304600D01*
X409899D01*
X410899Y305600D01*
Y306599D01*
X409899Y307599D01*
X406900D01*
X409899D01*
X410899Y308599D01*
Y309598D01*
X409899Y310598D01*
X406900D01*
X412898Y309598D02*
X413898Y310598D01*
X415897D01*
X416897Y309598D01*
Y308599D01*
X415897Y307599D01*
X414897D01*
X415897D01*
X416897Y306599D01*
Y305600D01*
X415897Y304600D01*
X413898D01*
X412898Y305600D01*
X424894Y310598D02*
Y304600D01*
X427893D01*
X428893Y305600D01*
Y306599D01*
X427893Y307599D01*
X424894D01*
X427893D01*
X428893Y308599D01*
Y309598D01*
X427893Y310598D01*
X424894D01*
X434891Y304600D02*
X430892D01*
X434891Y308599D01*
Y309598D01*
X433891Y310598D01*
X431892D01*
X430892Y309598D01*
X156900Y278600D02*
Y284598D01*
X159899D01*
X160899Y283598D01*
Y281599D01*
X159899Y280599D01*
X156900D01*
X163898Y282599D02*
X165897D01*
X166897Y281599D01*
Y278600D01*
X163898D01*
X162898Y279600D01*
X163898Y280599D01*
X166897D01*
X172895Y282599D02*
X169896D01*
X168896Y281599D01*
Y279600D01*
X169896Y278600D01*
X172895D01*
X174894D02*
Y284598D01*
Y280599D02*
X177893Y282599D01*
X174894Y280599D02*
X177893Y278600D01*
X406900Y272598D02*
Y266600D01*
X409899D01*
X410899Y267600D01*
Y268599D01*
X409899Y269599D01*
X406900D01*
X409899D01*
X410899Y270599D01*
Y271598D01*
X409899Y272598D01*
X406900D01*
X412898Y266600D02*
X414897D01*
X413898D01*
Y272598D01*
X412898Y271598D01*
X423895Y272598D02*
Y268599D01*
X425894Y266600D01*
X427893Y268599D01*
Y272598D01*
X429893Y264601D02*
Y270599D01*
X432892D01*
X433891Y269599D01*
Y267600D01*
X432892Y266600D01*
X429893D01*
X187999Y241000D02*
Y244998D01*
X186999Y245998D01*
X185000D01*
X184000Y244998D01*
Y241000D01*
X185000Y240000D01*
X186999D01*
X185999Y241999D02*
X187999Y240000D01*
X186999D02*
X187999Y241000D01*
X193997Y240000D02*
X189998D01*
X193997Y243999D01*
Y244998D01*
X192997Y245998D01*
X190998D01*
X189998Y244998D01*
X386000Y312000D02*
Y317998D01*
X388999D01*
X389999Y316998D01*
Y314999D01*
X388999Y313999D01*
X386000D01*
X387999D02*
X389999Y312000D01*
X395997D02*
X391998D01*
X395997Y315999D01*
Y316998D01*
X394997Y317998D01*
X392998D01*
X391998Y316998D01*
X362000Y334000D02*
X356002D01*
Y336999D01*
X357002Y337999D01*
X359001D01*
X360001Y336999D01*
Y334000D01*
Y335999D02*
X362000Y337999D01*
X357002Y339998D02*
X356002Y340998D01*
Y342997D01*
X357002Y343997D01*
X358001D01*
X359001Y342997D01*
Y341997D01*
Y342997D01*
X360001Y343997D01*
X361000D01*
X362000Y342997D01*
Y340998D01*
X361000Y339998D01*
X362000Y318000D02*
X356002D01*
Y320999D01*
X357002Y321999D01*
X359001D01*
X360001Y320999D01*
Y318000D01*
Y319999D02*
X362000Y321999D01*
Y326997D02*
X356002D01*
X359001Y323998D01*
Y327997D01*
X225550Y276050D02*
Y282048D01*
X228549D01*
X229549Y281048D01*
Y279049D01*
X228549Y278049D01*
X225550D01*
X227549D02*
X229549Y276050D01*
X235547Y282048D02*
X233547Y281048D01*
X231548Y279049D01*
Y277050D01*
X232548Y276050D01*
X234547D01*
X235547Y277050D01*
Y278049D01*
X234547Y279049D01*
X231548D01*
X386000Y272000D02*
Y277998D01*
X388999D01*
X389999Y276998D01*
Y274999D01*
X388999Y273999D01*
X386000D01*
X387999D02*
X389999Y272000D01*
X391998Y276998D02*
X392998Y277998D01*
X394997D01*
X395997Y276998D01*
Y275999D01*
X394997Y274999D01*
X395997Y273999D01*
Y273000D01*
X394997Y272000D01*
X392998D01*
X391998Y273000D01*
Y273999D01*
X392998Y274999D01*
X391998Y275999D01*
Y276998D01*
X392998Y274999D02*
X394997D01*
X362000Y294000D02*
X356002D01*
Y296999D01*
X357002Y297999D01*
X359001D01*
X360001Y296999D01*
Y294000D01*
Y295999D02*
X362000Y297999D01*
X361000Y299998D02*
X362000Y300998D01*
Y302997D01*
X361000Y303997D01*
X357002D01*
X356002Y302997D01*
Y300998D01*
X357002Y299998D01*
X358001D01*
X359001Y300998D01*
Y303997D01*
X362000Y272000D02*
X356002D01*
Y274999D01*
X357002Y275999D01*
X359001D01*
X360001Y274999D01*
Y272000D01*
Y273999D02*
X362000Y275999D01*
Y277998D02*
Y279997D01*
Y278998D01*
X356002D01*
X357002Y277998D01*
Y282996D02*
X356002Y283996D01*
Y285996D01*
X357002Y286995D01*
X361000D01*
X362000Y285996D01*
Y283996D01*
X361000Y282996D01*
X357002D01*
X386000Y342000D02*
Y347998D01*
X388999D01*
X389999Y346998D01*
Y344999D01*
X388999Y343999D01*
X386000D01*
X387999D02*
X389999Y342000D01*
X391998D02*
X393997D01*
X392998D01*
Y347998D01*
X391998Y346998D01*
X386400Y249000D02*
Y254998D01*
X389399D01*
X390399Y253998D01*
Y251999D01*
X389399Y250999D01*
X386400D01*
X388399D02*
X390399Y249000D01*
X392398D02*
X394397D01*
X393398D01*
Y254998D01*
X392398Y253998D01*
X401395Y249000D02*
X397396D01*
X401395Y252999D01*
Y253998D01*
X400395Y254998D01*
X398396D01*
X397396Y253998D01*
D34*
X349724Y417500D02*
G03*
X349724Y422500I0J2500D01*
G01*
X407000Y359500D02*
Y380500D01*
X433000Y359500D02*
Y380500D01*
X407000D02*
X433000D01*
X407000Y359500D02*
X433000D01*
X349724Y409567D02*
X390276D01*
X349724Y430433D02*
X390276D01*
X349724Y409567D02*
Y417500D01*
Y422500D02*
Y430433D01*
X390276Y409567D02*
Y430433D01*
X407000Y420500D02*
X433000D01*
X407000Y399500D02*
X433000D01*
X407000D02*
Y420500D01*
X433000Y399500D02*
Y420500D01*
X183000Y303500D02*
Y324500D01*
X157000Y303500D02*
Y324500D01*
Y303500D02*
X183000D01*
X157000Y324500D02*
X183000D01*
X193000Y333500D02*
Y374500D01*
X167000Y333500D02*
Y374500D01*
Y333500D02*
X193000D01*
X167000Y374500D02*
X193000D01*
X198779Y289528D02*
Y330472D01*
X216890D01*
Y289528D02*
Y330472D01*
X198779Y289528D02*
X216890D01*
X200748Y289528D02*
Y330472D01*
X407000Y239500D02*
Y260500D01*
X433000Y239500D02*
Y260500D01*
X407000D02*
X433000D01*
X407000Y239500D02*
X433000D01*
X183000Y253500D02*
Y274500D01*
X157000Y253500D02*
Y274500D01*
Y253500D02*
X183000D01*
X157000Y274500D02*
X183000D01*
X407000Y279500D02*
Y300500D01*
X433000Y279500D02*
Y300500D01*
X407000D02*
X433000D01*
X407000Y279500D02*
X433000D01*
X407000Y319500D02*
Y340500D01*
X433000Y319500D02*
Y340500D01*
X407000D02*
X433000D01*
X407000Y319500D02*
X433000D01*
X389803Y242425D02*
X390197D01*
X389803Y245575D02*
X390197D01*
X198779Y239528D02*
Y280472D01*
X216890D01*
Y239528D02*
Y280472D01*
X198779Y239528D02*
X216890D01*
X200748Y239528D02*
Y280472D01*
D35*
X350374Y405000D02*
G03*
X350374Y405000I-492J0D01*
G01*
X190492Y371500D02*
G03*
X190492Y371500I-492J0D01*
G01*
X214823Y292087D02*
G03*
X214823Y292087I-492J0D01*
G01*
Y242087D02*
G03*
X214823Y242087I-492J0D01*
G01*
D36*
X354842Y413504D02*
G03*
X354842Y413504I-1181J0D01*
G01*
D37*
X258497Y380300D02*
G03*
X258497Y380300I-197J0D01*
G01*
X350497D02*
G03*
X350497Y380300I-197J0D01*
G01*
X336756Y414882D02*
Y425118D01*
X331244Y414882D02*
X336756D01*
X331244D02*
Y425118D01*
X336756D01*
X249000Y381000D02*
X259000D01*
Y231000D02*
Y381000D01*
X249000Y231000D02*
X259000D01*
X249000D02*
Y381000D01*
X341000D02*
X351000D01*
Y231000D02*
Y381000D01*
X341000Y231000D02*
X351000D01*
X341000D02*
Y381000D01*
D38*
X230000Y250000D02*
D03*
Y300000D02*
D03*
M02*
