G04 Layer_Physical_Order=1*
G04 Layer_Color=25308*
%FSLAX25Y25*%
%MOIN*%
G70*
G01*
G75*
G04:AMPARAMS|DCode=10|XSize=39.37mil|YSize=23.62mil|CornerRadius=2.36mil|HoleSize=0mil|Usage=FLASHONLY|Rotation=0.000|XOffset=0mil|YOffset=0mil|HoleType=Round|Shape=RoundedRectangle|*
%AMROUNDEDRECTD10*
21,1,0.03937,0.01890,0,0,0.0*
21,1,0.03465,0.02362,0,0,0.0*
1,1,0.00472,0.01732,-0.00945*
1,1,0.00472,-0.01732,-0.00945*
1,1,0.00472,-0.01732,0.00945*
1,1,0.00472,0.01732,0.00945*
%
%ADD10ROUNDEDRECTD10*%
%ADD11R,0.03740X0.04134*%
%ADD12R,0.03543X0.03937*%
%ADD13R,0.04400X0.04000*%
%ADD14R,0.03000X0.03000*%
%ADD15R,0.03740X0.03937*%
%ADD16R,0.03543X0.04134*%
%ADD17C,0.02000*%
%ADD18C,0.06000*%
%ADD19R,0.06299X0.06299*%
%ADD20C,0.06299*%
%ADD21C,0.06400*%
%ADD22R,0.06400X0.06400*%
%ADD23R,0.05906X0.05906*%
%ADD24C,0.05906*%
%ADD25C,0.15000*%
%ADD26R,0.06693X0.06693*%
%ADD27C,0.06693*%
%ADD28R,0.07000X0.07000*%
%ADD29C,0.07000*%
%ADD30O,0.07000X0.05000*%
%ADD31R,0.07000X0.05000*%
%ADD32C,0.05000*%
D10*
X334000Y416870D02*
D03*
Y423130D02*
D03*
D11*
X392756Y296000D02*
D03*
X387244D02*
D03*
D12*
X372559Y244000D02*
D03*
X367441D02*
D03*
X232559Y320000D02*
D03*
X227441D02*
D03*
X232559Y270000D02*
D03*
X227441D02*
D03*
X372559Y284000D02*
D03*
X367441D02*
D03*
X372559Y296000D02*
D03*
X367441D02*
D03*
X372559Y336000D02*
D03*
X367441D02*
D03*
X372559Y324000D02*
D03*
X367441D02*
D03*
X392559Y284000D02*
D03*
X387441D02*
D03*
D13*
X233347Y250000D02*
D03*
X226600D02*
D03*
X233347Y300000D02*
D03*
X226600D02*
D03*
D14*
X387250Y244000D02*
D03*
X392750D02*
D03*
D15*
X386850Y336000D02*
D03*
X393150D02*
D03*
D16*
X392657Y324000D02*
D03*
X387343D02*
D03*
D17*
X227441Y320000D02*
Y346000D01*
X170000Y374000D02*
X174000Y378000D01*
X170000Y354000D02*
Y374000D01*
Y354000D02*
X175000Y349000D01*
X174000Y378000D02*
X234000D01*
X175000Y349000D02*
X180000D01*
X379000Y415000D02*
X420000D01*
X365000Y429000D02*
X379000Y415000D01*
X365000Y429000D02*
Y435000D01*
X334000Y394000D02*
Y416870D01*
X322000Y382000D02*
X334000Y394000D01*
X322000Y366000D02*
Y382000D01*
X343000Y435000D02*
X355000D01*
X334000Y426000D02*
X343000Y435000D01*
X334000Y423130D02*
Y426000D01*
X330000Y430000D02*
X334000Y426000D01*
X304000Y430000D02*
X330000D01*
X300000Y426000D02*
X304000Y430000D01*
X300000Y420000D02*
Y426000D01*
X246000Y366000D02*
X254000D01*
X234000Y378000D02*
X246000Y366000D01*
X379705Y336000D02*
X386850D01*
X372559D02*
X379705D01*
Y343705D01*
X379951Y324000D02*
X387343D01*
X372559D02*
X379951D01*
Y316049D02*
Y324000D01*
X330000Y276000D02*
X346000D01*
X330000Y286000D02*
X346000D01*
X380000Y244000D02*
X387250D01*
X372559D02*
X380000D01*
Y252000D01*
Y284000D02*
X387441D01*
X372559D02*
X380000D01*
Y276000D02*
Y284000D01*
Y296000D02*
X387244D01*
X372559D02*
X380000D01*
Y304000D01*
X330000Y296000D02*
X346000D01*
X392559Y284000D02*
X419000D01*
X392756Y296000D02*
X419000D01*
X330000Y316000D02*
X346000D01*
X210000Y250000D02*
X226600D01*
X367441Y336000D02*
Y365441D01*
Y284000D02*
Y296000D01*
Y324000D01*
Y336000D01*
X393150D02*
X419000D01*
X392657Y324000D02*
X419000D01*
X367441Y244000D02*
Y284000D01*
X392750Y244000D02*
X419000D01*
X330000Y356000D02*
X346000D01*
X330000Y336000D02*
X346000D01*
X330000Y326000D02*
X346000D01*
X330000Y266000D02*
X346000D01*
X330000Y256000D02*
X346000D01*
X330000Y246000D02*
X346000D01*
X330000Y236000D02*
X346000D01*
X254000D02*
X270000D01*
X254000Y246000D02*
X270000D01*
X254000Y256000D02*
X270000D01*
X254000Y266000D02*
X270000D01*
X254000Y276000D02*
X270000D01*
X254000Y286000D02*
X270000D01*
X254000Y296000D02*
X270000D01*
X254000Y306000D02*
X270000D01*
X254000Y316000D02*
X270000D01*
X254000Y326000D02*
X270000D01*
X254000Y336000D02*
X270000D01*
X254000Y356000D02*
X270000D01*
X254000Y366000D02*
X270000D01*
X254000Y376000D02*
X270000D01*
X330000Y306000D02*
X346000D01*
X232559Y320000D02*
X238000D01*
X242000Y316000D01*
Y306000D02*
Y316000D01*
Y306000D02*
X254000D01*
X233347Y300000D02*
X238000D01*
X242000Y304000D01*
Y306000D01*
X224000Y320000D02*
X227441D01*
X220000Y316000D02*
X224000Y320000D01*
X220000Y274000D02*
Y316000D01*
Y274000D02*
X224000Y270000D01*
X227441D01*
X226600Y293400D02*
Y300000D01*
Y293400D02*
X230000Y290000D01*
X240000Y270000D02*
X244000Y274000D01*
Y292000D01*
X248000Y296000D01*
X254000D01*
X233347Y250000D02*
Y269213D01*
X232559Y270000D02*
X240000D01*
D18*
X180000Y359000D02*
X223000D01*
X322000Y366000D02*
X330000D01*
X310000D02*
X322000D01*
X223000Y359000D02*
X227441Y354559D01*
Y346000D02*
Y354559D01*
X330000Y376000D02*
X346000D01*
X419000D01*
X330000Y366000D02*
X346000D01*
X419000D01*
X254000Y346000D02*
X270000D01*
X290000D01*
X310000Y366000D01*
X330000Y346000D02*
X346000D01*
X170000Y269000D02*
X209000D01*
X170000Y259000D02*
X209000D01*
X170000Y319000D02*
X209000D01*
X170000Y309000D02*
X209000D01*
X227441Y346000D02*
X254000D01*
D19*
X420000Y365000D02*
D03*
Y415000D02*
D03*
X170000Y319000D02*
D03*
X180000Y369000D02*
D03*
X420000Y245000D02*
D03*
X170000Y269000D02*
D03*
X420000Y285000D02*
D03*
Y325000D02*
D03*
D20*
Y375000D02*
D03*
Y405000D02*
D03*
X170000Y309000D02*
D03*
X180000Y339000D02*
D03*
Y349000D02*
D03*
Y359000D02*
D03*
X420000Y255000D02*
D03*
X170000Y259000D02*
D03*
X420000Y295000D02*
D03*
Y335000D02*
D03*
D21*
X290000Y420000D02*
D03*
X300000D02*
D03*
D22*
X310000D02*
D03*
D23*
X355000Y405000D02*
D03*
D24*
X365000D02*
D03*
X375000D02*
D03*
X385000D02*
D03*
X355000Y435000D02*
D03*
X365000D02*
D03*
X375000D02*
D03*
X385000D02*
D03*
D25*
X420000Y220000D02*
D03*
X170000D02*
D03*
X420000Y440000D02*
D03*
X170000D02*
D03*
D26*
X210000Y300000D02*
D03*
Y250000D02*
D03*
D27*
Y310000D02*
D03*
Y320000D02*
D03*
Y260000D02*
D03*
Y270000D02*
D03*
D28*
X254000Y376000D02*
D03*
X346000D02*
D03*
D29*
X254000Y366000D02*
D03*
Y356000D02*
D03*
Y346000D02*
D03*
Y336000D02*
D03*
Y326000D02*
D03*
Y316000D02*
D03*
Y306000D02*
D03*
Y296000D02*
D03*
Y286000D02*
D03*
Y276000D02*
D03*
Y266000D02*
D03*
Y256000D02*
D03*
Y246000D02*
D03*
Y236000D02*
D03*
X346000Y366000D02*
D03*
Y356000D02*
D03*
Y346000D02*
D03*
Y336000D02*
D03*
Y326000D02*
D03*
Y316000D02*
D03*
Y306000D02*
D03*
Y296000D02*
D03*
Y286000D02*
D03*
Y276000D02*
D03*
Y266000D02*
D03*
Y256000D02*
D03*
Y246000D02*
D03*
Y236000D02*
D03*
D30*
X330000D02*
D03*
Y246000D02*
D03*
Y256000D02*
D03*
Y266000D02*
D03*
Y276000D02*
D03*
Y286000D02*
D03*
Y296000D02*
D03*
Y306000D02*
D03*
Y316000D02*
D03*
Y326000D02*
D03*
Y336000D02*
D03*
Y346000D02*
D03*
Y356000D02*
D03*
Y366000D02*
D03*
Y376000D02*
D03*
X270000Y236000D02*
D03*
Y246000D02*
D03*
Y256000D02*
D03*
Y266000D02*
D03*
Y276000D02*
D03*
Y286000D02*
D03*
Y296000D02*
D03*
Y306000D02*
D03*
Y316000D02*
D03*
Y326000D02*
D03*
Y336000D02*
D03*
Y346000D02*
D03*
Y356000D02*
D03*
Y366000D02*
D03*
D31*
Y376000D02*
D03*
D32*
X379705Y343705D02*
D03*
X380000Y316000D02*
D03*
Y252000D02*
D03*
Y276000D02*
D03*
Y304000D02*
D03*
X230000Y290000D02*
D03*
M02*
