G04 Layer_Color=7318015*
%FSLAX25Y25*%
%MOIN*%
G70*
G01*
G75*
%ADD10O,0.08661X0.02362*%
%ADD11O,0.02362X0.08661*%
%ADD12R,0.04134X0.03543*%
%ADD13R,0.03543X0.04134*%
%ADD14R,0.04134X0.03937*%
%ADD15R,0.10512X0.10000*%
%ADD16R,0.03000X0.05000*%
%ADD17R,0.03937X0.10630*%
%ADD18R,0.03150X0.03543*%
%ADD19R,0.03937X0.04134*%
%ADD20R,0.04134X0.04528*%
%ADD21R,0.04528X0.04134*%
%ADD22R,0.02362X0.03150*%
%ADD23R,0.03937X0.04331*%
%ADD24R,0.02400X0.05600*%
%ADD25R,0.05600X0.02400*%
%ADD26R,0.04724X0.02362*%
D10*
X1118551Y772500D02*
D03*
Y767500D02*
D03*
Y762500D02*
D03*
Y757500D02*
D03*
Y752500D02*
D03*
Y747500D02*
D03*
Y742500D02*
D03*
Y737500D02*
D03*
X1137449Y772500D02*
D03*
Y767500D02*
D03*
Y762500D02*
D03*
Y757500D02*
D03*
Y752500D02*
D03*
Y747500D02*
D03*
Y742500D02*
D03*
Y737500D02*
D03*
D11*
X1222500Y820551D02*
D03*
X1227500D02*
D03*
X1232500D02*
D03*
X1237500D02*
D03*
X1242500D02*
D03*
X1247500D02*
D03*
X1252500D02*
D03*
X1257500D02*
D03*
X1222500Y839449D02*
D03*
X1227500D02*
D03*
X1232500D02*
D03*
X1237500D02*
D03*
X1242500D02*
D03*
X1247500D02*
D03*
X1252500D02*
D03*
X1257500D02*
D03*
D12*
X1103000Y767658D02*
D03*
Y762343D02*
D03*
Y742343D02*
D03*
Y747657D02*
D03*
X1676000Y562657D02*
D03*
Y557342D02*
D03*
X1486000Y505146D02*
D03*
Y510854D02*
D03*
X1532000Y473343D02*
D03*
Y478657D02*
D03*
X1676000Y842657D02*
D03*
Y837342D02*
D03*
X1486000Y785146D02*
D03*
Y790854D02*
D03*
X1532000Y753342D02*
D03*
Y758658D02*
D03*
X1480000Y1030854D02*
D03*
Y1025146D02*
D03*
X1582000Y1039146D02*
D03*
Y1044854D02*
D03*
X1468000Y1047146D02*
D03*
Y1052854D02*
D03*
X1492000Y1030657D02*
D03*
Y1025342D02*
D03*
X1644000Y380658D02*
D03*
Y375342D02*
D03*
X1566000Y1021146D02*
D03*
Y1026854D02*
D03*
X1582000D02*
D03*
Y1021146D02*
D03*
D13*
X1329342Y680000D02*
D03*
X1334657D02*
D03*
X1329342Y690000D02*
D03*
X1334657D02*
D03*
X1329342Y700000D02*
D03*
X1334657D02*
D03*
X1329342Y710000D02*
D03*
X1334657D02*
D03*
X1329342Y720000D02*
D03*
X1334657D02*
D03*
X1329342Y730000D02*
D03*
X1334657D02*
D03*
X1317342Y750000D02*
D03*
X1322657D02*
D03*
X1160658Y755000D02*
D03*
X1155342D02*
D03*
X1160658Y745000D02*
D03*
X1155342D02*
D03*
X1160658Y735000D02*
D03*
X1155342D02*
D03*
X1522657Y501000D02*
D03*
X1517342D02*
D03*
X1657343Y480000D02*
D03*
X1662658D02*
D03*
X1158000Y660000D02*
D03*
X1152291D02*
D03*
X1158000Y670000D02*
D03*
X1152291D02*
D03*
X1522657Y780000D02*
D03*
X1517342D02*
D03*
X1657343Y760000D02*
D03*
X1662658D02*
D03*
X1158000Y690000D02*
D03*
X1152291D02*
D03*
X1158000Y700000D02*
D03*
X1152291D02*
D03*
X1614854Y1054000D02*
D03*
X1609146D02*
D03*
X1662854Y1048000D02*
D03*
X1657146D02*
D03*
Y1032000D02*
D03*
X1662854D02*
D03*
X1639146D02*
D03*
X1644854D02*
D03*
Y1048000D02*
D03*
X1639146D02*
D03*
X1647146Y1150000D02*
D03*
X1652854D02*
D03*
X1160854Y775000D02*
D03*
X1155146D02*
D03*
X1160854Y765000D02*
D03*
X1155146D02*
D03*
D14*
X1125047Y785000D02*
D03*
X1130953D02*
D03*
D15*
X1460744Y1070000D02*
D03*
D16*
X1470000D02*
D03*
D17*
X1490331D02*
D03*
X1481669D02*
D03*
D18*
X1532260Y490063D02*
D03*
X1539740D02*
D03*
X1536000Y497937D02*
D03*
X1532260Y770063D02*
D03*
X1539740D02*
D03*
X1536000Y777937D02*
D03*
D19*
X1610000Y616953D02*
D03*
Y611047D02*
D03*
X1588000Y616953D02*
D03*
Y611047D02*
D03*
X1610000Y896953D02*
D03*
Y891047D02*
D03*
X1588000Y896953D02*
D03*
Y891047D02*
D03*
D20*
X1618000Y660752D02*
D03*
Y667248D02*
D03*
X1610000Y666752D02*
D03*
Y673248D02*
D03*
X1600000Y610752D02*
D03*
Y617248D02*
D03*
X1588000Y635248D02*
D03*
Y628752D02*
D03*
X1594000Y667248D02*
D03*
Y660752D02*
D03*
X1602000Y673248D02*
D03*
Y666752D02*
D03*
X1560000Y557248D02*
D03*
Y550752D02*
D03*
X1506000Y547248D02*
D03*
Y540752D02*
D03*
X1618000Y940752D02*
D03*
Y947248D02*
D03*
X1610000Y946752D02*
D03*
Y953248D02*
D03*
X1600000Y890752D02*
D03*
Y897248D02*
D03*
X1588000Y915248D02*
D03*
Y908752D02*
D03*
X1594000Y947248D02*
D03*
Y940752D02*
D03*
X1602000Y953248D02*
D03*
Y946752D02*
D03*
X1560000Y837248D02*
D03*
Y830752D02*
D03*
X1506000Y827248D02*
D03*
Y820752D02*
D03*
X1494000Y1149248D02*
D03*
Y1142752D02*
D03*
D21*
X1539248Y514000D02*
D03*
X1532752D02*
D03*
X1523248D02*
D03*
X1516752D02*
D03*
X1551248Y538000D02*
D03*
X1544752D02*
D03*
X1565248Y526000D02*
D03*
X1558752D02*
D03*
X1436752Y538000D02*
D03*
X1443248D02*
D03*
X1383248Y526000D02*
D03*
X1376752D02*
D03*
X1443248D02*
D03*
X1436752D02*
D03*
X1376752Y538000D02*
D03*
X1383248D02*
D03*
X1436752Y514000D02*
D03*
X1443248D02*
D03*
X1383248D02*
D03*
X1376752D02*
D03*
X1436752Y502000D02*
D03*
X1443248D02*
D03*
X1383248D02*
D03*
X1376752D02*
D03*
X1539248Y794000D02*
D03*
X1532752D02*
D03*
X1523248D02*
D03*
X1516752D02*
D03*
X1551248Y818000D02*
D03*
X1544752D02*
D03*
X1565248Y806000D02*
D03*
X1558752D02*
D03*
X1436653Y817945D02*
D03*
X1443149D02*
D03*
X1383149Y805945D02*
D03*
X1376653D02*
D03*
X1443149D02*
D03*
X1436653D02*
D03*
X1376653Y817945D02*
D03*
X1383149D02*
D03*
X1436653Y793945D02*
D03*
X1443149D02*
D03*
X1383149D02*
D03*
X1376653D02*
D03*
X1436653Y781945D02*
D03*
X1443149D02*
D03*
X1383149D02*
D03*
X1376653D02*
D03*
X1511248Y1156000D02*
D03*
X1504752D02*
D03*
Y1144000D02*
D03*
X1511248D02*
D03*
D22*
X1545441Y526000D02*
D03*
X1550559D02*
D03*
X1545441Y806000D02*
D03*
X1550559D02*
D03*
D23*
X1559244Y538000D02*
D03*
X1564756D02*
D03*
X1559244Y818000D02*
D03*
X1564756D02*
D03*
D24*
X1615500Y650630D02*
D03*
X1610500D02*
D03*
X1605500D02*
D03*
X1600500D02*
D03*
Y629300D02*
D03*
X1605500D02*
D03*
X1610500D02*
D03*
X1615500D02*
D03*
X1518500Y529370D02*
D03*
X1523500D02*
D03*
X1528500D02*
D03*
X1533500D02*
D03*
Y550700D02*
D03*
X1528500D02*
D03*
X1523500D02*
D03*
X1518500D02*
D03*
X1615500Y930630D02*
D03*
X1610500D02*
D03*
X1605500D02*
D03*
X1600500D02*
D03*
Y909300D02*
D03*
X1605500D02*
D03*
X1610500D02*
D03*
X1615500D02*
D03*
X1518500Y809370D02*
D03*
X1523500D02*
D03*
X1528500D02*
D03*
X1533500D02*
D03*
Y830700D02*
D03*
X1528500D02*
D03*
X1523500D02*
D03*
X1518500D02*
D03*
D25*
X1399370Y527500D02*
D03*
Y522500D02*
D03*
Y517500D02*
D03*
Y512500D02*
D03*
X1420700D02*
D03*
Y517500D02*
D03*
Y522500D02*
D03*
Y527500D02*
D03*
X1399271Y807445D02*
D03*
Y802445D02*
D03*
Y797445D02*
D03*
Y792445D02*
D03*
X1420601D02*
D03*
Y797445D02*
D03*
Y802445D02*
D03*
Y807445D02*
D03*
X1601370Y1037500D02*
D03*
Y1032500D02*
D03*
Y1027500D02*
D03*
Y1022500D02*
D03*
X1622700D02*
D03*
Y1027500D02*
D03*
Y1032500D02*
D03*
Y1037500D02*
D03*
X1480630Y1142500D02*
D03*
Y1147500D02*
D03*
Y1152500D02*
D03*
Y1157500D02*
D03*
X1459300D02*
D03*
Y1152500D02*
D03*
Y1147500D02*
D03*
Y1142500D02*
D03*
D26*
X1481472Y1053740D02*
D03*
Y1050000D02*
D03*
Y1046260D02*
D03*
X1490528D02*
D03*
Y1053740D02*
D03*
M02*
