M48
;Layer_Color=6321
;FILE_FORMAT=2:5
INCH,LZ
;TYPE=PLATED
T1F00S00C0.02800
T2F00S00C0.03000
T3F00S00C0.03150
T4F00S00C0.03543
T5F00S00C0.03600
T6F00S00C0.03900
T7F00S00C0.03937
T8F00S00C0.04000
T9F00S00C0.04331
T10F00S00C0.05000
T11F00S00C0.06300
T12F00S00C0.07200
%
T01
X1578Y053
X158Y055
X1618Y0612
Y0622
X1512Y0556
X1496Y051
X1442Y049
X1404
X1368Y052
X136Y053
X1146Y078
X126Y077
X1356Y0774
X135Y078
X1376Y0713
Y0644
X145Y0636
X146Y067
X158Y0665
X1624Y0674
X1615Y071
X167Y0702
X1665Y0695
X167Y078
Y0816
X1578Y081
X1575Y0819
X157Y0785
X158Y0922
X1618Y0902
Y0886
X1632Y0888
X1552Y0852
X1496Y079
X1456Y0782
X1366Y079
Y08
X129Y082
X128
X127
X1265Y083
X135Y091
X136
X12425Y0851
X1215Y086
X1212Y0831
X1237Y0803
X12325Y07925
X116Y0785
X152Y095
X155
X154Y1019
X153
X15Y104
X1505Y107
X1624Y1046
Y0954
T02
X16205Y1134815
Y11545
X163Y1145
T03
X152Y105
X151
X1446
X1436
T04
X1486Y053
Y0539843
Y0549685
Y081
Y0819843
Y0829685
T05
X132Y076
X133
Y079
X132
X1154Y086
Y087
T06
X118Y065
Y066
Y067
Y068
Y069
Y07
Y071
Y072
Y073
Y074
Y075
Y076
Y077
Y078
X13
Y077
Y076
Y075
Y074
Y073
Y072
Y071
Y07
Y069
Y068
Y067
Y066
Y065
Y079
X132Y089
Y09
Y091
Y092
Y093
X1154
Y092
Y091
Y09
Y089
X118Y079
X1154Y094
Y095
Y096
Y097
Y098
Y099
Y1
Y101
Y102
Y103
X132
Y102
Y101
Y1
Y099
Y098
Y097
Y096
Y095
Y094
T07
X169Y038
X168
X167
X169Y048
Y049
Y05
X1656Y0536
Y0546
Y0556
X1619842Y058
X1600157
X169Y076
Y077
Y078
X1656Y0816
Y0826
Y0836
X1619842Y086
X1600157
T08
X121Y065
Y066
Y067
Y068
Y069
Y07
Y071
Y072
Y073
Y074
Y075
Y076
Y077
Y078
X127
Y077
Y076
Y075
Y074
Y073
Y072
Y071
Y07
Y069
Y068
Y067
Y066
Y065
X167Y064
Y063
Y091
Y092
X1285
Y093
Y091
Y09
Y089
X127Y079
X121
X1195Y089
Y09
Y091
Y092
Y093
Y094
Y095
Y096
Y097
Y098
Y099
Y1
Y101
Y102
Y103
X1285
Y102
Y101
Y1
Y099
Y098
Y097
Y096
Y095
Y094
X169Y114
Y115
T09
X169Y0535
Y0545
X161Y049
X16
X159
Y077
X16
X161
X169Y0815
Y0825
Y1025
Y1035
T10
X169Y107
X163
T11
X162Y038
X159Y047
X157Y058
X166Y06
X171Y058
Y05
X1516Y0478
X1506Y057
X142Y055
X14
X1516Y0758
X159Y075
X165Y066
X1634Y0628
X166Y088
X1634Y0908
X157Y086
X171
X1506Y085
X1419901Y0829945
X1399901
X146Y1028
X165Y1
Y094
X163Y109
X169
X147Y112
T12
X167Y1145
M30
