G04 Layer_Color=20142*
%FSLAX25Y25*%
%MOIN*%
G70*
G01*
G75*
%ADD62O,0.09461X0.03162*%
%ADD63O,0.03162X0.09461*%
%ADD64R,0.04934X0.04343*%
%ADD65R,0.04343X0.04934*%
%ADD66R,0.04934X0.04737*%
%ADD67R,0.11312X0.10800*%
%ADD68R,0.03800X0.05800*%
%ADD69R,0.04737X0.11430*%
%ADD70R,0.03950X0.04343*%
%ADD71R,0.04737X0.04934*%
%ADD72R,0.04934X0.05328*%
%ADD73R,0.05328X0.04934*%
%ADD74R,0.03162X0.03950*%
%ADD75R,0.04737X0.05131*%
%ADD76R,0.03200X0.06400*%
%ADD77R,0.06400X0.03200*%
%ADD78R,0.05524X0.03162*%
%ADD79C,0.10300*%
G04:AMPARAMS|DCode=80|XSize=68mil|YSize=88mil|CornerRadius=19mil|HoleSize=0mil|Usage=FLASHONLY|Rotation=180.000|XOffset=0mil|YOffset=0mil|HoleType=Round|Shape=RoundedRectangle|*
%AMROUNDEDRECTD80*
21,1,0.06800,0.05000,0,0,180.0*
21,1,0.03000,0.08800,0,0,180.0*
1,1,0.03800,-0.01500,0.02500*
1,1,0.03800,0.01500,0.02500*
1,1,0.03800,0.01500,-0.02500*
1,1,0.03800,-0.01500,-0.02500*
%
%ADD80ROUNDEDRECTD80*%
%ADD81R,0.06800X0.08800*%
%ADD82R,0.08800X0.06800*%
G04:AMPARAMS|DCode=83|XSize=68mil|YSize=88mil|CornerRadius=19mil|HoleSize=0mil|Usage=FLASHONLY|Rotation=270.000|XOffset=0mil|YOffset=0mil|HoleType=Round|Shape=RoundedRectangle|*
%AMROUNDEDRECTD83*
21,1,0.06800,0.05000,0,0,270.0*
21,1,0.03000,0.08800,0,0,270.0*
1,1,0.03800,-0.02500,-0.01500*
1,1,0.03800,-0.02500,0.01500*
1,1,0.03800,0.02500,0.01500*
1,1,0.03800,0.02500,-0.01500*
%
%ADD83ROUNDEDRECTD83*%
%ADD84C,0.07099*%
%ADD85R,0.07099X0.07099*%
%ADD86C,0.07099*%
%ADD87R,0.07099X0.07099*%
%ADD88C,0.11800*%
%ADD89C,0.09225*%
%ADD90C,0.15800*%
%ADD91C,0.06800*%
%ADD92C,0.07300*%
%ADD93R,0.07300X0.07300*%
%ADD94C,0.07493*%
%ADD95R,0.07493X0.07493*%
%ADD96O,0.08674X0.07493*%
%ADD97R,0.06300X0.05800*%
%ADD98O,0.06300X0.05800*%
%ADD99R,0.07099X0.07099*%
%ADD100R,0.07800X0.06300*%
%ADD101O,0.07800X0.06300*%
%ADD102R,0.07800X0.05800*%
%ADD103O,0.07800X0.05800*%
%ADD104O,0.08300X0.06300*%
%ADD105R,0.08300X0.06300*%
%ADD106C,0.05800*%
D62*
X1118551Y772500D02*
D03*
Y767500D02*
D03*
Y762500D02*
D03*
Y757500D02*
D03*
Y752500D02*
D03*
Y747500D02*
D03*
Y742500D02*
D03*
Y737500D02*
D03*
X1137449Y772500D02*
D03*
Y767500D02*
D03*
Y762500D02*
D03*
Y757500D02*
D03*
Y752500D02*
D03*
Y747500D02*
D03*
Y742500D02*
D03*
Y737500D02*
D03*
D63*
X1222500Y820551D02*
D03*
X1227500D02*
D03*
X1232500D02*
D03*
X1237500D02*
D03*
X1242500D02*
D03*
X1247500D02*
D03*
X1252500D02*
D03*
X1257500D02*
D03*
X1222500Y839449D02*
D03*
X1227500D02*
D03*
X1232500D02*
D03*
X1237500D02*
D03*
X1242500D02*
D03*
X1247500D02*
D03*
X1252500D02*
D03*
X1257500D02*
D03*
D64*
X1103000Y767658D02*
D03*
Y762343D02*
D03*
Y742343D02*
D03*
Y747657D02*
D03*
X1676000Y562657D02*
D03*
Y557342D02*
D03*
X1486000Y505146D02*
D03*
Y510854D02*
D03*
X1532000Y473343D02*
D03*
Y478657D02*
D03*
X1676000Y842657D02*
D03*
Y837342D02*
D03*
X1486000Y785146D02*
D03*
Y790854D02*
D03*
X1532000Y753342D02*
D03*
Y758658D02*
D03*
X1480000Y1030854D02*
D03*
Y1025146D02*
D03*
X1582000Y1039146D02*
D03*
Y1044854D02*
D03*
X1468000Y1047146D02*
D03*
Y1052854D02*
D03*
X1492000Y1030657D02*
D03*
Y1025342D02*
D03*
X1644000Y380658D02*
D03*
Y375342D02*
D03*
X1566000Y1021146D02*
D03*
Y1026854D02*
D03*
X1582000D02*
D03*
Y1021146D02*
D03*
D65*
X1329342Y680000D02*
D03*
X1334657D02*
D03*
X1329342Y690000D02*
D03*
X1334657D02*
D03*
X1329342Y700000D02*
D03*
X1334657D02*
D03*
X1329342Y710000D02*
D03*
X1334657D02*
D03*
X1329342Y720000D02*
D03*
X1334657D02*
D03*
X1329342Y730000D02*
D03*
X1334657D02*
D03*
X1317342Y750000D02*
D03*
X1322657D02*
D03*
X1160658Y755000D02*
D03*
X1155342D02*
D03*
X1160658Y745000D02*
D03*
X1155342D02*
D03*
X1160658Y735000D02*
D03*
X1155342D02*
D03*
X1522657Y501000D02*
D03*
X1517342D02*
D03*
X1657343Y480000D02*
D03*
X1662658D02*
D03*
X1158000Y660000D02*
D03*
X1152291D02*
D03*
X1158000Y670000D02*
D03*
X1152291D02*
D03*
X1522657Y780000D02*
D03*
X1517342D02*
D03*
X1657343Y760000D02*
D03*
X1662658D02*
D03*
X1158000Y690000D02*
D03*
X1152291D02*
D03*
X1158000Y700000D02*
D03*
X1152291D02*
D03*
X1614854Y1054000D02*
D03*
X1609146D02*
D03*
X1662854Y1048000D02*
D03*
X1657146D02*
D03*
Y1032000D02*
D03*
X1662854D02*
D03*
X1639146D02*
D03*
X1644854D02*
D03*
Y1048000D02*
D03*
X1639146D02*
D03*
X1647146Y1150000D02*
D03*
X1652854D02*
D03*
X1160854Y775000D02*
D03*
X1155146D02*
D03*
X1160854Y765000D02*
D03*
X1155146D02*
D03*
D66*
X1125047Y785000D02*
D03*
X1130953D02*
D03*
D67*
X1460744Y1070000D02*
D03*
D68*
X1470000D02*
D03*
D69*
X1490331D02*
D03*
X1481669D02*
D03*
D70*
X1532260Y490063D02*
D03*
X1539740D02*
D03*
X1536000Y497937D02*
D03*
X1532260Y770063D02*
D03*
X1539740D02*
D03*
X1536000Y777937D02*
D03*
D71*
X1610000Y616953D02*
D03*
Y611047D02*
D03*
X1588000Y616953D02*
D03*
Y611047D02*
D03*
X1610000Y896953D02*
D03*
Y891047D02*
D03*
X1588000Y896953D02*
D03*
Y891047D02*
D03*
D72*
X1618000Y660752D02*
D03*
Y667248D02*
D03*
X1610000Y666752D02*
D03*
Y673248D02*
D03*
X1600000Y610752D02*
D03*
Y617248D02*
D03*
X1588000Y635248D02*
D03*
Y628752D02*
D03*
X1594000Y667248D02*
D03*
Y660752D02*
D03*
X1602000Y673248D02*
D03*
Y666752D02*
D03*
X1560000Y557248D02*
D03*
Y550752D02*
D03*
X1506000Y547248D02*
D03*
Y540752D02*
D03*
X1618000Y940752D02*
D03*
Y947248D02*
D03*
X1610000Y946752D02*
D03*
Y953248D02*
D03*
X1600000Y890752D02*
D03*
Y897248D02*
D03*
X1588000Y915248D02*
D03*
Y908752D02*
D03*
X1594000Y947248D02*
D03*
Y940752D02*
D03*
X1602000Y953248D02*
D03*
Y946752D02*
D03*
X1560000Y837248D02*
D03*
Y830752D02*
D03*
X1506000Y827248D02*
D03*
Y820752D02*
D03*
X1494000Y1149248D02*
D03*
Y1142752D02*
D03*
D73*
X1539248Y514000D02*
D03*
X1532752D02*
D03*
X1523248D02*
D03*
X1516752D02*
D03*
X1551248Y538000D02*
D03*
X1544752D02*
D03*
X1565248Y526000D02*
D03*
X1558752D02*
D03*
X1436752Y538000D02*
D03*
X1443248D02*
D03*
X1383248Y526000D02*
D03*
X1376752D02*
D03*
X1443248D02*
D03*
X1436752D02*
D03*
X1376752Y538000D02*
D03*
X1383248D02*
D03*
X1436752Y514000D02*
D03*
X1443248D02*
D03*
X1383248D02*
D03*
X1376752D02*
D03*
X1436752Y502000D02*
D03*
X1443248D02*
D03*
X1383248D02*
D03*
X1376752D02*
D03*
X1539248Y794000D02*
D03*
X1532752D02*
D03*
X1523248D02*
D03*
X1516752D02*
D03*
X1551248Y818000D02*
D03*
X1544752D02*
D03*
X1565248Y806000D02*
D03*
X1558752D02*
D03*
X1436653Y817945D02*
D03*
X1443149D02*
D03*
X1383149Y805945D02*
D03*
X1376653D02*
D03*
X1443149D02*
D03*
X1436653D02*
D03*
X1376653Y817945D02*
D03*
X1383149D02*
D03*
X1436653Y793945D02*
D03*
X1443149D02*
D03*
X1383149D02*
D03*
X1376653D02*
D03*
X1436653Y781945D02*
D03*
X1443149D02*
D03*
X1383149D02*
D03*
X1376653D02*
D03*
X1511248Y1156000D02*
D03*
X1504752D02*
D03*
Y1144000D02*
D03*
X1511248D02*
D03*
D74*
X1545441Y526000D02*
D03*
X1550559D02*
D03*
X1545441Y806000D02*
D03*
X1550559D02*
D03*
D75*
X1559244Y538000D02*
D03*
X1564756D02*
D03*
X1559244Y818000D02*
D03*
X1564756D02*
D03*
D76*
X1615500Y650630D02*
D03*
X1610500D02*
D03*
X1605500D02*
D03*
X1600500D02*
D03*
Y629300D02*
D03*
X1605500D02*
D03*
X1610500D02*
D03*
X1615500D02*
D03*
X1518500Y529370D02*
D03*
X1523500D02*
D03*
X1528500D02*
D03*
X1533500D02*
D03*
Y550700D02*
D03*
X1528500D02*
D03*
X1523500D02*
D03*
X1518500D02*
D03*
X1615500Y930630D02*
D03*
X1610500D02*
D03*
X1605500D02*
D03*
X1600500D02*
D03*
Y909300D02*
D03*
X1605500D02*
D03*
X1610500D02*
D03*
X1615500D02*
D03*
X1518500Y809370D02*
D03*
X1523500D02*
D03*
X1528500D02*
D03*
X1533500D02*
D03*
Y830700D02*
D03*
X1528500D02*
D03*
X1523500D02*
D03*
X1518500D02*
D03*
D77*
X1399370Y527500D02*
D03*
Y522500D02*
D03*
Y517500D02*
D03*
Y512500D02*
D03*
X1420700D02*
D03*
Y517500D02*
D03*
Y522500D02*
D03*
Y527500D02*
D03*
X1399271Y807445D02*
D03*
Y802445D02*
D03*
Y797445D02*
D03*
Y792445D02*
D03*
X1420601D02*
D03*
Y797445D02*
D03*
Y802445D02*
D03*
Y807445D02*
D03*
X1601370Y1037500D02*
D03*
Y1032500D02*
D03*
Y1027500D02*
D03*
Y1022500D02*
D03*
X1622700D02*
D03*
Y1027500D02*
D03*
Y1032500D02*
D03*
Y1037500D02*
D03*
X1480630Y1142500D02*
D03*
Y1147500D02*
D03*
Y1152500D02*
D03*
Y1157500D02*
D03*
X1459300D02*
D03*
Y1152500D02*
D03*
Y1147500D02*
D03*
Y1142500D02*
D03*
D78*
X1481472Y1053740D02*
D03*
Y1050000D02*
D03*
Y1046260D02*
D03*
X1490528D02*
D03*
Y1053740D02*
D03*
D79*
X1600157Y860000D02*
D03*
X1619842D02*
D03*
X1600157Y580000D02*
D03*
X1619842D02*
D03*
D80*
X1320000Y760000D02*
D03*
Y790000D02*
D03*
D81*
X1330000Y760000D02*
D03*
Y790000D02*
D03*
D82*
X1154000Y870000D02*
D03*
D83*
Y860000D02*
D03*
D84*
X1690000Y380000D02*
D03*
X1680000D02*
D03*
X1656000Y546000D02*
D03*
Y536000D02*
D03*
X1690000Y490000D02*
D03*
Y500000D02*
D03*
X1656000Y826000D02*
D03*
Y816000D02*
D03*
X1690000Y770000D02*
D03*
Y780000D02*
D03*
D85*
X1670000Y380000D02*
D03*
D86*
X1690000Y1025000D02*
D03*
Y825000D02*
D03*
Y545000D02*
D03*
D87*
Y1035000D02*
D03*
Y815000D02*
D03*
Y535000D02*
D03*
D88*
X1710000Y500000D02*
D03*
Y580000D02*
D03*
Y860000D02*
D03*
X1470000Y1120000D02*
D03*
X1634000Y908000D02*
D03*
Y628000D02*
D03*
X1516000Y758000D02*
D03*
Y478000D02*
D03*
X1590000Y750000D02*
D03*
Y470000D02*
D03*
X1506000Y850000D02*
D03*
Y570000D02*
D03*
X1660000Y880000D02*
D03*
Y600000D02*
D03*
X1570000Y860000D02*
D03*
Y580000D02*
D03*
X1399901Y829945D02*
D03*
X1400000Y550000D02*
D03*
X1419901Y829945D02*
D03*
X1420000Y550000D02*
D03*
X1650000Y1000000D02*
D03*
X1620000Y380000D02*
D03*
X1690000Y1090000D02*
D03*
X1630000D02*
D03*
X1460000Y1028000D02*
D03*
X1650000Y940000D02*
D03*
Y660000D02*
D03*
D89*
X1436000Y1050000D02*
D03*
X1446000D02*
D03*
X1520000D02*
D03*
X1510000D02*
D03*
D90*
X1670000Y1145000D02*
D03*
D91*
X1620500Y1154500D02*
D03*
X1630000Y1145000D02*
D03*
X1620500Y1134815D02*
D03*
D92*
X1690000Y1140000D02*
D03*
X1670000Y910000D02*
D03*
Y630000D02*
D03*
D93*
X1690000Y1150000D02*
D03*
X1670000Y920000D02*
D03*
Y640000D02*
D03*
D94*
X1610000Y490000D02*
D03*
X1600000D02*
D03*
X1610000Y770000D02*
D03*
X1600000D02*
D03*
X1630000Y1070000D02*
D03*
X1690000D02*
D03*
D95*
X1590000Y490000D02*
D03*
Y770000D02*
D03*
D96*
X1486000Y530000D02*
D03*
Y539843D02*
D03*
Y549685D02*
D03*
Y810000D02*
D03*
Y819843D02*
D03*
Y829685D02*
D03*
D97*
X1210000Y790000D02*
D03*
D98*
Y780000D02*
D03*
Y770000D02*
D03*
Y760000D02*
D03*
Y750000D02*
D03*
Y740000D02*
D03*
Y730000D02*
D03*
Y720000D02*
D03*
Y710000D02*
D03*
Y700000D02*
D03*
Y690000D02*
D03*
Y680000D02*
D03*
Y670000D02*
D03*
Y660000D02*
D03*
Y650000D02*
D03*
X1270000Y790000D02*
D03*
Y780000D02*
D03*
Y770000D02*
D03*
Y760000D02*
D03*
Y750000D02*
D03*
Y740000D02*
D03*
Y730000D02*
D03*
Y720000D02*
D03*
Y710000D02*
D03*
Y700000D02*
D03*
Y690000D02*
D03*
Y680000D02*
D03*
Y670000D02*
D03*
Y660000D02*
D03*
Y650000D02*
D03*
D99*
X1656000Y556000D02*
D03*
X1690000Y480000D02*
D03*
X1656000Y836000D02*
D03*
X1690000Y760000D02*
D03*
D100*
X1320000Y890000D02*
D03*
X1154000Y1030000D02*
D03*
D101*
X1320000Y900000D02*
D03*
Y910000D02*
D03*
Y920000D02*
D03*
Y930000D02*
D03*
Y940000D02*
D03*
Y950000D02*
D03*
Y960000D02*
D03*
Y970000D02*
D03*
Y980000D02*
D03*
Y990000D02*
D03*
Y1000000D02*
D03*
Y1010000D02*
D03*
Y1020000D02*
D03*
Y1030000D02*
D03*
X1154000Y1020000D02*
D03*
Y1010000D02*
D03*
Y1000000D02*
D03*
Y990000D02*
D03*
Y980000D02*
D03*
Y970000D02*
D03*
Y960000D02*
D03*
Y950000D02*
D03*
Y940000D02*
D03*
Y930000D02*
D03*
Y920000D02*
D03*
Y910000D02*
D03*
Y900000D02*
D03*
Y890000D02*
D03*
D102*
X1300000Y650000D02*
D03*
X1180000Y790000D02*
D03*
D103*
X1300000Y660000D02*
D03*
Y670000D02*
D03*
Y680000D02*
D03*
Y690000D02*
D03*
Y700000D02*
D03*
Y710000D02*
D03*
Y720000D02*
D03*
Y730000D02*
D03*
Y740000D02*
D03*
Y750000D02*
D03*
Y760000D02*
D03*
Y770000D02*
D03*
Y780000D02*
D03*
Y790000D02*
D03*
X1180000Y780000D02*
D03*
Y770000D02*
D03*
Y760000D02*
D03*
Y750000D02*
D03*
Y740000D02*
D03*
Y730000D02*
D03*
Y720000D02*
D03*
Y710000D02*
D03*
Y700000D02*
D03*
Y690000D02*
D03*
Y680000D02*
D03*
Y670000D02*
D03*
Y660000D02*
D03*
Y650000D02*
D03*
D104*
X1195000Y890000D02*
D03*
Y900000D02*
D03*
Y910000D02*
D03*
Y920000D02*
D03*
Y930000D02*
D03*
Y940000D02*
D03*
Y950000D02*
D03*
Y960000D02*
D03*
Y970000D02*
D03*
Y980000D02*
D03*
Y990000D02*
D03*
Y1000000D02*
D03*
Y1010000D02*
D03*
Y1020000D02*
D03*
X1285000Y1030000D02*
D03*
Y1020000D02*
D03*
Y1010000D02*
D03*
Y1000000D02*
D03*
Y990000D02*
D03*
Y980000D02*
D03*
Y970000D02*
D03*
Y960000D02*
D03*
Y950000D02*
D03*
Y940000D02*
D03*
Y930000D02*
D03*
Y920000D02*
D03*
Y910000D02*
D03*
Y900000D02*
D03*
Y890000D02*
D03*
D105*
X1195000Y1030000D02*
D03*
D106*
X1618000Y886000D02*
D03*
X1632000Y888000D02*
D03*
X1360000Y910000D02*
D03*
X1356000Y774000D02*
D03*
X1350000Y910000D02*
D03*
Y780000D02*
D03*
X1665000Y695000D02*
D03*
X1580000Y922000D02*
D03*
X1505000Y1070000D02*
D03*
X1242500Y851000D02*
D03*
X1215000Y860000D02*
D03*
X1618000Y612000D02*
D03*
X1366000Y790000D02*
D03*
X1670000Y702000D02*
D03*
X1456000Y782000D02*
D03*
X1376000Y644000D02*
D03*
X1500000Y1040000D02*
D03*
X1552000Y852000D02*
D03*
X1550000Y950000D02*
D03*
X1520000D02*
D03*
X1146000Y780000D02*
D03*
X1360000Y530000D02*
D03*
X1368000Y520000D02*
D03*
X1442000Y490000D02*
D03*
X1404000D02*
D03*
X1670000Y816000D02*
D03*
Y780000D02*
D03*
X1618000Y902000D02*
D03*
X1512000Y556000D02*
D03*
X1580000Y550000D02*
D03*
X1618000Y622000D02*
D03*
X1570000Y785000D02*
D03*
X1366000Y800000D02*
D03*
X1624000Y1046000D02*
D03*
X1578000Y530000D02*
D03*
X1624000Y674000D02*
D03*
X1496000Y510000D02*
D03*
X1624000Y954000D02*
D03*
X1496000Y790000D02*
D03*
X1578000Y810000D02*
D03*
X1575000Y819000D02*
D03*
X1540000Y1019000D02*
D03*
X1530000D02*
D03*
X1232500Y792500D02*
D03*
X1450000Y636000D02*
D03*
X1237000Y803000D02*
D03*
X1270000Y820000D02*
D03*
X1260000Y770000D02*
D03*
X1280000Y820000D02*
D03*
X1290000D02*
D03*
X1160000Y785000D02*
D03*
X1265000Y830000D02*
D03*
X1376000Y713000D02*
D03*
X1615000Y710000D02*
D03*
X1460000Y670000D02*
D03*
X1580000Y665000D02*
D03*
X1212000Y831000D02*
D03*
M02*
