G04 Layer_Color=8150272*
%FSLAX25Y25*%
%MOIN*%
G70*
G01*
G75*
%ADD79C,0.10300*%
G04:AMPARAMS|DCode=80|XSize=68mil|YSize=88mil|CornerRadius=19mil|HoleSize=0mil|Usage=FLASHONLY|Rotation=180.000|XOffset=0mil|YOffset=0mil|HoleType=Round|Shape=RoundedRectangle|*
%AMROUNDEDRECTD80*
21,1,0.06800,0.05000,0,0,180.0*
21,1,0.03000,0.08800,0,0,180.0*
1,1,0.03800,-0.01500,0.02500*
1,1,0.03800,0.01500,0.02500*
1,1,0.03800,0.01500,-0.02500*
1,1,0.03800,-0.01500,-0.02500*
%
%ADD80ROUNDEDRECTD80*%
%ADD81R,0.06800X0.08800*%
%ADD82R,0.08800X0.06800*%
G04:AMPARAMS|DCode=83|XSize=68mil|YSize=88mil|CornerRadius=19mil|HoleSize=0mil|Usage=FLASHONLY|Rotation=270.000|XOffset=0mil|YOffset=0mil|HoleType=Round|Shape=RoundedRectangle|*
%AMROUNDEDRECTD83*
21,1,0.06800,0.05000,0,0,270.0*
21,1,0.03000,0.08800,0,0,270.0*
1,1,0.03800,-0.02500,-0.01500*
1,1,0.03800,-0.02500,0.01500*
1,1,0.03800,0.02500,0.01500*
1,1,0.03800,0.02500,-0.01500*
%
%ADD83ROUNDEDRECTD83*%
%ADD84C,0.07099*%
%ADD85R,0.07099X0.07099*%
%ADD86C,0.07099*%
%ADD87R,0.07099X0.07099*%
%ADD88C,0.11800*%
%ADD89C,0.09225*%
%ADD90C,0.15800*%
%ADD91C,0.06800*%
%ADD92C,0.07300*%
%ADD93R,0.07300X0.07300*%
%ADD94C,0.07493*%
%ADD95R,0.07493X0.07493*%
%ADD96O,0.08674X0.07493*%
%ADD97R,0.06300X0.05800*%
%ADD98O,0.06300X0.05800*%
%ADD99R,0.07099X0.07099*%
%ADD100R,0.07800X0.06300*%
%ADD101O,0.07800X0.06300*%
%ADD102R,0.07800X0.05800*%
%ADD103O,0.07800X0.05800*%
%ADD104O,0.08300X0.06300*%
%ADD105R,0.08300X0.06300*%
%ADD106C,0.05800*%
D79*
X1600157Y860000D02*
D03*
X1619842D02*
D03*
X1600157Y580000D02*
D03*
X1619842D02*
D03*
D80*
X1320000Y760000D02*
D03*
Y790000D02*
D03*
D81*
X1330000Y760000D02*
D03*
Y790000D02*
D03*
D82*
X1154000Y870000D02*
D03*
D83*
Y860000D02*
D03*
D84*
X1690000Y380000D02*
D03*
X1680000D02*
D03*
X1656000Y546000D02*
D03*
Y536000D02*
D03*
X1690000Y490000D02*
D03*
Y500000D02*
D03*
X1656000Y826000D02*
D03*
Y816000D02*
D03*
X1690000Y770000D02*
D03*
Y780000D02*
D03*
D85*
X1670000Y380000D02*
D03*
D86*
X1690000Y1025000D02*
D03*
Y825000D02*
D03*
Y545000D02*
D03*
D87*
Y1035000D02*
D03*
Y815000D02*
D03*
Y535000D02*
D03*
D88*
X1710000Y500000D02*
D03*
Y580000D02*
D03*
Y860000D02*
D03*
X1470000Y1120000D02*
D03*
X1634000Y908000D02*
D03*
Y628000D02*
D03*
X1516000Y758000D02*
D03*
Y478000D02*
D03*
X1590000Y750000D02*
D03*
Y470000D02*
D03*
X1506000Y850000D02*
D03*
Y570000D02*
D03*
X1660000Y880000D02*
D03*
Y600000D02*
D03*
X1570000Y860000D02*
D03*
Y580000D02*
D03*
X1399901Y829945D02*
D03*
X1400000Y550000D02*
D03*
X1419901Y829945D02*
D03*
X1420000Y550000D02*
D03*
X1650000Y1000000D02*
D03*
X1620000Y380000D02*
D03*
X1690000Y1090000D02*
D03*
X1630000D02*
D03*
X1460000Y1028000D02*
D03*
X1650000Y940000D02*
D03*
Y660000D02*
D03*
D89*
X1436000Y1050000D02*
D03*
X1446000D02*
D03*
X1520000D02*
D03*
X1510000D02*
D03*
D90*
X1670000Y1145000D02*
D03*
D91*
X1620500Y1154500D02*
D03*
X1630000Y1145000D02*
D03*
X1620500Y1134815D02*
D03*
D92*
X1690000Y1140000D02*
D03*
X1670000Y910000D02*
D03*
Y630000D02*
D03*
D93*
X1690000Y1150000D02*
D03*
X1670000Y920000D02*
D03*
Y640000D02*
D03*
D94*
X1610000Y490000D02*
D03*
X1600000D02*
D03*
X1610000Y770000D02*
D03*
X1600000D02*
D03*
X1630000Y1070000D02*
D03*
X1690000D02*
D03*
D95*
X1590000Y490000D02*
D03*
Y770000D02*
D03*
D96*
X1486000Y530000D02*
D03*
Y539843D02*
D03*
Y549685D02*
D03*
Y810000D02*
D03*
Y819843D02*
D03*
Y829685D02*
D03*
D97*
X1210000Y790000D02*
D03*
D98*
Y780000D02*
D03*
Y770000D02*
D03*
Y760000D02*
D03*
Y750000D02*
D03*
Y740000D02*
D03*
Y730000D02*
D03*
Y720000D02*
D03*
Y710000D02*
D03*
Y700000D02*
D03*
Y690000D02*
D03*
Y680000D02*
D03*
Y670000D02*
D03*
Y660000D02*
D03*
Y650000D02*
D03*
X1270000Y790000D02*
D03*
Y780000D02*
D03*
Y770000D02*
D03*
Y760000D02*
D03*
Y750000D02*
D03*
Y740000D02*
D03*
Y730000D02*
D03*
Y720000D02*
D03*
Y710000D02*
D03*
Y700000D02*
D03*
Y690000D02*
D03*
Y680000D02*
D03*
Y670000D02*
D03*
Y660000D02*
D03*
Y650000D02*
D03*
D99*
X1656000Y556000D02*
D03*
X1690000Y480000D02*
D03*
X1656000Y836000D02*
D03*
X1690000Y760000D02*
D03*
D100*
X1320000Y890000D02*
D03*
X1154000Y1030000D02*
D03*
D101*
X1320000Y900000D02*
D03*
Y910000D02*
D03*
Y920000D02*
D03*
Y930000D02*
D03*
Y940000D02*
D03*
Y950000D02*
D03*
Y960000D02*
D03*
Y970000D02*
D03*
Y980000D02*
D03*
Y990000D02*
D03*
Y1000000D02*
D03*
Y1010000D02*
D03*
Y1020000D02*
D03*
Y1030000D02*
D03*
X1154000Y1020000D02*
D03*
Y1010000D02*
D03*
Y1000000D02*
D03*
Y990000D02*
D03*
Y980000D02*
D03*
Y970000D02*
D03*
Y960000D02*
D03*
Y950000D02*
D03*
Y940000D02*
D03*
Y930000D02*
D03*
Y920000D02*
D03*
Y910000D02*
D03*
Y900000D02*
D03*
Y890000D02*
D03*
D102*
X1300000Y650000D02*
D03*
X1180000Y790000D02*
D03*
D103*
X1300000Y660000D02*
D03*
Y670000D02*
D03*
Y680000D02*
D03*
Y690000D02*
D03*
Y700000D02*
D03*
Y710000D02*
D03*
Y720000D02*
D03*
Y730000D02*
D03*
Y740000D02*
D03*
Y750000D02*
D03*
Y760000D02*
D03*
Y770000D02*
D03*
Y780000D02*
D03*
Y790000D02*
D03*
X1180000Y780000D02*
D03*
Y770000D02*
D03*
Y760000D02*
D03*
Y750000D02*
D03*
Y740000D02*
D03*
Y730000D02*
D03*
Y720000D02*
D03*
Y710000D02*
D03*
Y700000D02*
D03*
Y690000D02*
D03*
Y680000D02*
D03*
Y670000D02*
D03*
Y660000D02*
D03*
Y650000D02*
D03*
D104*
X1195000Y890000D02*
D03*
Y900000D02*
D03*
Y910000D02*
D03*
Y920000D02*
D03*
Y930000D02*
D03*
Y940000D02*
D03*
Y950000D02*
D03*
Y960000D02*
D03*
Y970000D02*
D03*
Y980000D02*
D03*
Y990000D02*
D03*
Y1000000D02*
D03*
Y1010000D02*
D03*
Y1020000D02*
D03*
X1285000Y1030000D02*
D03*
Y1020000D02*
D03*
Y1010000D02*
D03*
Y1000000D02*
D03*
Y990000D02*
D03*
Y980000D02*
D03*
Y970000D02*
D03*
Y960000D02*
D03*
Y950000D02*
D03*
Y940000D02*
D03*
Y930000D02*
D03*
Y920000D02*
D03*
Y910000D02*
D03*
Y900000D02*
D03*
Y890000D02*
D03*
D105*
X1195000Y1030000D02*
D03*
D106*
X1618000Y886000D02*
D03*
X1632000Y888000D02*
D03*
X1360000Y910000D02*
D03*
X1356000Y774000D02*
D03*
X1350000Y910000D02*
D03*
Y780000D02*
D03*
X1665000Y695000D02*
D03*
X1580000Y922000D02*
D03*
X1505000Y1070000D02*
D03*
X1242500Y851000D02*
D03*
X1215000Y860000D02*
D03*
X1618000Y612000D02*
D03*
X1366000Y790000D02*
D03*
X1670000Y702000D02*
D03*
X1456000Y782000D02*
D03*
X1376000Y644000D02*
D03*
X1500000Y1040000D02*
D03*
X1552000Y852000D02*
D03*
X1550000Y950000D02*
D03*
X1520000D02*
D03*
X1146000Y780000D02*
D03*
X1360000Y530000D02*
D03*
X1368000Y520000D02*
D03*
X1442000Y490000D02*
D03*
X1404000D02*
D03*
X1670000Y816000D02*
D03*
Y780000D02*
D03*
X1618000Y902000D02*
D03*
X1512000Y556000D02*
D03*
X1580000Y550000D02*
D03*
X1618000Y622000D02*
D03*
X1570000Y785000D02*
D03*
X1366000Y800000D02*
D03*
X1624000Y1046000D02*
D03*
X1578000Y530000D02*
D03*
X1624000Y674000D02*
D03*
X1496000Y510000D02*
D03*
X1624000Y954000D02*
D03*
X1496000Y790000D02*
D03*
X1578000Y810000D02*
D03*
X1575000Y819000D02*
D03*
X1540000Y1019000D02*
D03*
X1530000D02*
D03*
X1232500Y792500D02*
D03*
X1450000Y636000D02*
D03*
X1237000Y803000D02*
D03*
X1270000Y820000D02*
D03*
X1260000Y770000D02*
D03*
X1280000Y820000D02*
D03*
X1290000D02*
D03*
X1160000Y785000D02*
D03*
X1265000Y830000D02*
D03*
X1376000Y713000D02*
D03*
X1615000Y710000D02*
D03*
X1460000Y670000D02*
D03*
X1580000Y665000D02*
D03*
X1212000Y831000D02*
D03*
M02*
