M48
;Layer_Color=6321
;FILE_FORMAT=2:5
INCH,LZ
;TYPE=PLATED
T1F00S00C0.02800
T2F00S00C0.03900
T3F00S00C0.03937
T4F00S00C0.04000
T5F00S00C0.04331
T6F00S00C0.12500
%
T01
X038Y0252
Y0276
Y0304
X023Y029
X038Y0316
Y0344
T02
X0346Y0236
Y0246
Y0256
Y0266
Y0276
Y0286
Y0296
Y0306
X0254
Y0296
Y0286
Y0276
Y0266
Y0256
Y0246
Y0236
Y0316
Y0326
Y0336
Y0346
Y0356
Y0366
Y0376
X0346
Y0366
Y0356
Y0346
Y0336
Y0326
Y0316
T03
X017Y0339
T04
X033Y0236
Y0246
Y0256
Y0266
Y0276
Y0286
Y0296
Y0306
X027
Y0296
Y0286
Y0276
Y0266
Y0256
Y0246
Y0236
Y0316
Y0326
Y0336
Y0346
Y0356
Y0366
Y0376
X033
Y0366
Y0356
Y0346
Y0336
Y0326
Y0316
T05
X042Y0245
Y0255
Y0285
Y0295
X021Y03
Y031
Y027
Y026
Y025
X017Y0259
Y0269
Y0309
Y0319
Y0349
Y0359
Y0369
X021Y032
X042Y0325
Y0335
Y0365
Y0375
T06
X042Y022
X017
Y04
X042
M30
