G04 Layer_Color=8150272*
%FSLAX25Y25*%
%MOIN*%
G70*
G01*
G75*
%ADD83C,0.07493*%
%ADD84R,0.07493X0.07493*%
%ADD85R,0.06800X0.06800*%
%ADD86C,0.06800*%
%ADD87R,0.07887X0.07887*%
%ADD88C,0.07800*%
%ADD89C,0.15800*%
%ADD90C,0.05800*%
%ADD91R,0.08300X0.08300*%
%ADD92C,0.08300*%
%ADD93C,0.10800*%
%ADD94R,0.06300X0.05800*%
%ADD95O,0.06300X0.05800*%
D83*
X386000Y436000D02*
D03*
Y426000D02*
D03*
D84*
Y416000D02*
D03*
D85*
X390000Y354000D02*
D03*
X400000Y376000D02*
D03*
X484000Y206000D02*
D03*
D86*
X400000Y354000D02*
D03*
X390000Y376000D02*
D03*
X528185Y256500D02*
D03*
X518000Y266000D02*
D03*
X508500Y256500D02*
D03*
X484000Y196000D02*
D03*
Y186000D02*
D03*
Y176000D02*
D03*
Y166000D02*
D03*
Y156000D02*
D03*
Y146000D02*
D03*
Y136000D02*
D03*
X514000Y206000D02*
D03*
Y196000D02*
D03*
Y186000D02*
D03*
Y176000D02*
D03*
Y166000D02*
D03*
Y156000D02*
D03*
Y146000D02*
D03*
Y136000D02*
D03*
D87*
X560000Y330000D02*
D03*
X558000Y250000D02*
D03*
D88*
X560000Y340000D02*
D03*
X558000Y260000D02*
D03*
D89*
X390000Y330000D02*
D03*
X480000Y340000D02*
D03*
X450000Y196000D02*
D03*
X480000Y260000D02*
D03*
X450000Y506000D02*
D03*
X590000Y436000D02*
D03*
X532000Y496000D02*
D03*
X590000Y504000D02*
D03*
X550000Y410000D02*
D03*
X450000Y370000D02*
D03*
X406000Y412000D02*
D03*
Y438000D02*
D03*
X450000Y290000D02*
D03*
X600000Y110000D02*
D03*
X300000D02*
D03*
X600000Y530000D02*
D03*
X300000D02*
D03*
D90*
X510000Y306000D02*
D03*
X520000D02*
D03*
X530000D02*
D03*
X438000Y354000D02*
D03*
X428000Y320000D02*
D03*
X415000Y315000D02*
D03*
X450000Y400000D02*
D03*
X460000Y424000D02*
D03*
X444000Y440000D02*
D03*
X554000Y320000D02*
D03*
X510000Y328000D02*
D03*
X464000Y330000D02*
D03*
X538000Y516000D02*
D03*
X558000Y490000D02*
D03*
D91*
X560000Y190000D02*
D03*
D92*
X570000D02*
D03*
X560000Y180000D02*
D03*
X570000D02*
D03*
X560000Y170000D02*
D03*
X570000D02*
D03*
X560000Y160000D02*
D03*
X570000D02*
D03*
X560000Y150000D02*
D03*
X570000D02*
D03*
D93*
X590000Y460157D02*
D03*
Y479843D02*
D03*
Y380157D02*
D03*
Y399843D02*
D03*
D94*
X300000Y360000D02*
D03*
D95*
Y350000D02*
D03*
Y340000D02*
D03*
Y330000D02*
D03*
Y320000D02*
D03*
Y310000D02*
D03*
Y300000D02*
D03*
Y290000D02*
D03*
Y280000D02*
D03*
Y270000D02*
D03*
Y260000D02*
D03*
Y250000D02*
D03*
Y240000D02*
D03*
Y230000D02*
D03*
Y220000D02*
D03*
X360000Y360000D02*
D03*
Y350000D02*
D03*
Y340000D02*
D03*
Y330000D02*
D03*
Y320000D02*
D03*
Y310000D02*
D03*
Y300000D02*
D03*
Y290000D02*
D03*
Y280000D02*
D03*
Y270000D02*
D03*
Y260000D02*
D03*
Y250000D02*
D03*
Y240000D02*
D03*
Y230000D02*
D03*
Y220000D02*
D03*
M02*
