G04 Layer_Physical_Order=2*
G04 Layer_Color=11436288*
%FSLAX25Y25*%
%MOIN*%
G70*
G01*
G75*
%ADD36C,0.01000*%
%ADD37C,0.08000*%
%ADD38C,0.06693*%
%ADD39R,0.06693X0.06693*%
%ADD40R,0.06000X0.06000*%
%ADD41C,0.06000*%
%ADD42R,0.07087X0.07087*%
%ADD43C,0.07000*%
%ADD44C,0.15000*%
%ADD45C,0.05000*%
%ADD46R,0.07500X0.07500*%
%ADD47C,0.07500*%
%ADD48C,0.10000*%
%ADD49R,0.05500X0.05000*%
%ADD50O,0.05500X0.05000*%
G36*
X620000Y90000D02*
X620000Y90000D01*
X620000Y90000D01*
X280000D01*
Y550000D01*
X620000D01*
Y90000D01*
D02*
G37*
%LPC*%
G36*
X360250Y263026D02*
X359750D01*
X358967Y262923D01*
X358237Y262620D01*
X357610Y262140D01*
X357130Y261513D01*
X356827Y260783D01*
X356724Y260000D01*
X356827Y259217D01*
X357130Y258487D01*
X357610Y257860D01*
X358237Y257380D01*
X358967Y257077D01*
X359750Y256974D01*
X360250D01*
X361033Y257077D01*
X361763Y257380D01*
X362390Y257860D01*
X362871Y258487D01*
X363173Y259217D01*
X363276Y260000D01*
X363173Y260783D01*
X362871Y261513D01*
X362390Y262140D01*
X361763Y262620D01*
X361033Y262923D01*
X360250Y263026D01*
D02*
G37*
G36*
X558000Y264035D02*
X556956Y263897D01*
X555983Y263494D01*
X555147Y262853D01*
X554506Y262017D01*
X554103Y261044D01*
X553966Y260000D01*
X554103Y258956D01*
X554506Y257983D01*
X555147Y257147D01*
X555983Y256506D01*
X556956Y256103D01*
X558000Y255965D01*
X559044Y256103D01*
X560017Y256506D01*
X560853Y257147D01*
X561494Y257983D01*
X561897Y258956D01*
X562035Y260000D01*
X561897Y261044D01*
X561494Y262017D01*
X560853Y262853D01*
X560017Y263494D01*
X559044Y263897D01*
X558000Y264035D01*
D02*
G37*
G36*
X518000Y269530D02*
X517086Y269410D01*
X516235Y269057D01*
X515504Y268496D01*
X514943Y267765D01*
X514590Y266914D01*
X514470Y266000D01*
X514590Y265086D01*
X514943Y264235D01*
X515504Y263504D01*
X516235Y262943D01*
X517086Y262590D01*
X518000Y262470D01*
X518914Y262590D01*
X519765Y262943D01*
X520496Y263504D01*
X521057Y264235D01*
X521410Y265086D01*
X521530Y266000D01*
X521410Y266914D01*
X521057Y267765D01*
X520496Y268496D01*
X519765Y269057D01*
X518914Y269410D01*
X518000Y269530D01*
D02*
G37*
G36*
X450000Y298039D02*
X448432Y297884D01*
X446924Y297427D01*
X445534Y296684D01*
X444316Y295684D01*
X443316Y294466D01*
X442573Y293076D01*
X442116Y291568D01*
X441961Y290000D01*
X442116Y288432D01*
X442573Y286924D01*
X443316Y285534D01*
X444316Y284316D01*
X445534Y283316D01*
X446924Y282573D01*
X448432Y282116D01*
X450000Y281961D01*
X451568Y282116D01*
X453076Y282573D01*
X454466Y283316D01*
X455684Y284316D01*
X456684Y285534D01*
X457427Y286924D01*
X457884Y288432D01*
X458039Y290000D01*
X457884Y291568D01*
X457427Y293076D01*
X456684Y294466D01*
X455684Y295684D01*
X454466Y296684D01*
X453076Y297427D01*
X451568Y297884D01*
X450000Y298039D01*
D02*
G37*
G36*
X300250Y293026D02*
X299750D01*
X298967Y292923D01*
X298237Y292620D01*
X297610Y292140D01*
X297130Y291513D01*
X296827Y290783D01*
X296724Y290000D01*
X296827Y289217D01*
X297130Y288487D01*
X297610Y287860D01*
X298237Y287380D01*
X298967Y287077D01*
X299750Y286974D01*
X300250D01*
X301033Y287077D01*
X301763Y287380D01*
X302390Y287860D01*
X302870Y288487D01*
X303075Y288980D01*
X305578D01*
X313480Y281078D01*
Y274615D01*
X313018Y274424D01*
X306721Y280721D01*
X306390Y280942D01*
X306000Y281020D01*
X303075D01*
X302870Y281513D01*
X302390Y282140D01*
X301763Y282621D01*
X301033Y282923D01*
X300250Y283026D01*
X299750D01*
X298967Y282923D01*
X298237Y282621D01*
X297610Y282140D01*
X297130Y281513D01*
X296827Y280783D01*
X296724Y280000D01*
X296827Y279217D01*
X297130Y278487D01*
X297610Y277860D01*
X298237Y277379D01*
X298967Y277077D01*
X299750Y276974D01*
X300250D01*
X301033Y277077D01*
X301763Y277379D01*
X302390Y277860D01*
X302870Y278487D01*
X303075Y278980D01*
X305578D01*
X311980Y272578D01*
Y266115D01*
X311519Y265924D01*
X307100Y270342D01*
X306769Y270563D01*
X306379Y270641D01*
X303191D01*
X303173Y270783D01*
X302870Y271513D01*
X302390Y272140D01*
X301763Y272621D01*
X301033Y272923D01*
X300250Y273026D01*
X299750D01*
X298967Y272923D01*
X298237Y272621D01*
X297610Y272140D01*
X297130Y271513D01*
X296827Y270783D01*
X296724Y270000D01*
X296827Y269217D01*
X297130Y268487D01*
X297610Y267860D01*
X298237Y267379D01*
X298967Y267077D01*
X299750Y266974D01*
X300250D01*
X301033Y267077D01*
X301763Y267379D01*
X302390Y267860D01*
X302870Y268487D01*
X302918Y268602D01*
X305956D01*
X310480Y264078D01*
Y257615D01*
X310018Y257423D01*
X306721Y260721D01*
X306390Y260942D01*
X306000Y261020D01*
X303075D01*
X302870Y261513D01*
X302390Y262140D01*
X301763Y262620D01*
X301033Y262923D01*
X300250Y263026D01*
X299750D01*
X298967Y262923D01*
X298237Y262620D01*
X297610Y262140D01*
X297130Y261513D01*
X296827Y260783D01*
X296724Y260000D01*
X296827Y259217D01*
X297130Y258487D01*
X297610Y257860D01*
X298237Y257380D01*
X298967Y257077D01*
X299750Y256974D01*
X300250D01*
X301033Y257077D01*
X301763Y257380D01*
X302390Y257860D01*
X302870Y258487D01*
X303075Y258980D01*
X305578D01*
X308980Y255578D01*
Y168000D01*
X309058Y167610D01*
X309279Y167279D01*
X321279Y155279D01*
X321610Y155058D01*
X322000Y154980D01*
X480634D01*
X480943Y154235D01*
X481504Y153504D01*
X482235Y152943D01*
X483086Y152590D01*
X484000Y152470D01*
X484914Y152590D01*
X485765Y152943D01*
X486496Y153504D01*
X487057Y154235D01*
X487410Y155086D01*
X487530Y156000D01*
X487410Y156914D01*
X487057Y157765D01*
X486496Y158496D01*
X485765Y159057D01*
X484914Y159410D01*
X484378Y159480D01*
X484411Y159980D01*
X488578D01*
X510899Y137659D01*
X510590Y136914D01*
X510470Y136000D01*
X510590Y135086D01*
X510943Y134235D01*
X511504Y133504D01*
X512235Y132943D01*
X513086Y132590D01*
X514000Y132470D01*
X514914Y132590D01*
X515765Y132943D01*
X516496Y133504D01*
X517057Y134235D01*
X517410Y135086D01*
X517530Y136000D01*
X517410Y136914D01*
X517057Y137765D01*
X516496Y138496D01*
X515765Y139057D01*
X514914Y139410D01*
X514000Y139530D01*
X513086Y139410D01*
X512341Y139101D01*
X489721Y161721D01*
X489390Y161942D01*
X489000Y162020D01*
X484411D01*
X484378Y162520D01*
X484914Y162590D01*
X485765Y162943D01*
X486496Y163504D01*
X487057Y164235D01*
X487410Y165086D01*
X487530Y166000D01*
X487410Y166914D01*
X487057Y167765D01*
X486496Y168496D01*
X485765Y169057D01*
X484914Y169410D01*
X484378Y169480D01*
X484411Y169980D01*
X488578D01*
X510899Y147659D01*
X510590Y146914D01*
X510470Y146000D01*
X510590Y145086D01*
X510943Y144235D01*
X511504Y143504D01*
X512235Y142943D01*
X513086Y142590D01*
X514000Y142470D01*
X514914Y142590D01*
X515765Y142943D01*
X516496Y143504D01*
X517057Y144235D01*
X517410Y145086D01*
X517530Y146000D01*
X517410Y146914D01*
X517057Y147765D01*
X516496Y148496D01*
X515765Y149057D01*
X514914Y149410D01*
X514000Y149530D01*
X513086Y149410D01*
X512341Y149101D01*
X489721Y171721D01*
X489390Y171942D01*
X489000Y172020D01*
X484411D01*
X484378Y172520D01*
X484914Y172590D01*
X485765Y172943D01*
X486496Y173504D01*
X487057Y174235D01*
X487410Y175086D01*
X487530Y176000D01*
X487410Y176914D01*
X487057Y177765D01*
X486496Y178496D01*
X485765Y179057D01*
X484914Y179410D01*
X484378Y179480D01*
X484411Y179980D01*
X487578D01*
X488980Y178578D01*
Y176000D01*
X489058Y175610D01*
X489279Y175279D01*
X509279Y155279D01*
X509610Y155058D01*
X510000Y154980D01*
X510634D01*
X510943Y154235D01*
X511504Y153504D01*
X512235Y152943D01*
X513086Y152590D01*
X514000Y152470D01*
X514914Y152590D01*
X515765Y152943D01*
X516496Y153504D01*
X517057Y154235D01*
X517410Y155086D01*
X517530Y156000D01*
X517410Y156914D01*
X517057Y157765D01*
X516496Y158496D01*
X515765Y159057D01*
X514914Y159410D01*
X514378Y159480D01*
X514411Y159980D01*
X548578D01*
X556343Y152215D01*
X556288Y152143D01*
X555859Y151110D01*
X555713Y150000D01*
X555859Y148890D01*
X556288Y147857D01*
X556969Y146969D01*
X557857Y146288D01*
X558890Y145859D01*
X560000Y145713D01*
X561109Y145859D01*
X562143Y146288D01*
X563031Y146969D01*
X563712Y147857D01*
X564141Y148890D01*
X564287Y150000D01*
X564141Y151110D01*
X563712Y152143D01*
X563031Y153031D01*
X562143Y153712D01*
X561109Y154141D01*
X560000Y154287D01*
X558890Y154141D01*
X557857Y153712D01*
X557785Y153657D01*
X549721Y161721D01*
X549390Y161942D01*
X549000Y162020D01*
X514411D01*
X514378Y162520D01*
X514914Y162590D01*
X515765Y162943D01*
X516496Y163504D01*
X517057Y164235D01*
X517366Y164980D01*
X553578D01*
X556343Y162215D01*
X556288Y162143D01*
X555859Y161109D01*
X555713Y160000D01*
X555859Y158890D01*
X556288Y157857D01*
X556969Y156969D01*
X557857Y156288D01*
X558890Y155859D01*
X560000Y155713D01*
X561109Y155859D01*
X562143Y156288D01*
X563031Y156969D01*
X563712Y157857D01*
X564141Y158890D01*
X564287Y160000D01*
X564141Y161109D01*
X563712Y162143D01*
X563031Y163031D01*
X562143Y163712D01*
X561109Y164141D01*
X560000Y164287D01*
X558890Y164141D01*
X557857Y163712D01*
X557785Y163657D01*
X554721Y166721D01*
X554390Y166942D01*
X554000Y167020D01*
X517366D01*
X517057Y167765D01*
X516496Y168496D01*
X515765Y169057D01*
X514914Y169410D01*
X514000Y169530D01*
X513086Y169410D01*
X512235Y169057D01*
X511504Y168496D01*
X510943Y167765D01*
X510590Y166914D01*
X510470Y166000D01*
X510590Y165086D01*
X510943Y164235D01*
X511504Y163504D01*
X512235Y162943D01*
X513086Y162590D01*
X513622Y162520D01*
X513589Y162020D01*
X511422D01*
X504020Y169422D01*
Y187000D01*
X503942Y187390D01*
X503721Y187721D01*
X487500Y203942D01*
Y209500D01*
X480500D01*
Y202500D01*
X486058D01*
X501980Y186578D01*
Y169000D01*
X502058Y168610D01*
X502279Y168279D01*
X510279Y160279D01*
X510610Y160058D01*
X511000Y159980D01*
X513589D01*
X513622Y159480D01*
X513086Y159410D01*
X512235Y159057D01*
X511504Y158496D01*
X510943Y157765D01*
X510778Y157368D01*
X510189Y157253D01*
X491020Y176422D01*
Y179000D01*
X490942Y179390D01*
X490721Y179721D01*
X488721Y181721D01*
X488390Y181942D01*
X488000Y182020D01*
X484411D01*
X484378Y182520D01*
X484914Y182590D01*
X485765Y182943D01*
X486496Y183504D01*
X487057Y184235D01*
X487410Y185086D01*
X487530Y186000D01*
X487410Y186914D01*
X487057Y187765D01*
X486496Y188496D01*
X485765Y189057D01*
X484914Y189410D01*
X484000Y189530D01*
X483086Y189410D01*
X482341Y189101D01*
X400721Y270721D01*
X400390Y270942D01*
X400000Y271020D01*
X363075D01*
X362871Y271513D01*
X362390Y272140D01*
X361763Y272621D01*
X361033Y272923D01*
X360250Y273026D01*
X359750D01*
X358967Y272923D01*
X358237Y272621D01*
X357610Y272140D01*
X357130Y271513D01*
X356827Y270783D01*
X356724Y270000D01*
X356827Y269217D01*
X357130Y268487D01*
X357610Y267860D01*
X358237Y267379D01*
X358967Y267077D01*
X359750Y266974D01*
X360250D01*
X361033Y267077D01*
X361763Y267379D01*
X362390Y267860D01*
X362871Y268487D01*
X363075Y268980D01*
X399578D01*
X480899Y187659D01*
X480590Y186914D01*
X480470Y186000D01*
X480590Y185086D01*
X480943Y184235D01*
X481504Y183504D01*
X482235Y182943D01*
X483086Y182590D01*
X483622Y182520D01*
X483589Y182020D01*
X316922D01*
X315520Y183422D01*
Y281500D01*
X315442Y281890D01*
X315221Y282221D01*
X306721Y290721D01*
X306390Y290942D01*
X306000Y291020D01*
X303075D01*
X302870Y291513D01*
X302390Y292140D01*
X301763Y292620D01*
X301033Y292923D01*
X300250Y293026D01*
D02*
G37*
G36*
X508500Y260030D02*
X507586Y259910D01*
X506735Y259557D01*
X506004Y258996D01*
X505443Y258265D01*
X505090Y257414D01*
X504970Y256500D01*
X505090Y255586D01*
X505443Y254735D01*
X506004Y254004D01*
X506735Y253443D01*
X507586Y253090D01*
X508500Y252970D01*
X509414Y253090D01*
X510265Y253443D01*
X510996Y254004D01*
X511557Y254735D01*
X511910Y255586D01*
X512030Y256500D01*
X511910Y257414D01*
X511557Y258265D01*
X510996Y258996D01*
X510265Y259557D01*
X509414Y259910D01*
X508500Y260030D01*
D02*
G37*
G36*
X562043Y254043D02*
X553957D01*
Y245957D01*
X562043D01*
Y254043D01*
D02*
G37*
G36*
X360250Y243026D02*
X359750D01*
X358967Y242923D01*
X358237Y242620D01*
X357610Y242140D01*
X357130Y241513D01*
X356827Y240783D01*
X356724Y240000D01*
X356827Y239217D01*
X357130Y238487D01*
X357610Y237860D01*
X358237Y237380D01*
X358967Y237077D01*
X359750Y236974D01*
X360250D01*
X361033Y237077D01*
X361763Y237380D01*
X362390Y237860D01*
X362871Y238487D01*
X363173Y239217D01*
X363276Y240000D01*
X363173Y240783D01*
X362871Y241513D01*
X362390Y242140D01*
X361763Y242620D01*
X361033Y242923D01*
X360250Y243026D01*
D02*
G37*
G36*
X300250Y253026D02*
X299750D01*
X298967Y252923D01*
X298237Y252621D01*
X297610Y252140D01*
X297130Y251513D01*
X296827Y250783D01*
X296724Y250000D01*
X296827Y249217D01*
X297130Y248487D01*
X297610Y247860D01*
X298237Y247379D01*
X298967Y247077D01*
X299750Y246974D01*
X300250D01*
X301033Y247077D01*
X301763Y247379D01*
X302390Y247860D01*
X302870Y248487D01*
X303173Y249217D01*
X303276Y250000D01*
X303173Y250783D01*
X302870Y251513D01*
X302390Y252140D01*
X301763Y252621D01*
X301033Y252923D01*
X300250Y253026D01*
D02*
G37*
G36*
X360250Y283026D02*
X359750D01*
X358967Y282923D01*
X358237Y282621D01*
X357610Y282140D01*
X357130Y281513D01*
X356827Y280783D01*
X356724Y280000D01*
X356827Y279217D01*
X357130Y278487D01*
X357610Y277860D01*
X358237Y277379D01*
X358967Y277077D01*
X359750Y276974D01*
X360250D01*
X361033Y277077D01*
X361763Y277379D01*
X362390Y277860D01*
X362871Y278487D01*
X363075Y278980D01*
X525578D01*
X527165Y277393D01*
Y259866D01*
X526420Y259557D01*
X525689Y258996D01*
X525128Y258265D01*
X524775Y257414D01*
X524655Y256500D01*
X524775Y255586D01*
X525128Y254735D01*
X525689Y254004D01*
X526420Y253443D01*
X526980Y253211D01*
Y252422D01*
X525578Y251020D01*
X490422D01*
X486334Y255108D01*
X486684Y255534D01*
X487427Y256924D01*
X487884Y258432D01*
X488039Y260000D01*
X487884Y261568D01*
X487427Y263076D01*
X486684Y264466D01*
X485684Y265684D01*
X484466Y266684D01*
X483076Y267427D01*
X481568Y267884D01*
X480000Y268039D01*
X478432Y267884D01*
X476924Y267427D01*
X475534Y266684D01*
X474316Y265684D01*
X473316Y264466D01*
X472573Y263076D01*
X472116Y261568D01*
X471961Y260000D01*
X472116Y258432D01*
X472573Y256924D01*
X473316Y255534D01*
X474316Y254316D01*
X475534Y253316D01*
X476924Y252573D01*
X478432Y252116D01*
X480000Y251961D01*
X481568Y252116D01*
X483076Y252573D01*
X484466Y253316D01*
X484892Y253666D01*
X489279Y249279D01*
X489610Y249058D01*
X490000Y248980D01*
X526000D01*
X526390Y249058D01*
X526721Y249279D01*
X528721Y251279D01*
X528942Y251610D01*
X529020Y252000D01*
Y253080D01*
X529099Y253090D01*
X529950Y253443D01*
X530681Y254004D01*
X531242Y254735D01*
X531595Y255586D01*
X531715Y256500D01*
X531595Y257414D01*
X531242Y258265D01*
X530681Y258996D01*
X529950Y259557D01*
X529205Y259866D01*
Y277815D01*
X529127Y278205D01*
X528906Y278536D01*
X526721Y280721D01*
X526390Y280942D01*
X526000Y281020D01*
X363075D01*
X362871Y281513D01*
X362390Y282140D01*
X361763Y282621D01*
X361033Y282923D01*
X360250Y283026D01*
D02*
G37*
G36*
Y253026D02*
X359750D01*
X358967Y252923D01*
X358237Y252621D01*
X357610Y252140D01*
X357130Y251513D01*
X356827Y250783D01*
X356724Y250000D01*
X356827Y249217D01*
X357130Y248487D01*
X357610Y247860D01*
X358237Y247379D01*
X358967Y247077D01*
X359750Y246974D01*
X360250D01*
X361033Y247077D01*
X361763Y247379D01*
X362390Y247860D01*
X362871Y248487D01*
X363173Y249217D01*
X363276Y250000D01*
X363173Y250783D01*
X362871Y251513D01*
X362390Y252140D01*
X361763Y252621D01*
X361033Y252923D01*
X360250Y253026D01*
D02*
G37*
G36*
X300250Y303026D02*
X299750D01*
X298967Y302923D01*
X298237Y302621D01*
X297610Y302140D01*
X297130Y301513D01*
X296827Y300783D01*
X296724Y300000D01*
X296827Y299217D01*
X297130Y298487D01*
X297610Y297860D01*
X298237Y297379D01*
X298967Y297077D01*
X299750Y296974D01*
X300250D01*
X301033Y297077D01*
X301763Y297379D01*
X302390Y297860D01*
X302870Y298487D01*
X303173Y299217D01*
X303276Y300000D01*
X303173Y300783D01*
X302870Y301513D01*
X302390Y302140D01*
X301763Y302621D01*
X301033Y302923D01*
X300250Y303026D01*
D02*
G37*
G36*
X360250Y323026D02*
X359750D01*
X358967Y322923D01*
X358237Y322621D01*
X357610Y322140D01*
X357130Y321513D01*
X356827Y320783D01*
X356724Y320000D01*
X356827Y319217D01*
X357130Y318487D01*
X357610Y317860D01*
X358237Y317379D01*
X358967Y317077D01*
X359750Y316974D01*
X360250D01*
X361033Y317077D01*
X361763Y317379D01*
X362390Y317860D01*
X362871Y318487D01*
X363173Y319217D01*
X363276Y320000D01*
X363173Y320783D01*
X362871Y321513D01*
X362390Y322140D01*
X361763Y322621D01*
X361033Y322923D01*
X360250Y323026D01*
D02*
G37*
G36*
X300250D02*
X299750D01*
X298967Y322923D01*
X298237Y322621D01*
X297610Y322140D01*
X297130Y321513D01*
X296827Y320783D01*
X296724Y320000D01*
X296827Y319217D01*
X297130Y318487D01*
X297610Y317860D01*
X298237Y317379D01*
X298967Y317077D01*
X299750Y316974D01*
X300250D01*
X301033Y317077D01*
X301763Y317379D01*
X302390Y317860D01*
X302870Y318487D01*
X303173Y319217D01*
X303276Y320000D01*
X303173Y320783D01*
X302870Y321513D01*
X302390Y322140D01*
X301763Y322621D01*
X301033Y322923D01*
X300250Y323026D01*
D02*
G37*
G36*
X438000Y357026D02*
X437217Y356923D01*
X436487Y356621D01*
X435860Y356140D01*
X435380Y355513D01*
X435077Y354783D01*
X434974Y354000D01*
X435077Y353217D01*
X435380Y352487D01*
X435860Y351860D01*
X436487Y351379D01*
X436980Y351175D01*
Y308000D01*
X437058Y307610D01*
X437279Y307279D01*
X440577Y303981D01*
X440385Y303520D01*
X372500D01*
X372110Y303442D01*
X371779Y303221D01*
X361350Y292792D01*
X361033Y292923D01*
X360250Y293026D01*
X359750D01*
X358967Y292923D01*
X358237Y292620D01*
X357610Y292140D01*
X357130Y291513D01*
X356827Y290783D01*
X356724Y290000D01*
X356827Y289217D01*
X357130Y288487D01*
X357610Y287860D01*
X358237Y287380D01*
X358967Y287077D01*
X359750Y286974D01*
X360250D01*
X361033Y287077D01*
X361763Y287380D01*
X362390Y287860D01*
X362871Y288487D01*
X363173Y289217D01*
X363276Y290000D01*
X363173Y290783D01*
X362895Y291453D01*
X372922Y301480D01*
X486621D01*
X487011Y301558D01*
X487342Y301779D01*
X504544Y318980D01*
X551175D01*
X551379Y318487D01*
X551860Y317860D01*
X552487Y317379D01*
X553217Y317077D01*
X554000Y316974D01*
X554783Y317077D01*
X555513Y317379D01*
X556140Y317860D01*
X556621Y318487D01*
X556923Y319217D01*
X557026Y320000D01*
X556923Y320783D01*
X556621Y321513D01*
X556140Y322140D01*
X555513Y322621D01*
X554783Y322923D01*
X554000Y323026D01*
X553217Y322923D01*
X552724Y322718D01*
X534721Y340721D01*
X534390Y340942D01*
X534000Y341020D01*
X487938D01*
X487884Y341568D01*
X487427Y343076D01*
X486684Y344466D01*
X485684Y345684D01*
X484466Y346684D01*
X483076Y347427D01*
X481568Y347884D01*
X480000Y348039D01*
X478432Y347884D01*
X476924Y347427D01*
X475534Y346684D01*
X474316Y345684D01*
X473316Y344466D01*
X472573Y343076D01*
X472116Y341568D01*
X471961Y340000D01*
X472116Y338432D01*
X472573Y336924D01*
X473316Y335534D01*
X474316Y334316D01*
X475534Y333316D01*
X476924Y332573D01*
X478432Y332116D01*
X480000Y331961D01*
X481568Y332116D01*
X483076Y332573D01*
X484466Y333316D01*
X485684Y334316D01*
X486684Y335534D01*
X487427Y336924D01*
X487884Y338432D01*
X487938Y338980D01*
X533578D01*
X551039Y321520D01*
X550831Y321020D01*
X505115D01*
X504923Y321481D01*
X508723Y325282D01*
X509217Y325077D01*
X510000Y324974D01*
X510783Y325077D01*
X511513Y325379D01*
X512140Y325860D01*
X512620Y326487D01*
X512923Y327217D01*
X513026Y328000D01*
X512923Y328783D01*
X512620Y329513D01*
X512140Y330140D01*
X511513Y330621D01*
X510783Y330923D01*
X510000Y331026D01*
X509217Y330923D01*
X508487Y330621D01*
X507860Y330140D01*
X507379Y329513D01*
X507077Y328783D01*
X506974Y328000D01*
X507077Y327217D01*
X507282Y326724D01*
X485578Y305020D01*
X442422D01*
X439020Y308422D01*
Y351175D01*
X439513Y351379D01*
X440140Y351860D01*
X440621Y352487D01*
X440923Y353217D01*
X441026Y354000D01*
X440923Y354783D01*
X440621Y355513D01*
X440140Y356140D01*
X439513Y356621D01*
X438783Y356923D01*
X438000Y357026D01*
D02*
G37*
G36*
X559500Y329500D02*
X555457D01*
Y325457D01*
X559500D01*
Y329500D01*
D02*
G37*
G36*
X390000Y338039D02*
X388432Y337884D01*
X386924Y337427D01*
X385534Y336684D01*
X384316Y335684D01*
X383316Y334466D01*
X382573Y333076D01*
X382116Y331568D01*
X381961Y330000D01*
X382116Y328432D01*
X382573Y326924D01*
X383316Y325534D01*
X384316Y324316D01*
X385534Y323316D01*
X386924Y322573D01*
X388432Y322116D01*
X390000Y321961D01*
X391568Y322116D01*
X393076Y322573D01*
X394466Y323316D01*
X395684Y324316D01*
X396684Y325534D01*
X397427Y326924D01*
X397884Y328432D01*
X398039Y330000D01*
X397884Y331568D01*
X397427Y333076D01*
X396684Y334466D01*
X395684Y335684D01*
X394466Y336684D01*
X393076Y337427D01*
X391568Y337884D01*
X390000Y338039D01*
D02*
G37*
G36*
X363714Y349500D02*
X356286D01*
X356340Y349086D01*
X356693Y348235D01*
X357254Y347504D01*
X357985Y346943D01*
X358836Y346590D01*
X359372Y346520D01*
X359339Y346020D01*
X341000D01*
X340610Y345942D01*
X340279Y345721D01*
X305578Y311020D01*
X303075D01*
X302870Y311513D01*
X302390Y312140D01*
X301763Y312620D01*
X301033Y312923D01*
X300250Y313026D01*
X299750D01*
X298967Y312923D01*
X298237Y312620D01*
X297610Y312140D01*
X297130Y311513D01*
X296827Y310783D01*
X296724Y310000D01*
X296827Y309217D01*
X297130Y308487D01*
X297610Y307860D01*
X298237Y307380D01*
X298967Y307077D01*
X299750Y306974D01*
X300250D01*
X301033Y307077D01*
X301763Y307380D01*
X302390Y307860D01*
X302870Y308487D01*
X303075Y308980D01*
X306000D01*
X306390Y309058D01*
X306721Y309279D01*
X341422Y343980D01*
X399578D01*
X400980Y342578D01*
Y310000D01*
X401058Y309610D01*
X401279Y309279D01*
X403279Y307279D01*
X403610Y307058D01*
X404000Y306980D01*
X426000D01*
X426390Y307058D01*
X426721Y307279D01*
X428721Y309279D01*
X428942Y309610D01*
X429020Y310000D01*
Y317175D01*
X429513Y317379D01*
X430140Y317860D01*
X430620Y318487D01*
X430923Y319217D01*
X431026Y320000D01*
X430923Y320783D01*
X430620Y321513D01*
X430140Y322140D01*
X429513Y322621D01*
X428783Y322923D01*
X428000Y323026D01*
X427217Y322923D01*
X426487Y322621D01*
X425860Y322140D01*
X425380Y321513D01*
X425077Y320783D01*
X424974Y320000D01*
X425077Y319217D01*
X425380Y318487D01*
X425860Y317860D01*
X426487Y317379D01*
X426980Y317175D01*
Y310422D01*
X425578Y309020D01*
X404422D01*
X403020Y310422D01*
Y343000D01*
X402942Y343390D01*
X402721Y343721D01*
X400721Y345721D01*
X400390Y345942D01*
X400000Y346020D01*
X360661D01*
X360628Y346520D01*
X361164Y346590D01*
X362015Y346943D01*
X362746Y347504D01*
X363307Y348235D01*
X363660Y349086D01*
X363714Y349500D01*
D02*
G37*
G36*
X510000Y309026D02*
X509217Y308923D01*
X508487Y308621D01*
X507860Y308140D01*
X507379Y307513D01*
X507077Y306783D01*
X506974Y306000D01*
X507077Y305217D01*
X507379Y304487D01*
X507860Y303860D01*
X508487Y303380D01*
X509217Y303077D01*
X510000Y302974D01*
X510783Y303077D01*
X511513Y303380D01*
X512140Y303860D01*
X512620Y304487D01*
X512923Y305217D01*
X513026Y306000D01*
X512923Y306783D01*
X512620Y307513D01*
X512140Y308140D01*
X511513Y308621D01*
X510783Y308923D01*
X510000Y309026D01*
D02*
G37*
G36*
X360250Y303026D02*
X359750D01*
X358967Y302923D01*
X358237Y302621D01*
X357610Y302140D01*
X357130Y301513D01*
X356827Y300783D01*
X356724Y300000D01*
X356827Y299217D01*
X357130Y298487D01*
X357610Y297860D01*
X358237Y297379D01*
X358967Y297077D01*
X359750Y296974D01*
X360250D01*
X361033Y297077D01*
X361763Y297379D01*
X362390Y297860D01*
X362871Y298487D01*
X363173Y299217D01*
X363276Y300000D01*
X363173Y300783D01*
X362871Y301513D01*
X362390Y302140D01*
X361763Y302621D01*
X361033Y302923D01*
X360250Y303026D01*
D02*
G37*
G36*
X520000Y309026D02*
X519217Y308923D01*
X518487Y308621D01*
X517860Y308140D01*
X517380Y307513D01*
X517077Y306783D01*
X516974Y306000D01*
X517077Y305217D01*
X517380Y304487D01*
X517860Y303860D01*
X518487Y303380D01*
X519217Y303077D01*
X520000Y302974D01*
X520783Y303077D01*
X521513Y303380D01*
X522140Y303860D01*
X522620Y304487D01*
X522923Y305217D01*
X523026Y306000D01*
X522923Y306783D01*
X522620Y307513D01*
X522140Y308140D01*
X521513Y308621D01*
X520783Y308923D01*
X520000Y309026D01*
D02*
G37*
G36*
X360250Y313026D02*
X359750D01*
X358967Y312923D01*
X358237Y312620D01*
X357610Y312140D01*
X357130Y311513D01*
X356827Y310783D01*
X356724Y310000D01*
X356827Y309217D01*
X357130Y308487D01*
X357610Y307860D01*
X358237Y307380D01*
X358967Y307077D01*
X359750Y306974D01*
X360250D01*
X361033Y307077D01*
X361763Y307380D01*
X362390Y307860D01*
X362871Y308487D01*
X363173Y309217D01*
X363276Y310000D01*
X363173Y310783D01*
X362871Y311513D01*
X362390Y312140D01*
X361763Y312620D01*
X361033Y312923D01*
X360250Y313026D01*
D02*
G37*
G36*
X530000Y309026D02*
X529217Y308923D01*
X528487Y308621D01*
X527860Y308140D01*
X527380Y307513D01*
X527077Y306783D01*
X526974Y306000D01*
X527077Y305217D01*
X527380Y304487D01*
X527860Y303860D01*
X528487Y303380D01*
X529217Y303077D01*
X530000Y302974D01*
X530783Y303077D01*
X531513Y303380D01*
X532140Y303860D01*
X532620Y304487D01*
X532923Y305217D01*
X533026Y306000D01*
X532923Y306783D01*
X532620Y307513D01*
X532140Y308140D01*
X531513Y308621D01*
X530783Y308923D01*
X530000Y309026D01*
D02*
G37*
G36*
X300250Y243026D02*
X299750D01*
X298967Y242923D01*
X298237Y242620D01*
X297610Y242140D01*
X297130Y241513D01*
X296827Y240783D01*
X296724Y240000D01*
X296827Y239217D01*
X297130Y238487D01*
X297610Y237860D01*
X298237Y237380D01*
X298967Y237077D01*
X299750Y236974D01*
X300250D01*
X301033Y237077D01*
X301763Y237380D01*
X302390Y237860D01*
X302870Y238487D01*
X303173Y239217D01*
X303276Y240000D01*
X303173Y240783D01*
X302870Y241513D01*
X302390Y242140D01*
X301763Y242620D01*
X301033Y242923D01*
X300250Y243026D01*
D02*
G37*
G36*
X487969Y145500D02*
X484500D01*
Y142031D01*
X485044Y142103D01*
X486017Y142506D01*
X486853Y143147D01*
X487494Y143983D01*
X487897Y144956D01*
X487969Y145500D01*
D02*
G37*
G36*
X483500D02*
X480031D01*
X480103Y144956D01*
X480506Y143983D01*
X481147Y143147D01*
X481983Y142506D01*
X482956Y142103D01*
X483500Y142031D01*
Y145500D01*
D02*
G37*
G36*
X570000Y154287D02*
X568890Y154141D01*
X567857Y153712D01*
X566969Y153031D01*
X566288Y152143D01*
X565859Y151110D01*
X565713Y150000D01*
X565859Y148890D01*
X566288Y147857D01*
X566969Y146969D01*
X567857Y146288D01*
X568890Y145859D01*
X570000Y145713D01*
X571109Y145859D01*
X572143Y146288D01*
X573031Y146969D01*
X573712Y147857D01*
X574141Y148890D01*
X574287Y150000D01*
X574141Y151110D01*
X573712Y152143D01*
X573031Y153031D01*
X572143Y153712D01*
X571109Y154141D01*
X570000Y154287D01*
D02*
G37*
G36*
X484500Y149969D02*
Y146500D01*
X487969D01*
X487897Y147044D01*
X487494Y148017D01*
X486853Y148853D01*
X486017Y149494D01*
X485044Y149897D01*
X484500Y149969D01*
D02*
G37*
G36*
X483500D02*
X482956Y149897D01*
X481983Y149494D01*
X481147Y148853D01*
X480506Y148017D01*
X480103Y147044D01*
X480031Y146500D01*
X483500D01*
Y149969D01*
D02*
G37*
G36*
X484500Y139969D02*
Y136500D01*
X487969D01*
X487897Y137044D01*
X487494Y138017D01*
X486853Y138853D01*
X486017Y139494D01*
X485044Y139897D01*
X484500Y139969D01*
D02*
G37*
G36*
X600000Y118039D02*
X598432Y117884D01*
X596924Y117427D01*
X595534Y116684D01*
X594316Y115684D01*
X593316Y114466D01*
X592573Y113076D01*
X592116Y111568D01*
X591961Y110000D01*
X592116Y108432D01*
X592573Y106924D01*
X593316Y105534D01*
X594316Y104316D01*
X595534Y103316D01*
X596924Y102573D01*
X598432Y102116D01*
X600000Y101961D01*
X601568Y102116D01*
X603076Y102573D01*
X604466Y103316D01*
X605684Y104316D01*
X606684Y105534D01*
X607427Y106924D01*
X607884Y108432D01*
X608039Y110000D01*
X607884Y111568D01*
X607427Y113076D01*
X606684Y114466D01*
X605684Y115684D01*
X604466Y116684D01*
X603076Y117427D01*
X601568Y117884D01*
X600000Y118039D01*
D02*
G37*
G36*
X300000D02*
X298432Y117884D01*
X296924Y117427D01*
X295534Y116684D01*
X294316Y115684D01*
X293316Y114466D01*
X292573Y113076D01*
X292116Y111568D01*
X291961Y110000D01*
X292116Y108432D01*
X292573Y106924D01*
X293316Y105534D01*
X294316Y104316D01*
X295534Y103316D01*
X296924Y102573D01*
X298432Y102116D01*
X300000Y101961D01*
X301568Y102116D01*
X303076Y102573D01*
X304466Y103316D01*
X305684Y104316D01*
X306684Y105534D01*
X307427Y106924D01*
X307884Y108432D01*
X308039Y110000D01*
X307884Y111568D01*
X307427Y113076D01*
X306684Y114466D01*
X305684Y115684D01*
X304466Y116684D01*
X303076Y117427D01*
X301568Y117884D01*
X300000Y118039D01*
D02*
G37*
G36*
X483500Y135500D02*
X480031D01*
X480103Y134956D01*
X480506Y133983D01*
X481147Y133147D01*
X481983Y132506D01*
X482956Y132103D01*
X483500Y132031D01*
Y135500D01*
D02*
G37*
G36*
Y139969D02*
X482956Y139897D01*
X481983Y139494D01*
X481147Y138853D01*
X480506Y138017D01*
X480103Y137044D01*
X480031Y136500D01*
X483500D01*
Y139969D01*
D02*
G37*
G36*
X487969Y135500D02*
X484500D01*
Y132031D01*
X485044Y132103D01*
X486017Y132506D01*
X486853Y133147D01*
X487494Y133983D01*
X487897Y134956D01*
X487969Y135500D01*
D02*
G37*
G36*
X570000Y164287D02*
X568890Y164141D01*
X567857Y163712D01*
X566969Y163031D01*
X566288Y162143D01*
X565859Y161109D01*
X565713Y160000D01*
X565859Y158890D01*
X566288Y157857D01*
X566969Y156969D01*
X567857Y156288D01*
X568890Y155859D01*
X570000Y155713D01*
X571109Y155859D01*
X572143Y156288D01*
X573031Y156969D01*
X573712Y157857D01*
X574141Y158890D01*
X574287Y160000D01*
X574141Y161109D01*
X573712Y162143D01*
X573031Y163031D01*
X572143Y163712D01*
X571109Y164141D01*
X570000Y164287D01*
D02*
G37*
G36*
X300250Y223026D02*
X299750D01*
X298967Y222923D01*
X298237Y222621D01*
X297610Y222140D01*
X297130Y221513D01*
X296827Y220783D01*
X296724Y220000D01*
X296827Y219217D01*
X297130Y218487D01*
X297610Y217860D01*
X298237Y217379D01*
X298967Y217077D01*
X299750Y216974D01*
X300250D01*
X301033Y217077D01*
X301763Y217379D01*
X302390Y217860D01*
X302870Y218487D01*
X303173Y219217D01*
X303276Y220000D01*
X303173Y220783D01*
X302870Y221513D01*
X302390Y222140D01*
X301763Y222621D01*
X301033Y222923D01*
X300250Y223026D01*
D02*
G37*
G36*
X514000Y209530D02*
X513086Y209410D01*
X512235Y209057D01*
X511504Y208496D01*
X510943Y207765D01*
X510590Y206914D01*
X510470Y206000D01*
X510590Y205086D01*
X510943Y204235D01*
X511504Y203504D01*
X512235Y202943D01*
X513086Y202590D01*
X514000Y202470D01*
X514914Y202590D01*
X515765Y202943D01*
X516496Y203504D01*
X517057Y204235D01*
X517410Y205086D01*
X517530Y206000D01*
X517410Y206914D01*
X517057Y207765D01*
X516496Y208496D01*
X515765Y209057D01*
X514914Y209410D01*
X514000Y209530D01*
D02*
G37*
G36*
X360250Y223026D02*
X359750D01*
X358967Y222923D01*
X358237Y222621D01*
X357610Y222140D01*
X357130Y221513D01*
X356827Y220783D01*
X356724Y220000D01*
X356827Y219217D01*
X357130Y218487D01*
X357610Y217860D01*
X358237Y217379D01*
X358967Y217077D01*
X359750Y216974D01*
X360250D01*
X361033Y217077D01*
X361763Y217379D01*
X362390Y217860D01*
X362871Y218487D01*
X363173Y219217D01*
X363276Y220000D01*
X363173Y220783D01*
X362871Y221513D01*
X362390Y222140D01*
X361763Y222621D01*
X361033Y222923D01*
X360250Y223026D01*
D02*
G37*
G36*
Y233026D02*
X359750D01*
X358967Y232923D01*
X358237Y232621D01*
X357610Y232140D01*
X357130Y231513D01*
X356827Y230783D01*
X356724Y230000D01*
X356827Y229217D01*
X357130Y228487D01*
X357610Y227860D01*
X358237Y227379D01*
X358967Y227077D01*
X359750Y226974D01*
X360250D01*
X361033Y227077D01*
X361763Y227379D01*
X362390Y227860D01*
X362871Y228487D01*
X363173Y229217D01*
X363276Y230000D01*
X363173Y230783D01*
X362871Y231513D01*
X362390Y232140D01*
X361763Y232621D01*
X361033Y232923D01*
X360250Y233026D01*
D02*
G37*
G36*
X300250D02*
X299750D01*
X298967Y232923D01*
X298237Y232621D01*
X297610Y232140D01*
X297130Y231513D01*
X296827Y230783D01*
X296724Y230000D01*
X296827Y229217D01*
X297130Y228487D01*
X297610Y227860D01*
X298237Y227379D01*
X298967Y227077D01*
X299750Y226974D01*
X300250D01*
X301033Y227077D01*
X301763Y227379D01*
X302390Y227860D01*
X302870Y228487D01*
X303173Y229217D01*
X303276Y230000D01*
X303173Y230783D01*
X302870Y231513D01*
X302390Y232140D01*
X301763Y232621D01*
X301033Y232923D01*
X300250Y233026D01*
D02*
G37*
G36*
X514000Y199530D02*
X513086Y199410D01*
X512235Y199057D01*
X511504Y198496D01*
X510943Y197765D01*
X510634Y197020D01*
X508000D01*
X507610Y196942D01*
X507279Y196721D01*
X505279Y194721D01*
X505058Y194390D01*
X504980Y194000D01*
Y183000D01*
X505058Y182610D01*
X505279Y182279D01*
X507279Y180279D01*
X507610Y180058D01*
X508000Y179980D01*
X513589D01*
X513622Y179480D01*
X513086Y179410D01*
X512235Y179057D01*
X511504Y178496D01*
X510943Y177765D01*
X510590Y176914D01*
X510470Y176000D01*
X510590Y175086D01*
X510943Y174235D01*
X511504Y173504D01*
X512235Y172943D01*
X513086Y172590D01*
X514000Y172470D01*
X514914Y172590D01*
X515765Y172943D01*
X516496Y173504D01*
X517057Y174235D01*
X517410Y175086D01*
X517530Y176000D01*
X517410Y176914D01*
X517057Y177765D01*
X516496Y178496D01*
X515765Y179057D01*
X514914Y179410D01*
X514378Y179480D01*
X514411Y179980D01*
X548578D01*
X556343Y172215D01*
X556288Y172143D01*
X555859Y171109D01*
X555713Y170000D01*
X555859Y168891D01*
X556288Y167857D01*
X556969Y166969D01*
X557857Y166288D01*
X558890Y165859D01*
X560000Y165713D01*
X561109Y165859D01*
X562143Y166288D01*
X563031Y166969D01*
X563712Y167857D01*
X564141Y168891D01*
X564287Y170000D01*
X564141Y171109D01*
X563712Y172143D01*
X563031Y173031D01*
X562143Y173712D01*
X561109Y174141D01*
X560000Y174287D01*
X558890Y174141D01*
X557857Y173712D01*
X557785Y173657D01*
X549721Y181721D01*
X549390Y181942D01*
X549000Y182020D01*
X514411D01*
X514378Y182520D01*
X514914Y182590D01*
X515765Y182943D01*
X516496Y183504D01*
X517057Y184235D01*
X517366Y184980D01*
X553578D01*
X556343Y182215D01*
X556288Y182143D01*
X555859Y181109D01*
X555713Y180000D01*
X555859Y178891D01*
X556288Y177857D01*
X556969Y176969D01*
X557857Y176288D01*
X558890Y175859D01*
X560000Y175713D01*
X561109Y175859D01*
X562143Y176288D01*
X563031Y176969D01*
X563712Y177857D01*
X564141Y178891D01*
X564287Y180000D01*
X564141Y181109D01*
X563712Y182143D01*
X563031Y183031D01*
X562143Y183712D01*
X561109Y184141D01*
X560000Y184287D01*
X558890Y184141D01*
X557857Y183712D01*
X557785Y183657D01*
X556192Y185250D01*
X556399Y185750D01*
X564250D01*
Y194250D01*
X555750D01*
Y186399D01*
X555250Y186192D01*
X554721Y186721D01*
X554390Y186942D01*
X554000Y187020D01*
X517366D01*
X517057Y187765D01*
X516496Y188496D01*
X515765Y189057D01*
X514914Y189410D01*
X514000Y189530D01*
X513086Y189410D01*
X512235Y189057D01*
X511504Y188496D01*
X510943Y187765D01*
X510590Y186914D01*
X510470Y186000D01*
X510590Y185086D01*
X510943Y184235D01*
X511504Y183504D01*
X512235Y182943D01*
X513086Y182590D01*
X513622Y182520D01*
X513589Y182020D01*
X508422D01*
X507020Y183422D01*
Y193578D01*
X508422Y194980D01*
X510634D01*
X510943Y194235D01*
X511504Y193504D01*
X512235Y192943D01*
X513086Y192590D01*
X514000Y192470D01*
X514914Y192590D01*
X515765Y192943D01*
X516496Y193504D01*
X517057Y194235D01*
X517410Y195086D01*
X517530Y196000D01*
X517410Y196914D01*
X517057Y197765D01*
X516496Y198496D01*
X515765Y199057D01*
X514914Y199410D01*
X514000Y199530D01*
D02*
G37*
G36*
X570000Y184287D02*
X568890Y184141D01*
X567857Y183712D01*
X566969Y183031D01*
X566288Y182143D01*
X565859Y181109D01*
X565713Y180000D01*
X565859Y178891D01*
X566288Y177857D01*
X566969Y176969D01*
X567857Y176288D01*
X568890Y175859D01*
X570000Y175713D01*
X571109Y175859D01*
X572143Y176288D01*
X573031Y176969D01*
X573712Y177857D01*
X574141Y178891D01*
X574287Y180000D01*
X574141Y181109D01*
X573712Y182143D01*
X573031Y183031D01*
X572143Y183712D01*
X571109Y184141D01*
X570000Y184287D01*
D02*
G37*
G36*
Y174287D02*
X568890Y174141D01*
X567857Y173712D01*
X566969Y173031D01*
X566288Y172143D01*
X565859Y171109D01*
X565713Y170000D01*
X565859Y168891D01*
X566288Y167857D01*
X566969Y166969D01*
X567857Y166288D01*
X568890Y165859D01*
X570000Y165713D01*
X571109Y165859D01*
X572143Y166288D01*
X573031Y166969D01*
X573712Y167857D01*
X574141Y168891D01*
X574287Y170000D01*
X574141Y171109D01*
X573712Y172143D01*
X573031Y173031D01*
X572143Y173712D01*
X571109Y174141D01*
X570000Y174287D01*
D02*
G37*
G36*
Y194287D02*
X568890Y194141D01*
X567857Y193712D01*
X566969Y193031D01*
X566288Y192143D01*
X565859Y191110D01*
X565713Y190000D01*
X565859Y188891D01*
X566288Y187857D01*
X566969Y186969D01*
X567857Y186288D01*
X568890Y185859D01*
X570000Y185713D01*
X571109Y185859D01*
X572143Y186288D01*
X573031Y186969D01*
X573712Y187857D01*
X574141Y188891D01*
X574287Y190000D01*
X574141Y191110D01*
X573712Y192143D01*
X573031Y193031D01*
X572143Y193712D01*
X571109Y194141D01*
X570000Y194287D01*
D02*
G37*
G36*
X484000Y199530D02*
X483086Y199410D01*
X482235Y199057D01*
X481504Y198496D01*
X480943Y197765D01*
X480590Y196914D01*
X480470Y196000D01*
X480590Y195086D01*
X480943Y194235D01*
X481504Y193504D01*
X482235Y192943D01*
X483086Y192590D01*
X484000Y192470D01*
X484914Y192590D01*
X485765Y192943D01*
X486496Y193504D01*
X487057Y194235D01*
X487410Y195086D01*
X487530Y196000D01*
X487410Y196914D01*
X487057Y197765D01*
X486496Y198496D01*
X485765Y199057D01*
X484914Y199410D01*
X484000Y199530D01*
D02*
G37*
G36*
X450000Y204039D02*
X448432Y203884D01*
X446924Y203427D01*
X445534Y202684D01*
X444316Y201684D01*
X443316Y200466D01*
X442573Y199076D01*
X442116Y197568D01*
X441961Y196000D01*
X442116Y194432D01*
X442573Y192924D01*
X443316Y191534D01*
X444316Y190316D01*
X445534Y189316D01*
X446924Y188573D01*
X448432Y188116D01*
X450000Y187961D01*
X451568Y188116D01*
X453076Y188573D01*
X454466Y189316D01*
X455684Y190316D01*
X456684Y191534D01*
X457427Y192924D01*
X457884Y194432D01*
X458039Y196000D01*
X457884Y197568D01*
X457427Y199076D01*
X456684Y200466D01*
X455684Y201684D01*
X454466Y202684D01*
X453076Y203427D01*
X451568Y203884D01*
X450000Y204039D01*
D02*
G37*
G36*
X564543Y329500D02*
X560500D01*
Y325457D01*
X564543D01*
Y329500D01*
D02*
G37*
G36*
X405500Y420492D02*
X404334Y420377D01*
X402731Y419891D01*
X401255Y419102D01*
X399960Y418040D01*
X398898Y416745D01*
X398109Y415269D01*
X397623Y413666D01*
X397508Y412500D01*
X405500D01*
Y420492D01*
D02*
G37*
G36*
X389846Y419846D02*
X382154D01*
Y412154D01*
X389846D01*
Y419846D01*
D02*
G37*
G36*
X414492Y411500D02*
X406500D01*
Y403508D01*
X407666Y403623D01*
X409269Y404109D01*
X410745Y404898D01*
X412040Y405961D01*
X413102Y407255D01*
X413891Y408731D01*
X414377Y410334D01*
X414492Y411500D01*
D02*
G37*
G36*
X390318Y425500D02*
X386500D01*
Y421682D01*
X387135Y421765D01*
X388192Y422203D01*
X389100Y422900D01*
X389797Y423808D01*
X390235Y424865D01*
X390318Y425500D01*
D02*
G37*
G36*
X385500D02*
X381682D01*
X381765Y424865D01*
X382203Y423808D01*
X382900Y422900D01*
X383808Y422203D01*
X384865Y421765D01*
X385500Y421682D01*
Y425500D01*
D02*
G37*
G36*
X406500Y420492D02*
Y412500D01*
X414492D01*
X414377Y413666D01*
X413891Y415269D01*
X413102Y416745D01*
X412040Y418040D01*
X410745Y419102D01*
X409269Y419891D01*
X407666Y420377D01*
X406500Y420492D01*
D02*
G37*
G36*
X589500Y405822D02*
X588824Y405756D01*
X587693Y405413D01*
X586651Y404855D01*
X585737Y404106D01*
X584987Y403192D01*
X584430Y402150D01*
X584087Y401019D01*
X584020Y400343D01*
X589500D01*
Y405822D01*
D02*
G37*
G36*
X595980Y399343D02*
X590500D01*
Y393863D01*
X591176Y393929D01*
X592307Y394272D01*
X593350Y394830D01*
X594263Y395579D01*
X595013Y396493D01*
X595570Y397535D01*
X595913Y398666D01*
X595980Y399343D01*
D02*
G37*
G36*
X589500D02*
X584020D01*
X584087Y398666D01*
X584430Y397535D01*
X584987Y396493D01*
X585737Y395579D01*
X586651Y394830D01*
X587693Y394272D01*
X588824Y393929D01*
X589500Y393863D01*
Y399343D01*
D02*
G37*
G36*
X405500Y411500D02*
X397508D01*
X397623Y410334D01*
X398109Y408731D01*
X398898Y407255D01*
X399960Y405961D01*
X401255Y404898D01*
X402731Y404109D01*
X404334Y403623D01*
X405500Y403508D01*
Y411500D01*
D02*
G37*
G36*
X550000Y418039D02*
X548432Y417884D01*
X546924Y417427D01*
X545534Y416684D01*
X544316Y415684D01*
X543316Y414466D01*
X542573Y413076D01*
X542116Y411568D01*
X542062Y411020D01*
X530000D01*
X529610Y410942D01*
X529279Y410721D01*
X463279Y344721D01*
X463058Y344390D01*
X462980Y344000D01*
Y332825D01*
X462487Y332621D01*
X461860Y332140D01*
X461379Y331513D01*
X461077Y330783D01*
X460974Y330000D01*
X461077Y329217D01*
X461379Y328487D01*
X461860Y327860D01*
X462487Y327379D01*
X463217Y327077D01*
X464000Y326974D01*
X464783Y327077D01*
X465513Y327379D01*
X466140Y327860D01*
X466620Y328487D01*
X466923Y329217D01*
X467026Y330000D01*
X466923Y330783D01*
X466620Y331513D01*
X466140Y332140D01*
X465513Y332621D01*
X465020Y332825D01*
Y343578D01*
X530422Y408980D01*
X542062D01*
X542116Y408432D01*
X542573Y406924D01*
X543316Y405534D01*
X544316Y404316D01*
X545534Y403316D01*
X546924Y402573D01*
X548432Y402116D01*
X550000Y401961D01*
X551568Y402116D01*
X553076Y402573D01*
X554466Y403316D01*
X555684Y404316D01*
X556684Y405534D01*
X557427Y406924D01*
X557884Y408432D01*
X558039Y410000D01*
X557884Y411568D01*
X557427Y413076D01*
X556684Y414466D01*
X555684Y415684D01*
X554466Y416684D01*
X553076Y417427D01*
X551568Y417884D01*
X550000Y418039D01*
D02*
G37*
G36*
X590500Y405822D02*
Y400343D01*
X595980D01*
X595913Y401019D01*
X595570Y402150D01*
X595013Y403192D01*
X594263Y404106D01*
X593350Y404855D01*
X592307Y405413D01*
X591176Y405756D01*
X590500Y405822D01*
D02*
G37*
G36*
X590000Y512039D02*
X588432Y511884D01*
X586924Y511427D01*
X585534Y510684D01*
X584316Y509684D01*
X583316Y508466D01*
X582573Y507076D01*
X582116Y505568D01*
X581961Y504000D01*
X582116Y502432D01*
X582573Y500924D01*
X583316Y499534D01*
X584316Y498316D01*
X585534Y497316D01*
X586924Y496573D01*
X588432Y496116D01*
X590000Y495961D01*
X591568Y496116D01*
X593076Y496573D01*
X594466Y497316D01*
X595684Y498316D01*
X596684Y499534D01*
X597427Y500924D01*
X597884Y502432D01*
X598039Y504000D01*
X597884Y505568D01*
X597427Y507076D01*
X596684Y508466D01*
X595684Y509684D01*
X594466Y510684D01*
X593076Y511427D01*
X591568Y511884D01*
X590000Y512039D01*
D02*
G37*
G36*
X532000Y504039D02*
X530432Y503884D01*
X528924Y503427D01*
X527534Y502684D01*
X526316Y501684D01*
X525316Y500466D01*
X524573Y499076D01*
X524116Y497568D01*
X523961Y496000D01*
X524116Y494432D01*
X524573Y492924D01*
X525316Y491534D01*
X526316Y490316D01*
X527534Y489316D01*
X528924Y488573D01*
X530432Y488116D01*
X532000Y487961D01*
X533568Y488116D01*
X535076Y488573D01*
X536466Y489316D01*
X537684Y490316D01*
X538684Y491534D01*
X539427Y492924D01*
X539884Y494432D01*
X540039Y496000D01*
X539884Y497568D01*
X539427Y499076D01*
X538684Y500466D01*
X537684Y501684D01*
X536466Y502684D01*
X535076Y503427D01*
X533568Y503884D01*
X532000Y504039D01*
D02*
G37*
G36*
X450000Y514039D02*
X448432Y513884D01*
X446924Y513427D01*
X445534Y512684D01*
X444316Y511684D01*
X443316Y510466D01*
X442573Y509076D01*
X442116Y507568D01*
X441961Y506000D01*
X442116Y504432D01*
X442573Y502924D01*
X443316Y501534D01*
X444316Y500316D01*
X445534Y499316D01*
X446924Y498573D01*
X448432Y498116D01*
X450000Y497961D01*
X451568Y498116D01*
X453076Y498573D01*
X454466Y499316D01*
X455684Y500316D01*
X456684Y501534D01*
X457427Y502924D01*
X457884Y504432D01*
X457938Y504980D01*
X555578D01*
X556980Y503578D01*
Y492825D01*
X556487Y492621D01*
X555860Y492140D01*
X555379Y491513D01*
X555077Y490783D01*
X554974Y490000D01*
X555077Y489217D01*
X555379Y488487D01*
X555860Y487860D01*
X556487Y487380D01*
X557217Y487077D01*
X558000Y486974D01*
X558783Y487077D01*
X559513Y487380D01*
X560140Y487860D01*
X560620Y488487D01*
X560923Y489217D01*
X561026Y490000D01*
X560923Y490783D01*
X560620Y491513D01*
X560140Y492140D01*
X559513Y492621D01*
X559020Y492825D01*
Y504000D01*
X558942Y504390D01*
X558721Y504721D01*
X556721Y506721D01*
X556390Y506942D01*
X556000Y507020D01*
X457938D01*
X457884Y507568D01*
X457427Y509076D01*
X456684Y510466D01*
X455684Y511684D01*
X454466Y512684D01*
X453076Y513427D01*
X451568Y513884D01*
X450000Y514039D01*
D02*
G37*
G36*
X600000Y538039D02*
X598432Y537884D01*
X596924Y537427D01*
X595534Y536684D01*
X594316Y535684D01*
X593316Y534466D01*
X592573Y533076D01*
X592116Y531568D01*
X591961Y530000D01*
X592116Y528432D01*
X592573Y526924D01*
X593316Y525534D01*
X594316Y524316D01*
X595534Y523316D01*
X596924Y522573D01*
X598432Y522116D01*
X600000Y521961D01*
X601568Y522116D01*
X603076Y522573D01*
X604466Y523316D01*
X605684Y524316D01*
X606684Y525534D01*
X607427Y526924D01*
X607884Y528432D01*
X608039Y530000D01*
X607884Y531568D01*
X607427Y533076D01*
X606684Y534466D01*
X605684Y535684D01*
X604466Y536684D01*
X603076Y537427D01*
X601568Y537884D01*
X600000Y538039D01*
D02*
G37*
G36*
X300000D02*
X298432Y537884D01*
X296924Y537427D01*
X295534Y536684D01*
X294316Y535684D01*
X293316Y534466D01*
X292573Y533076D01*
X292116Y531568D01*
X291961Y530000D01*
X292116Y528432D01*
X292573Y526924D01*
X293316Y525534D01*
X294316Y524316D01*
X295534Y523316D01*
X296924Y522573D01*
X298432Y522116D01*
X300000Y521961D01*
X301568Y522116D01*
X303076Y522573D01*
X304466Y523316D01*
X305684Y524316D01*
X306684Y525534D01*
X307427Y526924D01*
X307884Y528432D01*
X308039Y530000D01*
X307884Y531568D01*
X307427Y533076D01*
X306684Y534466D01*
X305684Y535684D01*
X304466Y536684D01*
X303076Y537427D01*
X301568Y537884D01*
X300000Y538039D01*
D02*
G37*
G36*
X538000Y519026D02*
X537217Y518923D01*
X536487Y518620D01*
X535860Y518140D01*
X535380Y517513D01*
X535175Y517020D01*
X435000D01*
X434610Y516942D01*
X434279Y516721D01*
X419279Y501721D01*
X419058Y501390D01*
X418980Y501000D01*
Y320422D01*
X416277Y317718D01*
X415783Y317923D01*
X415000Y318026D01*
X414217Y317923D01*
X413487Y317620D01*
X412860Y317140D01*
X412380Y316513D01*
X412077Y315783D01*
X411974Y315000D01*
X412077Y314217D01*
X412380Y313487D01*
X412860Y312860D01*
X413487Y312380D01*
X414217Y312077D01*
X415000Y311974D01*
X415783Y312077D01*
X416513Y312380D01*
X417140Y312860D01*
X417621Y313487D01*
X417923Y314217D01*
X418026Y315000D01*
X417923Y315783D01*
X417718Y316277D01*
X420721Y319279D01*
X420942Y319610D01*
X421020Y320000D01*
Y500578D01*
X435422Y514980D01*
X535175D01*
X535380Y514487D01*
X535860Y513860D01*
X536487Y513379D01*
X537217Y513077D01*
X538000Y512974D01*
X538783Y513077D01*
X539513Y513379D01*
X540140Y513860D01*
X540621Y514487D01*
X540923Y515217D01*
X541026Y516000D01*
X540923Y516783D01*
X540621Y517513D01*
X540140Y518140D01*
X539513Y518620D01*
X538783Y518923D01*
X538000Y519026D01*
D02*
G37*
G36*
X590000Y444039D02*
X588432Y443884D01*
X586924Y443427D01*
X585534Y442684D01*
X584316Y441684D01*
X583316Y440466D01*
X582573Y439076D01*
X582116Y437568D01*
X581961Y436000D01*
X582116Y434432D01*
X582573Y432924D01*
X583316Y431534D01*
X584316Y430316D01*
X585534Y429316D01*
X586924Y428573D01*
X588432Y428116D01*
X590000Y427961D01*
X591568Y428116D01*
X593076Y428573D01*
X594466Y429316D01*
X595684Y430316D01*
X596684Y431534D01*
X597427Y432924D01*
X597884Y434432D01*
X598039Y436000D01*
X597884Y437568D01*
X597427Y439076D01*
X596684Y440466D01*
X595684Y441684D01*
X594466Y442684D01*
X593076Y443427D01*
X591568Y443884D01*
X590000Y444039D01*
D02*
G37*
G36*
X386500Y430318D02*
Y426500D01*
X390318D01*
X390235Y427135D01*
X389797Y428192D01*
X389100Y429100D01*
X388192Y429797D01*
X387135Y430235D01*
X386500Y430318D01*
D02*
G37*
G36*
X385500D02*
X384865Y430235D01*
X383808Y429797D01*
X382900Y429100D01*
X382203Y428192D01*
X381765Y427135D01*
X381682Y426500D01*
X385500D01*
Y430318D01*
D02*
G37*
G36*
X596000Y515020D02*
X572000D01*
X571610Y514942D01*
X571279Y514721D01*
X563279Y506721D01*
X563058Y506390D01*
X562980Y506000D01*
Y428422D01*
X559578Y425020D01*
X462825D01*
X462620Y425513D01*
X462140Y426140D01*
X461513Y426620D01*
X460783Y426923D01*
X460000Y427026D01*
X459217Y426923D01*
X458723Y426718D01*
X446718Y438724D01*
X446923Y439217D01*
X447026Y440000D01*
X446923Y440783D01*
X446621Y441513D01*
X446140Y442140D01*
X445513Y442621D01*
X444783Y442923D01*
X444000Y443026D01*
X443217Y442923D01*
X442487Y442621D01*
X441860Y442140D01*
X441379Y441513D01*
X441077Y440783D01*
X440974Y440000D01*
X441077Y439217D01*
X441379Y438487D01*
X441860Y437860D01*
X442487Y437380D01*
X443217Y437077D01*
X444000Y436974D01*
X444783Y437077D01*
X445276Y437282D01*
X457282Y425277D01*
X457077Y424783D01*
X456974Y424000D01*
X457077Y423217D01*
X457379Y422487D01*
X457860Y421860D01*
X458487Y421380D01*
X459217Y421077D01*
X460000Y420974D01*
X460783Y421077D01*
X461513Y421380D01*
X462140Y421860D01*
X462620Y422487D01*
X462825Y422980D01*
X470831D01*
X471038Y422480D01*
X451276Y402718D01*
X450783Y402923D01*
X450000Y403026D01*
X449217Y402923D01*
X448487Y402621D01*
X447860Y402140D01*
X447379Y401513D01*
X447077Y400783D01*
X446974Y400000D01*
X447077Y399217D01*
X447379Y398487D01*
X447860Y397860D01*
X448487Y397379D01*
X449217Y397077D01*
X450000Y396974D01*
X450783Y397077D01*
X451513Y397379D01*
X452140Y397860D01*
X452621Y398487D01*
X452923Y399217D01*
X453026Y400000D01*
X452923Y400783D01*
X452718Y401276D01*
X472422Y420980D01*
X560121D01*
X560511Y421058D01*
X560842Y421279D01*
X566221Y426658D01*
X566442Y426989D01*
X566520Y427379D01*
Y493078D01*
X574422Y500980D01*
X577578D01*
X588980Y489578D01*
Y485256D01*
X588564Y485201D01*
X587226Y484647D01*
X586077Y483765D01*
X585196Y482616D01*
X584642Y481278D01*
X584452Y479843D01*
X584642Y478407D01*
X585196Y477069D01*
X586077Y475920D01*
X587226Y475038D01*
X588564Y474484D01*
X590000Y474295D01*
X591436Y474484D01*
X592774Y475038D01*
X593923Y475920D01*
X594804Y477069D01*
X595358Y478407D01*
X595547Y479843D01*
X595358Y481278D01*
X594804Y482616D01*
X593923Y483765D01*
X592774Y484647D01*
X591436Y485201D01*
X591020Y485256D01*
Y490000D01*
X590942Y490390D01*
X590721Y490721D01*
X578721Y502721D01*
X578390Y502942D01*
X578000Y503020D01*
X574000D01*
X573610Y502942D01*
X573279Y502721D01*
X565482Y494923D01*
X565020Y495115D01*
Y505578D01*
X572422Y512980D01*
X595578D01*
X598980Y509578D01*
Y470422D01*
X593196Y464638D01*
X592774Y464962D01*
X591436Y465516D01*
X590000Y465705D01*
X588564Y465516D01*
X587226Y464962D01*
X586077Y464080D01*
X585196Y462931D01*
X584642Y461593D01*
X584452Y460157D01*
X584642Y458722D01*
X585196Y457384D01*
X586077Y456235D01*
X587226Y455353D01*
X588564Y454799D01*
X590000Y454610D01*
X591436Y454799D01*
X592774Y455353D01*
X593923Y456235D01*
X594804Y457384D01*
X595358Y458722D01*
X595547Y460157D01*
X595358Y461593D01*
X594804Y462931D01*
X594617Y463175D01*
X600721Y469279D01*
X600942Y469610D01*
X601020Y470000D01*
Y510000D01*
X600942Y510390D01*
X600721Y510721D01*
X596721Y514721D01*
X596390Y514942D01*
X596000Y515020D01*
D02*
G37*
G36*
X386000Y439880D02*
X384996Y439747D01*
X384060Y439360D01*
X383257Y438743D01*
X382640Y437940D01*
X382253Y437004D01*
X382120Y436000D01*
X382253Y434996D01*
X382640Y434060D01*
X383257Y433257D01*
X384060Y432640D01*
X384996Y432253D01*
X386000Y432120D01*
X387004Y432253D01*
X387940Y432640D01*
X388743Y433257D01*
X389360Y434060D01*
X389747Y434996D01*
X389880Y436000D01*
X389747Y437004D01*
X389360Y437940D01*
X388743Y438743D01*
X387940Y439360D01*
X387004Y439747D01*
X386000Y439880D01*
D02*
G37*
G36*
X406000Y446039D02*
X404432Y445884D01*
X402924Y445427D01*
X401534Y444684D01*
X400316Y443684D01*
X399316Y442466D01*
X398573Y441076D01*
X398116Y439568D01*
X397961Y438000D01*
X398116Y436432D01*
X398573Y434924D01*
X399316Y433534D01*
X400316Y432316D01*
X401534Y431316D01*
X402924Y430573D01*
X404432Y430116D01*
X406000Y429961D01*
X407568Y430116D01*
X409076Y430573D01*
X410466Y431316D01*
X411684Y432316D01*
X412684Y433534D01*
X413427Y434924D01*
X413884Y436432D01*
X414039Y438000D01*
X413884Y439568D01*
X413427Y441076D01*
X412684Y442466D01*
X411684Y443684D01*
X410466Y444684D01*
X409076Y445427D01*
X407568Y445884D01*
X406000Y446039D01*
D02*
G37*
G36*
X400000Y357530D02*
X399086Y357410D01*
X398235Y357057D01*
X397504Y356496D01*
X396943Y355765D01*
X396590Y354914D01*
X396470Y354000D01*
X396590Y353086D01*
X396943Y352235D01*
X397504Y351504D01*
X398235Y350943D01*
X399086Y350590D01*
X400000Y350470D01*
X400914Y350590D01*
X401765Y350943D01*
X402496Y351504D01*
X403057Y352235D01*
X403410Y353086D01*
X403530Y354000D01*
X403410Y354914D01*
X403057Y355765D01*
X402496Y356496D01*
X401765Y357057D01*
X400914Y357410D01*
X400000Y357530D01*
D02*
G37*
G36*
X300250Y353026D02*
X299750D01*
X298967Y352923D01*
X298237Y352621D01*
X297610Y352140D01*
X297130Y351513D01*
X296827Y350783D01*
X296724Y350000D01*
X296827Y349217D01*
X297130Y348487D01*
X297610Y347860D01*
X298237Y347379D01*
X298967Y347077D01*
X299750Y346974D01*
X300250D01*
X301033Y347077D01*
X301763Y347379D01*
X302390Y347860D01*
X302870Y348487D01*
X303173Y349217D01*
X303276Y350000D01*
X303173Y350783D01*
X302870Y351513D01*
X302390Y352140D01*
X301763Y352621D01*
X301033Y352923D01*
X300250Y353026D01*
D02*
G37*
G36*
X360250Y343026D02*
X359750D01*
X358967Y342923D01*
X358237Y342620D01*
X357610Y342140D01*
X357130Y341513D01*
X356827Y340783D01*
X356724Y340000D01*
X356827Y339217D01*
X357130Y338487D01*
X357610Y337860D01*
X358237Y337380D01*
X358967Y337077D01*
X359750Y336974D01*
X360250D01*
X361033Y337077D01*
X361763Y337380D01*
X362390Y337860D01*
X362871Y338487D01*
X363173Y339217D01*
X363276Y340000D01*
X363173Y340783D01*
X362871Y341513D01*
X362390Y342140D01*
X361763Y342620D01*
X361033Y342923D01*
X360250Y343026D01*
D02*
G37*
G36*
X303714Y329500D02*
X300500D01*
Y326503D01*
X301164Y326590D01*
X302015Y326943D01*
X302746Y327504D01*
X303307Y328235D01*
X303660Y329086D01*
X303714Y329500D01*
D02*
G37*
G36*
X360250Y333026D02*
X359750D01*
X358967Y332923D01*
X358237Y332621D01*
X357610Y332140D01*
X357130Y331513D01*
X356827Y330783D01*
X356724Y330000D01*
X356827Y329217D01*
X357130Y328487D01*
X357610Y327860D01*
X358237Y327379D01*
X358967Y327077D01*
X359750Y326974D01*
X360250D01*
X361033Y327077D01*
X361763Y327379D01*
X362390Y327860D01*
X362871Y328487D01*
X363173Y329217D01*
X363276Y330000D01*
X363173Y330783D01*
X362871Y331513D01*
X362390Y332140D01*
X361763Y332621D01*
X361033Y332923D01*
X360250Y333026D01*
D02*
G37*
G36*
X359500Y353497D02*
X358836Y353410D01*
X357985Y353057D01*
X357254Y352496D01*
X356693Y351765D01*
X356340Y350914D01*
X356286Y350500D01*
X359500D01*
Y353497D01*
D02*
G37*
G36*
X559500Y334543D02*
X555457D01*
Y330500D01*
X559500D01*
Y334543D01*
D02*
G37*
G36*
X300500Y333497D02*
Y330500D01*
X303714D01*
X303660Y330914D01*
X303307Y331765D01*
X302746Y332496D01*
X302015Y333057D01*
X301164Y333410D01*
X300500Y333497D01*
D02*
G37*
G36*
X299500D02*
X298836Y333410D01*
X297985Y333057D01*
X297254Y332496D01*
X296693Y331765D01*
X296340Y330914D01*
X296286Y330500D01*
X299500D01*
Y333497D01*
D02*
G37*
G36*
X300250Y343026D02*
X299750D01*
X298967Y342923D01*
X298237Y342620D01*
X297610Y342140D01*
X297130Y341513D01*
X296827Y340783D01*
X296724Y340000D01*
X296827Y339217D01*
X297130Y338487D01*
X297610Y337860D01*
X298237Y337380D01*
X298967Y337077D01*
X299750Y336974D01*
X300250D01*
X301033Y337077D01*
X301763Y337380D01*
X302390Y337860D01*
X302870Y338487D01*
X303173Y339217D01*
X303276Y340000D01*
X303173Y340783D01*
X302870Y341513D01*
X302390Y342140D01*
X301763Y342620D01*
X301033Y342923D01*
X300250Y343026D01*
D02*
G37*
G36*
X560000Y344035D02*
X558956Y343897D01*
X557983Y343494D01*
X557147Y342853D01*
X556506Y342017D01*
X556103Y341044D01*
X555966Y340000D01*
X556103Y338956D01*
X556506Y337983D01*
X557147Y337147D01*
X557983Y336506D01*
X558956Y336103D01*
X560000Y335965D01*
X561044Y336103D01*
X562017Y336506D01*
X562853Y337147D01*
X563494Y337983D01*
X563897Y338956D01*
X564035Y340000D01*
X563897Y341044D01*
X563494Y342017D01*
X562853Y342853D01*
X562017Y343494D01*
X561044Y343897D01*
X560000Y344035D01*
D02*
G37*
G36*
X564543Y334543D02*
X560500D01*
Y330500D01*
X564543D01*
Y334543D01*
D02*
G37*
G36*
X589500Y379657D02*
X584020D01*
X584087Y378981D01*
X584430Y377850D01*
X584987Y376808D01*
X585737Y375894D01*
X586651Y375145D01*
X587693Y374587D01*
X588824Y374244D01*
X589500Y374178D01*
Y379657D01*
D02*
G37*
G36*
X403500Y379500D02*
X396500D01*
Y372500D01*
X403500D01*
Y379500D01*
D02*
G37*
G36*
X390000Y379530D02*
X389086Y379410D01*
X388235Y379057D01*
X387504Y378496D01*
X386943Y377765D01*
X386590Y376914D01*
X386470Y376000D01*
X386590Y375086D01*
X386943Y374235D01*
X387504Y373504D01*
X388235Y372943D01*
X389086Y372590D01*
X390000Y372470D01*
X390914Y372590D01*
X391765Y372943D01*
X392496Y373504D01*
X393057Y374235D01*
X393410Y375086D01*
X393530Y376000D01*
X393410Y376914D01*
X393057Y377765D01*
X392496Y378496D01*
X391765Y379057D01*
X390914Y379410D01*
X390000Y379530D01*
D02*
G37*
G36*
X590500Y386137D02*
Y380657D01*
X595980D01*
X595913Y381334D01*
X595570Y382465D01*
X595013Y383507D01*
X594263Y384421D01*
X593350Y385170D01*
X592307Y385728D01*
X591176Y386071D01*
X590500Y386137D01*
D02*
G37*
G36*
X589500D02*
X588824Y386071D01*
X587693Y385728D01*
X586651Y385170D01*
X585737Y384421D01*
X584987Y383507D01*
X584430Y382465D01*
X584087Y381334D01*
X584020Y380657D01*
X589500D01*
Y386137D01*
D02*
G37*
G36*
X595980Y379657D02*
X590500D01*
Y374178D01*
X591176Y374244D01*
X592307Y374587D01*
X593350Y375145D01*
X594263Y375894D01*
X595013Y376808D01*
X595570Y377850D01*
X595913Y378981D01*
X595980Y379657D01*
D02*
G37*
G36*
X393500Y357500D02*
X386500D01*
Y350500D01*
X393500D01*
Y357500D01*
D02*
G37*
G36*
X299500Y329500D02*
X296286D01*
X296340Y329086D01*
X296693Y328235D01*
X297254Y327504D01*
X297985Y326943D01*
X298836Y326590D01*
X299500Y326503D01*
Y329500D01*
D02*
G37*
G36*
X360500Y353497D02*
Y350500D01*
X363714D01*
X363660Y350914D01*
X363307Y351765D01*
X362746Y352496D01*
X362015Y353057D01*
X361164Y353410D01*
X360500Y353497D01*
D02*
G37*
G36*
X450000Y378039D02*
X448432Y377884D01*
X446924Y377427D01*
X445534Y376684D01*
X444316Y375684D01*
X443316Y374466D01*
X442573Y373076D01*
X442116Y371568D01*
X441961Y370000D01*
X442116Y368432D01*
X442573Y366924D01*
X443316Y365534D01*
X444316Y364316D01*
X445534Y363316D01*
X446924Y362573D01*
X448432Y362116D01*
X450000Y361961D01*
X451568Y362116D01*
X453076Y362573D01*
X454466Y363316D01*
X455684Y364316D01*
X456684Y365534D01*
X457427Y366924D01*
X457884Y368432D01*
X458039Y370000D01*
X457884Y371568D01*
X457427Y373076D01*
X456684Y374466D01*
X455684Y375684D01*
X454466Y376684D01*
X453076Y377427D01*
X451568Y377884D01*
X450000Y378039D01*
D02*
G37*
G36*
X303250Y363000D02*
X296750D01*
Y357000D01*
X303250D01*
Y363000D01*
D02*
G37*
G36*
X360250Y363026D02*
X359750D01*
X358967Y362923D01*
X358237Y362620D01*
X357610Y362140D01*
X357130Y361513D01*
X356827Y360783D01*
X356724Y360000D01*
X356827Y359217D01*
X357130Y358487D01*
X357610Y357860D01*
X358237Y357380D01*
X358967Y357077D01*
X359750Y356974D01*
X360250D01*
X361033Y357077D01*
X361763Y357380D01*
X362390Y357860D01*
X362871Y358487D01*
X363173Y359217D01*
X363276Y360000D01*
X363173Y360783D01*
X362871Y361513D01*
X362390Y362140D01*
X361763Y362620D01*
X361033Y362923D01*
X360250Y363026D01*
D02*
G37*
%LPD*%
G36*
X315779Y180279D02*
X316110Y180058D01*
X316500Y179980D01*
X483589D01*
X483622Y179480D01*
X483086Y179410D01*
X482235Y179057D01*
X481504Y178496D01*
X480943Y177765D01*
X480590Y176914D01*
X480470Y176000D01*
X480590Y175086D01*
X480943Y174235D01*
X481504Y173504D01*
X482235Y172943D01*
X483086Y172590D01*
X483622Y172520D01*
X483589Y172020D01*
X316422D01*
X314020Y174422D01*
Y181385D01*
X314481Y181577D01*
X315779Y180279D01*
D02*
G37*
G36*
X315279Y170279D02*
X315610Y170058D01*
X316000Y169980D01*
X483589D01*
X483622Y169480D01*
X483086Y169410D01*
X482235Y169057D01*
X481504Y168496D01*
X480943Y167765D01*
X480590Y166914D01*
X480470Y166000D01*
X480590Y165086D01*
X480943Y164235D01*
X481504Y163504D01*
X482235Y162943D01*
X483086Y162590D01*
X483622Y162520D01*
X483589Y162020D01*
X319544D01*
X312520Y169044D01*
Y172385D01*
X312982Y172576D01*
X315279Y170279D01*
D02*
G37*
G36*
X483622Y159480D02*
X483086Y159410D01*
X482235Y159057D01*
X481504Y158496D01*
X480943Y157765D01*
X480634Y157020D01*
X322422D01*
X319923Y159519D01*
X320115Y159980D01*
X483589D01*
X483622Y159480D01*
D02*
G37*
D36*
X420000Y501000D02*
X435000Y516000D01*
X420000Y320000D02*
Y501000D01*
X415000Y315000D02*
X420000Y320000D01*
X438000Y308000D02*
Y354000D01*
Y308000D02*
X442000Y304000D01*
X486000D01*
X534000Y340000D02*
X554000Y320000D01*
X480000Y340000D02*
X534000D01*
X530000Y410000D02*
X550000D01*
X464000Y344000D02*
X530000Y410000D01*
X464000Y330000D02*
Y344000D01*
X528000Y252000D02*
Y256315D01*
X526000Y250000D02*
X528000Y252000D01*
X490000Y250000D02*
X526000D01*
X480000Y260000D02*
X490000Y250000D01*
X300000Y310000D02*
X306000D01*
X341000Y345000D02*
X400000D01*
X306000Y310000D02*
X341000Y345000D01*
X400000D02*
X402000Y343000D01*
Y310000D02*
Y343000D01*
Y310000D02*
X404000Y308000D01*
X426000D01*
X428000Y310000D01*
Y320000D01*
X435000Y516000D02*
X538000D01*
X360000Y270000D02*
X400000D01*
X484000Y186000D01*
X511000Y161000D02*
X549000D01*
X503000Y169000D02*
X511000Y161000D01*
X503000Y169000D02*
Y187000D01*
X510000Y156000D02*
X514000D01*
X490000Y176000D02*
X510000Y156000D01*
X490000Y176000D02*
Y179000D01*
X300000Y290000D02*
X306000D01*
X314500Y281500D01*
Y183000D02*
Y281500D01*
Y183000D02*
X316500Y181000D01*
X488000D01*
X490000Y179000D01*
X313000Y174000D02*
Y273000D01*
X306000Y280000D02*
X313000Y273000D01*
X300000Y280000D02*
X306000D01*
X311500Y168621D02*
Y264500D01*
X306379Y269621D02*
X311500Y264500D01*
X300000Y269621D02*
X306379D01*
X313000Y174000D02*
X316000Y171000D01*
X489000D01*
X514000Y146000D01*
X311500Y168621D02*
X319121Y161000D01*
X489000D01*
X322000Y156000D02*
X484000D01*
X310000Y168000D02*
X322000Y156000D01*
X310000Y168000D02*
Y256000D01*
X306000Y260000D02*
X310000Y256000D01*
X489000Y161000D02*
X514000Y136000D01*
X300000Y260000D02*
X306000D01*
X450000Y400000D02*
X472000Y422000D01*
X560121D01*
X565500Y427379D01*
Y493500D01*
X574000Y502000D01*
X578000D01*
X590000Y490000D01*
Y479843D02*
Y490000D01*
X460000Y424000D02*
X560000D01*
X564000Y428000D01*
Y506000D01*
X572000Y514000D01*
X596000D01*
X600000Y510000D01*
Y470000D02*
Y510000D01*
X590157Y460157D02*
X600000Y470000D01*
X444000Y440000D02*
X460000Y424000D01*
X528185Y256500D02*
Y277815D01*
X526000Y280000D02*
X528185Y277815D01*
X360000Y280000D02*
X526000D01*
X504121Y320000D02*
X554000D01*
X486621Y302500D02*
X504121Y320000D01*
X372500Y302500D02*
X486621D01*
X360000Y290000D02*
X372500Y302500D01*
X486000Y304000D02*
X510000Y328000D01*
X450000Y506000D02*
X556000D01*
X558000Y504000D01*
Y490000D02*
Y504000D01*
X549000Y161000D02*
X560000Y150000D01*
X484000Y206000D02*
X503000Y187000D01*
X554000Y166000D02*
X560000Y160000D01*
X514000Y166000D02*
X554000D01*
X549000Y181000D02*
X560000Y170000D01*
X508000Y181000D02*
X549000D01*
X506000Y183000D02*
X508000Y181000D01*
X506000Y183000D02*
Y194000D01*
X508000Y196000D01*
X514000D01*
X554000Y186000D02*
X560000Y180000D01*
X514000Y186000D02*
X554000D01*
D37*
X590000Y460157D02*
X590157D01*
D38*
X386000Y436000D02*
D03*
Y426000D02*
D03*
D39*
Y416000D02*
D03*
D40*
X390000Y354000D02*
D03*
X400000Y376000D02*
D03*
X484000Y206000D02*
D03*
D41*
X400000Y354000D02*
D03*
X390000Y376000D02*
D03*
X528185Y256500D02*
D03*
X518000Y266000D02*
D03*
X508500Y256500D02*
D03*
X484000Y196000D02*
D03*
Y186000D02*
D03*
Y176000D02*
D03*
Y166000D02*
D03*
Y156000D02*
D03*
Y146000D02*
D03*
Y136000D02*
D03*
X514000Y206000D02*
D03*
Y196000D02*
D03*
Y186000D02*
D03*
Y176000D02*
D03*
Y166000D02*
D03*
Y156000D02*
D03*
Y146000D02*
D03*
Y136000D02*
D03*
D42*
X560000Y330000D02*
D03*
X558000Y250000D02*
D03*
D43*
X560000Y340000D02*
D03*
X558000Y260000D02*
D03*
D44*
X390000Y330000D02*
D03*
X480000Y340000D02*
D03*
X450000Y196000D02*
D03*
X480000Y260000D02*
D03*
X450000Y506000D02*
D03*
X590000Y436000D02*
D03*
X532000Y496000D02*
D03*
X590000Y504000D02*
D03*
X550000Y410000D02*
D03*
X450000Y370000D02*
D03*
X406000Y412000D02*
D03*
Y438000D02*
D03*
X450000Y290000D02*
D03*
X600000Y110000D02*
D03*
X300000D02*
D03*
X600000Y530000D02*
D03*
X300000D02*
D03*
D45*
X510000Y306000D02*
D03*
X520000D02*
D03*
X530000D02*
D03*
X438000Y354000D02*
D03*
X428000Y320000D02*
D03*
X415000Y315000D02*
D03*
X450000Y400000D02*
D03*
X460000Y424000D02*
D03*
X444000Y440000D02*
D03*
X554000Y320000D02*
D03*
X510000Y328000D02*
D03*
X464000Y330000D02*
D03*
X538000Y516000D02*
D03*
X558000Y490000D02*
D03*
D46*
X560000Y190000D02*
D03*
D47*
X570000D02*
D03*
X560000Y180000D02*
D03*
X570000D02*
D03*
X560000Y170000D02*
D03*
X570000D02*
D03*
X560000Y160000D02*
D03*
X570000D02*
D03*
X560000Y150000D02*
D03*
X570000D02*
D03*
D48*
X590000Y460157D02*
D03*
Y479843D02*
D03*
Y380157D02*
D03*
Y399843D02*
D03*
D49*
X300000Y360000D02*
D03*
D50*
Y350000D02*
D03*
Y340000D02*
D03*
Y330000D02*
D03*
Y320000D02*
D03*
Y310000D02*
D03*
Y300000D02*
D03*
Y290000D02*
D03*
Y280000D02*
D03*
Y270000D02*
D03*
Y260000D02*
D03*
Y250000D02*
D03*
Y240000D02*
D03*
Y230000D02*
D03*
Y220000D02*
D03*
X360000Y360000D02*
D03*
Y350000D02*
D03*
Y340000D02*
D03*
Y330000D02*
D03*
Y320000D02*
D03*
Y310000D02*
D03*
Y300000D02*
D03*
Y290000D02*
D03*
Y280000D02*
D03*
Y270000D02*
D03*
Y260000D02*
D03*
Y250000D02*
D03*
Y240000D02*
D03*
Y230000D02*
D03*
Y220000D02*
D03*
M02*
