M48
;Layer_Color=6321
;FILE_FORMAT=2:5
INCH,LZ
;TYPE=PLATED
T1F00S00C0.02800
T2F00S00C0.03000
T3F00S00C0.03543
T4F00S00C0.03937
T5F00S00C0.04000
T6F00S00C0.04331
T7F00S00C0.05118
T8F00S00C0.07200
T9F00S00C0.12500
%
T01
X0415Y0315
X0428Y032
X0438Y0354
X0464Y033
X045Y04
X046Y0424
X0444Y044
X051Y0328
X0554Y032
X0558Y049
X0538Y0516
T02
X0484Y0136
Y0146
Y0156
X0514
Y0146
Y0136
Y0166
Y0176
Y0186
Y0196
Y0206
X0484
Y0196
Y0186
Y0176
Y0166
X05085Y02565
X0518Y0266
X0528185Y02565
X053Y0306
X052
X051
T03
X056Y015
X057
Y016
Y017
Y018
Y019
X056
Y018
Y017
Y016
X04Y0354
X039
Y0376
X04
T04
X0558Y025
X056Y033
T05
X0558Y026
X036
Y027
Y028
Y029
Y03
Y031
Y025
Y024
Y023
Y022
X03
Y023
Y024
Y025
Y026
Y027
Y028
Y029
Y03
Y031
Y032
Y033
Y034
Y035
Y036
X036
Y035
Y034
Y033
Y032
X056Y034
T06
X0386Y0416
Y0426
Y0436
T07
X059Y0380157
Y0399843
Y0460157
Y0479843
T08
X048Y026
X045Y029
Y0196
Y037
X0406Y0412
Y0438
X039Y033
X048Y034
X055Y041
X059Y0436
Y0504
X0532Y0496
X045Y0506
T09
X03Y011
X06
Y053
X03
M30
